<?xml version="1.0" encoding="utf-8" standalone="no"?>
<!DOCTYPE svg PUBLIC "-//W3C//DTD SVG 1.1//EN"
  "http://www.w3.org/Graphics/SVG/1.1/DTD/svg11.dtd">
<!-- Created with matplotlib (https://matplotlib.org/) -->
<svg height="588.35625pt" version="1.1" viewBox="0 0 691.684375 588.35625" width="691.684375pt" xmlns="http://www.w3.org/2000/svg" xmlns:xlink="http://www.w3.org/1999/xlink">
 <defs>
  <style type="text/css">
*{stroke-linecap:butt;stroke-linejoin:round;white-space:pre;}
  </style>
 </defs>
 <g id="figure_1">
  <g id="patch_1">
   <path d="M 0 588.35625 
L 691.684375 588.35625 
L 691.684375 0 
L 0 0 
z
" style="fill:none;"/>
  </g>
  <g id="axes_1">
   <g id="patch_2">
    <path d="M 126.484375 550.8 
L 684.484375 550.8 
L 684.484375 7.2 
L 126.484375 7.2 
z
" style="fill:#ffffff;"/>
   </g>
   <g id="patch_3">
    <path clip-path="url(#p26b6806190)" d="M 126.484375 25.32 
L 500.610089 25.32 
L 500.610089 54.312 
L 126.484375 54.312 
z
" style="fill:#3274a1;"/>
   </g>
   <g id="patch_4">
    <path clip-path="url(#p26b6806190)" d="M 126.484375 206.52 
L 657.912946 206.52 
L 657.912946 235.512 
L 126.484375 235.512 
z
" style="fill:#3274a1;"/>
   </g>
   <g id="patch_5">
    <path clip-path="url(#p26b6806190)" d="M 126.484375 387.72 
L 271.032946 387.72 
L 271.032946 416.712 
L 126.484375 416.712 
z
" style="fill:#3274a1;"/>
   </g>
   <g id="patch_6">
    <path clip-path="url(#p26b6806190)" d="M 126.484375 54.312 
L 279.535804 54.312 
L 279.535804 83.304 
L 126.484375 83.304 
z
" style="fill:#e1812c;"/>
   </g>
   <g id="patch_7">
    <path clip-path="url(#p26b6806190)" d="M 126.484375 235.512 
L 428.335804 235.512 
L 428.335804 264.504 
L 126.484375 264.504 
z
" style="fill:#e1812c;"/>
   </g>
   <g id="patch_8">
    <path clip-path="url(#p26b6806190)" d="M 126.484375 416.712 
L 211.512946 416.712 
L 211.512946 445.704 
L 126.484375 445.704 
z
" style="fill:#e1812c;"/>
   </g>
   <g id="patch_9">
    <path clip-path="url(#p26b6806190)" d="M 126.484375 83.304 
L 300.792946 83.304 
L 300.792946 112.296 
L 126.484375 112.296 
z
" style="fill:#3a923a;"/>
   </g>
   <g id="patch_10">
    <path clip-path="url(#p26b6806190)" d="M 126.484375 264.504 
L 407.078661 264.504 
L 407.078661 293.496 
L 126.484375 293.496 
z
" style="fill:#3a923a;"/>
   </g>
   <g id="patch_11">
    <path clip-path="url(#p26b6806190)" d="M 126.484375 445.704 
L 228.518661 445.704 
L 228.518661 474.696 
L 126.484375 474.696 
z
" style="fill:#3a923a;"/>
   </g>
   <g id="patch_12">
    <path clip-path="url(#p26b6806190)" d="M 126.484375 112.296 
L 343.307232 112.296 
L 343.307232 141.288 
L 126.484375 141.288 
z
" style="fill:#c03d3e;"/>
   </g>
   <g id="patch_13">
    <path clip-path="url(#p26b6806190)" d="M 126.484375 293.496 
L 402.827232 293.496 
L 402.827232 322.488 
L 126.484375 322.488 
z
" style="fill:#c03d3e;"/>
   </g>
   <g id="patch_14">
    <path clip-path="url(#p26b6806190)" d="M 126.484375 474.696 
L 168.998661 474.696 
L 168.998661 503.688 
L 126.484375 503.688 
z
" style="fill:#c03d3e;"/>
   </g>
   <g id="patch_15">
    <path clip-path="url(#p26b6806190)" d="M 126.484375 141.288 
L 560.130089 141.288 
L 560.130089 170.28 
L 126.484375 170.28 
z
" style="fill:#9372b2;"/>
   </g>
   <g id="patch_16">
    <path clip-path="url(#p26b6806190)" d="M 126.484375 322.488 
L 458.095804 322.488 
L 458.095804 351.48 
L 126.484375 351.48 
z
" style="fill:#9372b2;"/>
   </g>
   <g id="patch_17">
    <path clip-path="url(#p26b6806190)" d="M 126.484375 503.688 
L 186.004375 503.688 
L 186.004375 532.68 
L 126.484375 532.68 
z
" style="fill:#9372b2;"/>
   </g>
   <g id="matplotlib.axis_1">
    <g id="xtick_1">
     <g id="line2d_1">
      <defs>
       <path d="M 0 0 
L 0 3.5 
" id="m94cecf069e" style="stroke:#000000;stroke-width:0.8;"/>
      </defs>
      <g>
       <use style="stroke:#000000;stroke-width:0.8;" x="126.484375" xlink:href="#m94cecf069e" y="550.8"/>
      </g>
     </g>
     <g id="text_1">
      <!-- 0 -->
      <defs>
       <path d="M 31.78125 66.40625 
Q 24.171875 66.40625 20.328125 58.90625 
Q 16.5 51.421875 16.5 36.375 
Q 16.5 21.390625 20.328125 13.890625 
Q 24.171875 6.390625 31.78125 6.390625 
Q 39.453125 6.390625 43.28125 13.890625 
Q 47.125 21.390625 47.125 36.375 
Q 47.125 51.421875 43.28125 58.90625 
Q 39.453125 66.40625 31.78125 66.40625 
z
M 31.78125 74.21875 
Q 44.046875 74.21875 50.515625 64.515625 
Q 56.984375 54.828125 56.984375 36.375 
Q 56.984375 17.96875 50.515625 8.265625 
Q 44.046875 -1.421875 31.78125 -1.421875 
Q 19.53125 -1.421875 13.0625 8.265625 
Q 6.59375 17.96875 6.59375 36.375 
Q 6.59375 54.828125 13.0625 64.515625 
Q 19.53125 74.21875 31.78125 74.21875 
z
" id="DejaVuSans-48"/>
      </defs>
      <g transform="translate(123.303125 565.398438)scale(0.1 -0.1)">
       <use xlink:href="#DejaVuSans-48"/>
      </g>
     </g>
    </g>
    <g id="xtick_2">
     <g id="line2d_2">
      <g>
       <use style="stroke:#000000;stroke-width:0.8;" x="211.512946" xlink:href="#m94cecf069e" y="550.8"/>
      </g>
     </g>
     <g id="text_2">
      <!-- 20 -->
      <defs>
       <path d="M 19.1875 8.296875 
L 53.609375 8.296875 
L 53.609375 0 
L 7.328125 0 
L 7.328125 8.296875 
Q 12.9375 14.109375 22.625 23.890625 
Q 32.328125 33.6875 34.8125 36.53125 
Q 39.546875 41.84375 41.421875 45.53125 
Q 43.3125 49.21875 43.3125 52.78125 
Q 43.3125 58.59375 39.234375 62.25 
Q 35.15625 65.921875 28.609375 65.921875 
Q 23.96875 65.921875 18.8125 64.3125 
Q 13.671875 62.703125 7.8125 59.421875 
L 7.8125 69.390625 
Q 13.765625 71.78125 18.9375 73 
Q 24.125 74.21875 28.421875 74.21875 
Q 39.75 74.21875 46.484375 68.546875 
Q 53.21875 62.890625 53.21875 53.421875 
Q 53.21875 48.921875 51.53125 44.890625 
Q 49.859375 40.875 45.40625 35.40625 
Q 44.1875 33.984375 37.640625 27.21875 
Q 31.109375 20.453125 19.1875 8.296875 
z
" id="DejaVuSans-50"/>
      </defs>
      <g transform="translate(205.150446 565.398438)scale(0.1 -0.1)">
       <use xlink:href="#DejaVuSans-50"/>
       <use x="63.623047" xlink:href="#DejaVuSans-48"/>
      </g>
     </g>
    </g>
    <g id="xtick_3">
     <g id="line2d_3">
      <g>
       <use style="stroke:#000000;stroke-width:0.8;" x="296.541518" xlink:href="#m94cecf069e" y="550.8"/>
      </g>
     </g>
     <g id="text_3">
      <!-- 40 -->
      <defs>
       <path d="M 37.796875 64.3125 
L 12.890625 25.390625 
L 37.796875 25.390625 
z
M 35.203125 72.90625 
L 47.609375 72.90625 
L 47.609375 25.390625 
L 58.015625 25.390625 
L 58.015625 17.1875 
L 47.609375 17.1875 
L 47.609375 0 
L 37.796875 0 
L 37.796875 17.1875 
L 4.890625 17.1875 
L 4.890625 26.703125 
z
" id="DejaVuSans-52"/>
      </defs>
      <g transform="translate(290.179018 565.398438)scale(0.1 -0.1)">
       <use xlink:href="#DejaVuSans-52"/>
       <use x="63.623047" xlink:href="#DejaVuSans-48"/>
      </g>
     </g>
    </g>
    <g id="xtick_4">
     <g id="line2d_4">
      <g>
       <use style="stroke:#000000;stroke-width:0.8;" x="381.570089" xlink:href="#m94cecf069e" y="550.8"/>
      </g>
     </g>
     <g id="text_4">
      <!-- 60 -->
      <defs>
       <path d="M 33.015625 40.375 
Q 26.375 40.375 22.484375 35.828125 
Q 18.609375 31.296875 18.609375 23.390625 
Q 18.609375 15.53125 22.484375 10.953125 
Q 26.375 6.390625 33.015625 6.390625 
Q 39.65625 6.390625 43.53125 10.953125 
Q 47.40625 15.53125 47.40625 23.390625 
Q 47.40625 31.296875 43.53125 35.828125 
Q 39.65625 40.375 33.015625 40.375 
z
M 52.59375 71.296875 
L 52.59375 62.3125 
Q 48.875 64.0625 45.09375 64.984375 
Q 41.3125 65.921875 37.59375 65.921875 
Q 27.828125 65.921875 22.671875 59.328125 
Q 17.53125 52.734375 16.796875 39.40625 
Q 19.671875 43.65625 24.015625 45.921875 
Q 28.375 48.1875 33.59375 48.1875 
Q 44.578125 48.1875 50.953125 41.515625 
Q 57.328125 34.859375 57.328125 23.390625 
Q 57.328125 12.15625 50.6875 5.359375 
Q 44.046875 -1.421875 33.015625 -1.421875 
Q 20.359375 -1.421875 13.671875 8.265625 
Q 6.984375 17.96875 6.984375 36.375 
Q 6.984375 53.65625 15.1875 63.9375 
Q 23.390625 74.21875 37.203125 74.21875 
Q 40.921875 74.21875 44.703125 73.484375 
Q 48.484375 72.75 52.59375 71.296875 
z
" id="DejaVuSans-54"/>
      </defs>
      <g transform="translate(375.207589 565.398438)scale(0.1 -0.1)">
       <use xlink:href="#DejaVuSans-54"/>
       <use x="63.623047" xlink:href="#DejaVuSans-48"/>
      </g>
     </g>
    </g>
    <g id="xtick_5">
     <g id="line2d_5">
      <g>
       <use style="stroke:#000000;stroke-width:0.8;" x="466.598661" xlink:href="#m94cecf069e" y="550.8"/>
      </g>
     </g>
     <g id="text_5">
      <!-- 80 -->
      <defs>
       <path d="M 31.78125 34.625 
Q 24.75 34.625 20.71875 30.859375 
Q 16.703125 27.09375 16.703125 20.515625 
Q 16.703125 13.921875 20.71875 10.15625 
Q 24.75 6.390625 31.78125 6.390625 
Q 38.8125 6.390625 42.859375 10.171875 
Q 46.921875 13.96875 46.921875 20.515625 
Q 46.921875 27.09375 42.890625 30.859375 
Q 38.875 34.625 31.78125 34.625 
z
M 21.921875 38.8125 
Q 15.578125 40.375 12.03125 44.71875 
Q 8.5 49.078125 8.5 55.328125 
Q 8.5 64.0625 14.71875 69.140625 
Q 20.953125 74.21875 31.78125 74.21875 
Q 42.671875 74.21875 48.875 69.140625 
Q 55.078125 64.0625 55.078125 55.328125 
Q 55.078125 49.078125 51.53125 44.71875 
Q 48 40.375 41.703125 38.8125 
Q 48.828125 37.15625 52.796875 32.3125 
Q 56.78125 27.484375 56.78125 20.515625 
Q 56.78125 9.90625 50.3125 4.234375 
Q 43.84375 -1.421875 31.78125 -1.421875 
Q 19.734375 -1.421875 13.25 4.234375 
Q 6.78125 9.90625 6.78125 20.515625 
Q 6.78125 27.484375 10.78125 32.3125 
Q 14.796875 37.15625 21.921875 38.8125 
z
M 18.3125 54.390625 
Q 18.3125 48.734375 21.84375 45.5625 
Q 25.390625 42.390625 31.78125 42.390625 
Q 38.140625 42.390625 41.71875 45.5625 
Q 45.3125 48.734375 45.3125 54.390625 
Q 45.3125 60.0625 41.71875 63.234375 
Q 38.140625 66.40625 31.78125 66.40625 
Q 25.390625 66.40625 21.84375 63.234375 
Q 18.3125 60.0625 18.3125 54.390625 
z
" id="DejaVuSans-56"/>
      </defs>
      <g transform="translate(460.236161 565.398438)scale(0.1 -0.1)">
       <use xlink:href="#DejaVuSans-56"/>
       <use x="63.623047" xlink:href="#DejaVuSans-48"/>
      </g>
     </g>
    </g>
    <g id="xtick_6">
     <g id="line2d_6">
      <g>
       <use style="stroke:#000000;stroke-width:0.8;" x="551.627232" xlink:href="#m94cecf069e" y="550.8"/>
      </g>
     </g>
     <g id="text_6">
      <!-- 100 -->
      <defs>
       <path d="M 12.40625 8.296875 
L 28.515625 8.296875 
L 28.515625 63.921875 
L 10.984375 60.40625 
L 10.984375 69.390625 
L 28.421875 72.90625 
L 38.28125 72.90625 
L 38.28125 8.296875 
L 54.390625 8.296875 
L 54.390625 0 
L 12.40625 0 
z
" id="DejaVuSans-49"/>
      </defs>
      <g transform="translate(542.083482 565.398438)scale(0.1 -0.1)">
       <use xlink:href="#DejaVuSans-49"/>
       <use x="63.623047" xlink:href="#DejaVuSans-48"/>
       <use x="127.246094" xlink:href="#DejaVuSans-48"/>
      </g>
     </g>
    </g>
    <g id="xtick_7">
     <g id="line2d_7">
      <g>
       <use style="stroke:#000000;stroke-width:0.8;" x="636.655804" xlink:href="#m94cecf069e" y="550.8"/>
      </g>
     </g>
     <g id="text_7">
      <!-- 120 -->
      <g transform="translate(627.112054 565.398438)scale(0.1 -0.1)">
       <use xlink:href="#DejaVuSans-49"/>
       <use x="63.623047" xlink:href="#DejaVuSans-50"/>
       <use x="127.246094" xlink:href="#DejaVuSans-48"/>
      </g>
     </g>
    </g>
    <g id="text_8">
     <!-- count -->
     <defs>
      <path d="M 48.78125 52.59375 
L 48.78125 44.1875 
Q 44.96875 46.296875 41.140625 47.34375 
Q 37.3125 48.390625 33.40625 48.390625 
Q 24.65625 48.390625 19.8125 42.84375 
Q 14.984375 37.3125 14.984375 27.296875 
Q 14.984375 17.28125 19.8125 11.734375 
Q 24.65625 6.203125 33.40625 6.203125 
Q 37.3125 6.203125 41.140625 7.25 
Q 44.96875 8.296875 48.78125 10.40625 
L 48.78125 2.09375 
Q 45.015625 0.34375 40.984375 -0.53125 
Q 36.96875 -1.421875 32.421875 -1.421875 
Q 20.0625 -1.421875 12.78125 6.34375 
Q 5.515625 14.109375 5.515625 27.296875 
Q 5.515625 40.671875 12.859375 48.328125 
Q 20.21875 56 33.015625 56 
Q 37.15625 56 41.109375 55.140625 
Q 45.0625 54.296875 48.78125 52.59375 
z
" id="DejaVuSans-99"/>
      <path d="M 30.609375 48.390625 
Q 23.390625 48.390625 19.1875 42.75 
Q 14.984375 37.109375 14.984375 27.296875 
Q 14.984375 17.484375 19.15625 11.84375 
Q 23.34375 6.203125 30.609375 6.203125 
Q 37.796875 6.203125 41.984375 11.859375 
Q 46.1875 17.53125 46.1875 27.296875 
Q 46.1875 37.015625 41.984375 42.703125 
Q 37.796875 48.390625 30.609375 48.390625 
z
M 30.609375 56 
Q 42.328125 56 49.015625 48.375 
Q 55.71875 40.765625 55.71875 27.296875 
Q 55.71875 13.875 49.015625 6.21875 
Q 42.328125 -1.421875 30.609375 -1.421875 
Q 18.84375 -1.421875 12.171875 6.21875 
Q 5.515625 13.875 5.515625 27.296875 
Q 5.515625 40.765625 12.171875 48.375 
Q 18.84375 56 30.609375 56 
z
" id="DejaVuSans-111"/>
      <path d="M 8.5 21.578125 
L 8.5 54.6875 
L 17.484375 54.6875 
L 17.484375 21.921875 
Q 17.484375 14.15625 20.5 10.265625 
Q 23.53125 6.390625 29.59375 6.390625 
Q 36.859375 6.390625 41.078125 11.03125 
Q 45.3125 15.671875 45.3125 23.6875 
L 45.3125 54.6875 
L 54.296875 54.6875 
L 54.296875 0 
L 45.3125 0 
L 45.3125 8.40625 
Q 42.046875 3.421875 37.71875 1 
Q 33.40625 -1.421875 27.6875 -1.421875 
Q 18.265625 -1.421875 13.375 4.4375 
Q 8.5 10.296875 8.5 21.578125 
z
M 31.109375 56 
z
" id="DejaVuSans-117"/>
      <path d="M 54.890625 33.015625 
L 54.890625 0 
L 45.90625 0 
L 45.90625 32.71875 
Q 45.90625 40.484375 42.875 44.328125 
Q 39.84375 48.1875 33.796875 48.1875 
Q 26.515625 48.1875 22.3125 43.546875 
Q 18.109375 38.921875 18.109375 30.90625 
L 18.109375 0 
L 9.078125 0 
L 9.078125 54.6875 
L 18.109375 54.6875 
L 18.109375 46.1875 
Q 21.34375 51.125 25.703125 53.5625 
Q 30.078125 56 35.796875 56 
Q 45.21875 56 50.046875 50.171875 
Q 54.890625 44.34375 54.890625 33.015625 
z
" id="DejaVuSans-110"/>
      <path d="M 18.3125 70.21875 
L 18.3125 54.6875 
L 36.8125 54.6875 
L 36.8125 47.703125 
L 18.3125 47.703125 
L 18.3125 18.015625 
Q 18.3125 11.328125 20.140625 9.421875 
Q 21.96875 7.515625 27.59375 7.515625 
L 36.8125 7.515625 
L 36.8125 0 
L 27.59375 0 
Q 17.1875 0 13.234375 3.875 
Q 9.28125 7.765625 9.28125 18.015625 
L 9.28125 47.703125 
L 2.6875 47.703125 
L 2.6875 54.6875 
L 9.28125 54.6875 
L 9.28125 70.21875 
z
" id="DejaVuSans-116"/>
     </defs>
     <g transform="translate(391.378125 579.076563)scale(0.1 -0.1)">
      <use xlink:href="#DejaVuSans-99"/>
      <use x="54.980469" xlink:href="#DejaVuSans-111"/>
      <use x="116.162109" xlink:href="#DejaVuSans-117"/>
      <use x="179.541016" xlink:href="#DejaVuSans-110"/>
      <use x="242.919922" xlink:href="#DejaVuSans-116"/>
     </g>
    </g>
   </g>
   <g id="matplotlib.axis_2">
    <g id="ytick_1">
     <g id="line2d_8">
      <defs>
       <path d="M 0 0 
L -3.5 0 
" id="m4c4c6677c2" style="stroke:#000000;stroke-width:0.8;"/>
      </defs>
      <g>
       <use style="stroke:#000000;stroke-width:0.8;" x="126.484375" xlink:href="#m4c4c6677c2" y="97.8"/>
      </g>
     </g>
     <g id="text_9">
      <!-- Every day -->
      <defs>
       <path d="M 9.8125 72.90625 
L 55.90625 72.90625 
L 55.90625 64.59375 
L 19.671875 64.59375 
L 19.671875 43.015625 
L 54.390625 43.015625 
L 54.390625 34.71875 
L 19.671875 34.71875 
L 19.671875 8.296875 
L 56.78125 8.296875 
L 56.78125 0 
L 9.8125 0 
z
" id="DejaVuSans-69"/>
       <path d="M 2.984375 54.6875 
L 12.5 54.6875 
L 29.59375 8.796875 
L 46.6875 54.6875 
L 56.203125 54.6875 
L 35.6875 0 
L 23.484375 0 
z
" id="DejaVuSans-118"/>
       <path d="M 56.203125 29.59375 
L 56.203125 25.203125 
L 14.890625 25.203125 
Q 15.484375 15.921875 20.484375 11.0625 
Q 25.484375 6.203125 34.421875 6.203125 
Q 39.59375 6.203125 44.453125 7.46875 
Q 49.3125 8.734375 54.109375 11.28125 
L 54.109375 2.78125 
Q 49.265625 0.734375 44.1875 -0.34375 
Q 39.109375 -1.421875 33.890625 -1.421875 
Q 20.796875 -1.421875 13.15625 6.1875 
Q 5.515625 13.8125 5.515625 26.8125 
Q 5.515625 40.234375 12.765625 48.109375 
Q 20.015625 56 32.328125 56 
Q 43.359375 56 49.78125 48.890625 
Q 56.203125 41.796875 56.203125 29.59375 
z
M 47.21875 32.234375 
Q 47.125 39.59375 43.09375 43.984375 
Q 39.0625 48.390625 32.421875 48.390625 
Q 24.90625 48.390625 20.390625 44.140625 
Q 15.875 39.890625 15.1875 32.171875 
z
" id="DejaVuSans-101"/>
       <path d="M 41.109375 46.296875 
Q 39.59375 47.171875 37.8125 47.578125 
Q 36.03125 48 33.890625 48 
Q 26.265625 48 22.1875 43.046875 
Q 18.109375 38.09375 18.109375 28.8125 
L 18.109375 0 
L 9.078125 0 
L 9.078125 54.6875 
L 18.109375 54.6875 
L 18.109375 46.1875 
Q 20.953125 51.171875 25.484375 53.578125 
Q 30.03125 56 36.53125 56 
Q 37.453125 56 38.578125 55.875 
Q 39.703125 55.765625 41.0625 55.515625 
z
" id="DejaVuSans-114"/>
       <path d="M 32.171875 -5.078125 
Q 28.375 -14.84375 24.75 -17.8125 
Q 21.140625 -20.796875 15.09375 -20.796875 
L 7.90625 -20.796875 
L 7.90625 -13.28125 
L 13.1875 -13.28125 
Q 16.890625 -13.28125 18.9375 -11.515625 
Q 21 -9.765625 23.484375 -3.21875 
L 25.09375 0.875 
L 2.984375 54.6875 
L 12.5 54.6875 
L 29.59375 11.921875 
L 46.6875 54.6875 
L 56.203125 54.6875 
z
" id="DejaVuSans-121"/>
       <path id="DejaVuSans-32"/>
       <path d="M 45.40625 46.390625 
L 45.40625 75.984375 
L 54.390625 75.984375 
L 54.390625 0 
L 45.40625 0 
L 45.40625 8.203125 
Q 42.578125 3.328125 38.25 0.953125 
Q 33.9375 -1.421875 27.875 -1.421875 
Q 17.96875 -1.421875 11.734375 6.484375 
Q 5.515625 14.40625 5.515625 27.296875 
Q 5.515625 40.1875 11.734375 48.09375 
Q 17.96875 56 27.875 56 
Q 33.9375 56 38.25 53.625 
Q 42.578125 51.265625 45.40625 46.390625 
z
M 14.796875 27.296875 
Q 14.796875 17.390625 18.875 11.75 
Q 22.953125 6.109375 30.078125 6.109375 
Q 37.203125 6.109375 41.296875 11.75 
Q 45.40625 17.390625 45.40625 27.296875 
Q 45.40625 37.203125 41.296875 42.84375 
Q 37.203125 48.484375 30.078125 48.484375 
Q 22.953125 48.484375 18.875 42.84375 
Q 14.796875 37.203125 14.796875 27.296875 
z
" id="DejaVuSans-100"/>
       <path d="M 34.28125 27.484375 
Q 23.390625 27.484375 19.1875 25 
Q 14.984375 22.515625 14.984375 16.5 
Q 14.984375 11.71875 18.140625 8.90625 
Q 21.296875 6.109375 26.703125 6.109375 
Q 34.1875 6.109375 38.703125 11.40625 
Q 43.21875 16.703125 43.21875 25.484375 
L 43.21875 27.484375 
z
M 52.203125 31.203125 
L 52.203125 0 
L 43.21875 0 
L 43.21875 8.296875 
Q 40.140625 3.328125 35.546875 0.953125 
Q 30.953125 -1.421875 24.3125 -1.421875 
Q 15.921875 -1.421875 10.953125 3.296875 
Q 6 8.015625 6 15.921875 
Q 6 25.140625 12.171875 29.828125 
Q 18.359375 34.515625 30.609375 34.515625 
L 43.21875 34.515625 
L 43.21875 35.40625 
Q 43.21875 41.609375 39.140625 45 
Q 35.0625 48.390625 27.6875 48.390625 
Q 23 48.390625 18.546875 47.265625 
Q 14.109375 46.140625 10.015625 43.890625 
L 10.015625 52.203125 
Q 14.9375 54.109375 19.578125 55.046875 
Q 24.21875 56 28.609375 56 
Q 40.484375 56 46.34375 49.84375 
Q 52.203125 43.703125 52.203125 31.203125 
z
" id="DejaVuSans-97"/>
      </defs>
      <g transform="translate(69.490625 101.599219)scale(0.1 -0.1)">
       <use xlink:href="#DejaVuSans-69"/>
       <use x="63.183594" xlink:href="#DejaVuSans-118"/>
       <use x="122.363281" xlink:href="#DejaVuSans-101"/>
       <use x="183.886719" xlink:href="#DejaVuSans-114"/>
       <use x="225" xlink:href="#DejaVuSans-121"/>
       <use x="284.179688" xlink:href="#DejaVuSans-32"/>
       <use x="315.966797" xlink:href="#DejaVuSans-100"/>
       <use x="379.443359" xlink:href="#DejaVuSans-97"/>
       <use x="440.722656" xlink:href="#DejaVuSans-121"/>
      </g>
     </g>
    </g>
    <g id="ytick_2">
     <g id="line2d_9">
      <g>
       <use style="stroke:#000000;stroke-width:0.8;" x="126.484375" xlink:href="#m4c4c6677c2" y="279"/>
      </g>
     </g>
     <g id="text_10">
      <!-- Occasionally -->
      <defs>
       <path d="M 39.40625 66.21875 
Q 28.65625 66.21875 22.328125 58.203125 
Q 16.015625 50.203125 16.015625 36.375 
Q 16.015625 22.609375 22.328125 14.59375 
Q 28.65625 6.59375 39.40625 6.59375 
Q 50.140625 6.59375 56.421875 14.59375 
Q 62.703125 22.609375 62.703125 36.375 
Q 62.703125 50.203125 56.421875 58.203125 
Q 50.140625 66.21875 39.40625 66.21875 
z
M 39.40625 74.21875 
Q 54.734375 74.21875 63.90625 63.9375 
Q 73.09375 53.65625 73.09375 36.375 
Q 73.09375 19.140625 63.90625 8.859375 
Q 54.734375 -1.421875 39.40625 -1.421875 
Q 24.03125 -1.421875 14.8125 8.828125 
Q 5.609375 19.09375 5.609375 36.375 
Q 5.609375 53.65625 14.8125 63.9375 
Q 24.03125 74.21875 39.40625 74.21875 
z
" id="DejaVuSans-79"/>
       <path d="M 44.28125 53.078125 
L 44.28125 44.578125 
Q 40.484375 46.53125 36.375 47.5 
Q 32.28125 48.484375 27.875 48.484375 
Q 21.1875 48.484375 17.84375 46.4375 
Q 14.5 44.390625 14.5 40.28125 
Q 14.5 37.15625 16.890625 35.375 
Q 19.28125 33.59375 26.515625 31.984375 
L 29.59375 31.296875 
Q 39.15625 29.25 43.1875 25.515625 
Q 47.21875 21.78125 47.21875 15.09375 
Q 47.21875 7.46875 41.1875 3.015625 
Q 35.15625 -1.421875 24.609375 -1.421875 
Q 20.21875 -1.421875 15.453125 -0.5625 
Q 10.6875 0.296875 5.421875 2 
L 5.421875 11.28125 
Q 10.40625 8.6875 15.234375 7.390625 
Q 20.0625 6.109375 24.8125 6.109375 
Q 31.15625 6.109375 34.5625 8.28125 
Q 37.984375 10.453125 37.984375 14.40625 
Q 37.984375 18.0625 35.515625 20.015625 
Q 33.0625 21.96875 24.703125 23.78125 
L 21.578125 24.515625 
Q 13.234375 26.265625 9.515625 29.90625 
Q 5.8125 33.546875 5.8125 39.890625 
Q 5.8125 47.609375 11.28125 51.796875 
Q 16.75 56 26.8125 56 
Q 31.78125 56 36.171875 55.265625 
Q 40.578125 54.546875 44.28125 53.078125 
z
" id="DejaVuSans-115"/>
       <path d="M 9.421875 54.6875 
L 18.40625 54.6875 
L 18.40625 0 
L 9.421875 0 
z
M 9.421875 75.984375 
L 18.40625 75.984375 
L 18.40625 64.59375 
L 9.421875 64.59375 
z
" id="DejaVuSans-105"/>
       <path d="M 9.421875 75.984375 
L 18.40625 75.984375 
L 18.40625 0 
L 9.421875 0 
z
" id="DejaVuSans-108"/>
      </defs>
      <g transform="translate(56.440625 282.799219)scale(0.1 -0.1)">
       <use xlink:href="#DejaVuSans-79"/>
       <use x="78.710938" xlink:href="#DejaVuSans-99"/>
       <use x="133.691406" xlink:href="#DejaVuSans-99"/>
       <use x="188.671875" xlink:href="#DejaVuSans-97"/>
       <use x="249.951172" xlink:href="#DejaVuSans-115"/>
       <use x="302.050781" xlink:href="#DejaVuSans-105"/>
       <use x="329.833984" xlink:href="#DejaVuSans-111"/>
       <use x="391.015625" xlink:href="#DejaVuSans-110"/>
       <use x="454.394531" xlink:href="#DejaVuSans-97"/>
       <use x="515.673828" xlink:href="#DejaVuSans-108"/>
       <use x="543.457031" xlink:href="#DejaVuSans-108"/>
       <use x="571.240234" xlink:href="#DejaVuSans-121"/>
      </g>
     </g>
    </g>
    <g id="ytick_3">
     <g id="line2d_10">
      <g>
       <use style="stroke:#000000;stroke-width:0.8;" x="126.484375" xlink:href="#m4c4c6677c2" y="460.2"/>
      </g>
     </g>
     <g id="text_11">
      <!-- Just looking for now -->
      <defs>
       <path d="M 9.8125 72.90625 
L 19.671875 72.90625 
L 19.671875 5.078125 
Q 19.671875 -8.109375 14.671875 -14.0625 
Q 9.671875 -20.015625 -1.421875 -20.015625 
L -5.171875 -20.015625 
L -5.171875 -11.71875 
L -2.09375 -11.71875 
Q 4.4375 -11.71875 7.125 -8.046875 
Q 9.8125 -4.390625 9.8125 5.078125 
z
" id="DejaVuSans-74"/>
       <path d="M 9.078125 75.984375 
L 18.109375 75.984375 
L 18.109375 31.109375 
L 44.921875 54.6875 
L 56.390625 54.6875 
L 27.390625 29.109375 
L 57.625 0 
L 45.90625 0 
L 18.109375 26.703125 
L 18.109375 0 
L 9.078125 0 
z
" id="DejaVuSans-107"/>
       <path d="M 45.40625 27.984375 
Q 45.40625 37.75 41.375 43.109375 
Q 37.359375 48.484375 30.078125 48.484375 
Q 22.859375 48.484375 18.828125 43.109375 
Q 14.796875 37.75 14.796875 27.984375 
Q 14.796875 18.265625 18.828125 12.890625 
Q 22.859375 7.515625 30.078125 7.515625 
Q 37.359375 7.515625 41.375 12.890625 
Q 45.40625 18.265625 45.40625 27.984375 
z
M 54.390625 6.78125 
Q 54.390625 -7.171875 48.1875 -13.984375 
Q 42 -20.796875 29.203125 -20.796875 
Q 24.46875 -20.796875 20.265625 -20.09375 
Q 16.0625 -19.390625 12.109375 -17.921875 
L 12.109375 -9.1875 
Q 16.0625 -11.328125 19.921875 -12.34375 
Q 23.78125 -13.375 27.78125 -13.375 
Q 36.625 -13.375 41.015625 -8.765625 
Q 45.40625 -4.15625 45.40625 5.171875 
L 45.40625 9.625 
Q 42.625 4.78125 38.28125 2.390625 
Q 33.9375 0 27.875 0 
Q 17.828125 0 11.671875 7.65625 
Q 5.515625 15.328125 5.515625 27.984375 
Q 5.515625 40.671875 11.671875 48.328125 
Q 17.828125 56 27.875 56 
Q 33.9375 56 38.28125 53.609375 
Q 42.625 51.21875 45.40625 46.390625 
L 45.40625 54.6875 
L 54.390625 54.6875 
z
" id="DejaVuSans-103"/>
       <path d="M 37.109375 75.984375 
L 37.109375 68.5 
L 28.515625 68.5 
Q 23.6875 68.5 21.796875 66.546875 
Q 19.921875 64.59375 19.921875 59.515625 
L 19.921875 54.6875 
L 34.71875 54.6875 
L 34.71875 47.703125 
L 19.921875 47.703125 
L 19.921875 0 
L 10.890625 0 
L 10.890625 47.703125 
L 2.296875 47.703125 
L 2.296875 54.6875 
L 10.890625 54.6875 
L 10.890625 58.5 
Q 10.890625 67.625 15.140625 71.796875 
Q 19.390625 75.984375 28.609375 75.984375 
z
" id="DejaVuSans-102"/>
       <path d="M 4.203125 54.6875 
L 13.1875 54.6875 
L 24.421875 12.015625 
L 35.59375 54.6875 
L 46.1875 54.6875 
L 57.421875 12.015625 
L 68.609375 54.6875 
L 77.59375 54.6875 
L 63.28125 0 
L 52.6875 0 
L 40.921875 44.828125 
L 29.109375 0 
L 18.5 0 
z
" id="DejaVuSans-119"/>
      </defs>
      <g transform="translate(20.878125 463.999219)scale(0.1 -0.1)">
       <use xlink:href="#DejaVuSans-74"/>
       <use x="29.492188" xlink:href="#DejaVuSans-117"/>
       <use x="92.871094" xlink:href="#DejaVuSans-115"/>
       <use x="144.970703" xlink:href="#DejaVuSans-116"/>
       <use x="184.179688" xlink:href="#DejaVuSans-32"/>
       <use x="215.966797" xlink:href="#DejaVuSans-108"/>
       <use x="243.75" xlink:href="#DejaVuSans-111"/>
       <use x="304.931641" xlink:href="#DejaVuSans-111"/>
       <use x="366.113281" xlink:href="#DejaVuSans-107"/>
       <use x="424.023438" xlink:href="#DejaVuSans-105"/>
       <use x="451.806641" xlink:href="#DejaVuSans-110"/>
       <use x="515.185547" xlink:href="#DejaVuSans-103"/>
       <use x="578.662109" xlink:href="#DejaVuSans-32"/>
       <use x="610.449219" xlink:href="#DejaVuSans-102"/>
       <use x="645.654297" xlink:href="#DejaVuSans-111"/>
       <use x="706.835938" xlink:href="#DejaVuSans-114"/>
       <use x="747.949219" xlink:href="#DejaVuSans-32"/>
       <use x="779.736328" xlink:href="#DejaVuSans-110"/>
       <use x="843.115234" xlink:href="#DejaVuSans-111"/>
       <use x="904.296875" xlink:href="#DejaVuSans-119"/>
      </g>
     </g>
    </g>
    <g id="text_12">
     <!-- How often do you use Dask? -->
     <defs>
      <path d="M 9.8125 72.90625 
L 19.671875 72.90625 
L 19.671875 43.015625 
L 55.515625 43.015625 
L 55.515625 72.90625 
L 65.375 72.90625 
L 65.375 0 
L 55.515625 0 
L 55.515625 34.71875 
L 19.671875 34.71875 
L 19.671875 0 
L 9.8125 0 
z
" id="DejaVuSans-72"/>
      <path d="M 19.671875 64.796875 
L 19.671875 8.109375 
L 31.59375 8.109375 
Q 46.6875 8.109375 53.6875 14.9375 
Q 60.6875 21.78125 60.6875 36.53125 
Q 60.6875 51.171875 53.6875 57.984375 
Q 46.6875 64.796875 31.59375 64.796875 
z
M 9.8125 72.90625 
L 30.078125 72.90625 
Q 51.265625 72.90625 61.171875 64.09375 
Q 71.09375 55.28125 71.09375 36.53125 
Q 71.09375 17.671875 61.125 8.828125 
Q 51.171875 0 30.078125 0 
L 9.8125 0 
z
" id="DejaVuSans-68"/>
      <path d="M 19.09375 12.40625 
L 29 12.40625 
L 29 0 
L 19.09375 0 
z
M 28.71875 19.578125 
L 19.390625 19.578125 
L 19.390625 27.09375 
Q 19.390625 32.03125 20.75 35.203125 
Q 22.125 38.375 26.515625 42.578125 
L 30.90625 46.921875 
Q 33.6875 49.515625 34.9375 51.8125 
Q 36.1875 54.109375 36.1875 56.5 
Q 36.1875 60.84375 32.984375 63.53125 
Q 29.78125 66.21875 24.515625 66.21875 
Q 20.65625 66.21875 16.28125 64.5 
Q 11.921875 62.796875 7.171875 59.515625 
L 7.171875 68.703125 
Q 11.765625 71.484375 16.46875 72.84375 
Q 21.1875 74.21875 26.21875 74.21875 
Q 35.203125 74.21875 40.640625 69.484375 
Q 46.09375 64.75 46.09375 56.984375 
Q 46.09375 53.265625 44.328125 49.921875 
Q 42.578125 46.578125 38.1875 42.390625 
L 33.890625 38.1875 
Q 31.59375 35.890625 30.640625 34.59375 
Q 29.6875 33.296875 29.296875 32.078125 
Q 29 31.0625 28.859375 29.59375 
Q 28.71875 28.125 28.71875 25.59375 
z
" id="DejaVuSans-63"/>
     </defs>
     <g transform="translate(14.798437 350.217188)rotate(-90)scale(0.1 -0.1)">
      <use xlink:href="#DejaVuSans-72"/>
      <use x="75.195312" xlink:href="#DejaVuSans-111"/>
      <use x="136.376953" xlink:href="#DejaVuSans-119"/>
      <use x="218.164062" xlink:href="#DejaVuSans-32"/>
      <use x="249.951172" xlink:href="#DejaVuSans-111"/>
      <use x="311.132812" xlink:href="#DejaVuSans-102"/>
      <use x="346.322266" xlink:href="#DejaVuSans-116"/>
      <use x="385.53125" xlink:href="#DejaVuSans-101"/>
      <use x="447.054688" xlink:href="#DejaVuSans-110"/>
      <use x="510.433594" xlink:href="#DejaVuSans-32"/>
      <use x="542.220703" xlink:href="#DejaVuSans-100"/>
      <use x="605.697266" xlink:href="#DejaVuSans-111"/>
      <use x="666.878906" xlink:href="#DejaVuSans-32"/>
      <use x="698.666016" xlink:href="#DejaVuSans-121"/>
      <use x="757.845703" xlink:href="#DejaVuSans-111"/>
      <use x="819.027344" xlink:href="#DejaVuSans-117"/>
      <use x="882.40625" xlink:href="#DejaVuSans-32"/>
      <use x="914.193359" xlink:href="#DejaVuSans-117"/>
      <use x="977.572266" xlink:href="#DejaVuSans-115"/>
      <use x="1029.671875" xlink:href="#DejaVuSans-101"/>
      <use x="1091.195312" xlink:href="#DejaVuSans-32"/>
      <use x="1122.982422" xlink:href="#DejaVuSans-68"/>
      <use x="1199.984375" xlink:href="#DejaVuSans-97"/>
      <use x="1261.263672" xlink:href="#DejaVuSans-115"/>
      <use x="1313.363281" xlink:href="#DejaVuSans-107"/>
      <use x="1371.273438" xlink:href="#DejaVuSans-63"/>
     </g>
    </g>
   </g>
   <g id="patch_18">
    <path d="M 126.484375 550.8 
L 126.484375 7.2 
" style="fill:none;stroke:#000000;stroke-linecap:square;stroke-linejoin:miter;stroke-width:0.8;"/>
   </g>
   <g id="patch_19">
    <path d="M 126.484375 550.8 
L 684.484375 550.8 
" style="fill:none;stroke:#000000;stroke-linecap:square;stroke-linejoin:miter;stroke-width:0.8;"/>
   </g>
   <g id="legend_1">
    <g id="patch_20">
     <path d="M 315.804688 545.8 
L 677.484375 545.8 
Q 679.484375 545.8 679.484375 543.8 
L 679.484375 456.73125 
Q 679.484375 454.73125 677.484375 454.73125 
L 315.804688 454.73125 
Q 313.804688 454.73125 313.804688 456.73125 
L 313.804688 543.8 
Q 313.804688 545.8 315.804688 545.8 
z
" style="fill:#ffffff;opacity:0.8;stroke:#cccccc;stroke-linejoin:miter;"/>
    </g>
    <g id="text_13">
     <!-- What Dask resources have you used for support in the last six months? -->
     <defs>
      <path d="M 3.328125 72.90625 
L 13.28125 72.90625 
L 28.609375 11.28125 
L 43.890625 72.90625 
L 54.984375 72.90625 
L 70.3125 11.28125 
L 85.59375 72.90625 
L 95.609375 72.90625 
L 77.296875 0 
L 64.890625 0 
L 49.515625 63.28125 
L 33.984375 0 
L 21.578125 0 
z
" id="DejaVuSans-87"/>
      <path d="M 54.890625 33.015625 
L 54.890625 0 
L 45.90625 0 
L 45.90625 32.71875 
Q 45.90625 40.484375 42.875 44.328125 
Q 39.84375 48.1875 33.796875 48.1875 
Q 26.515625 48.1875 22.3125 43.546875 
Q 18.109375 38.921875 18.109375 30.90625 
L 18.109375 0 
L 9.078125 0 
L 9.078125 75.984375 
L 18.109375 75.984375 
L 18.109375 46.1875 
Q 21.34375 51.125 25.703125 53.5625 
Q 30.078125 56 35.796875 56 
Q 45.21875 56 50.046875 50.171875 
Q 54.890625 44.34375 54.890625 33.015625 
z
" id="DejaVuSans-104"/>
      <path d="M 18.109375 8.203125 
L 18.109375 -20.796875 
L 9.078125 -20.796875 
L 9.078125 54.6875 
L 18.109375 54.6875 
L 18.109375 46.390625 
Q 20.953125 51.265625 25.265625 53.625 
Q 29.59375 56 35.59375 56 
Q 45.5625 56 51.78125 48.09375 
Q 58.015625 40.1875 58.015625 27.296875 
Q 58.015625 14.40625 51.78125 6.484375 
Q 45.5625 -1.421875 35.59375 -1.421875 
Q 29.59375 -1.421875 25.265625 0.953125 
Q 20.953125 3.328125 18.109375 8.203125 
z
M 48.6875 27.296875 
Q 48.6875 37.203125 44.609375 42.84375 
Q 40.53125 48.484375 33.40625 48.484375 
Q 26.265625 48.484375 22.1875 42.84375 
Q 18.109375 37.203125 18.109375 27.296875 
Q 18.109375 17.390625 22.1875 11.75 
Q 26.265625 6.109375 33.40625 6.109375 
Q 40.53125 6.109375 44.609375 11.75 
Q 48.6875 17.390625 48.6875 27.296875 
z
" id="DejaVuSans-112"/>
      <path d="M 54.890625 54.6875 
L 35.109375 28.078125 
L 55.90625 0 
L 45.3125 0 
L 29.390625 21.484375 
L 13.484375 0 
L 2.875 0 
L 24.125 28.609375 
L 4.6875 54.6875 
L 15.28125 54.6875 
L 29.78125 35.203125 
L 44.28125 54.6875 
z
" id="DejaVuSans-120"/>
      <path d="M 52 44.1875 
Q 55.375 50.25 60.0625 53.125 
Q 64.75 56 71.09375 56 
Q 79.640625 56 84.28125 50.015625 
Q 88.921875 44.046875 88.921875 33.015625 
L 88.921875 0 
L 79.890625 0 
L 79.890625 32.71875 
Q 79.890625 40.578125 77.09375 44.375 
Q 74.3125 48.1875 68.609375 48.1875 
Q 61.625 48.1875 57.5625 43.546875 
Q 53.515625 38.921875 53.515625 30.90625 
L 53.515625 0 
L 44.484375 0 
L 44.484375 32.71875 
Q 44.484375 40.625 41.703125 44.40625 
Q 38.921875 48.1875 33.109375 48.1875 
Q 26.21875 48.1875 22.15625 43.53125 
Q 18.109375 38.875 18.109375 30.90625 
L 18.109375 0 
L 9.078125 0 
L 9.078125 54.6875 
L 18.109375 54.6875 
L 18.109375 46.1875 
Q 21.1875 51.21875 25.484375 53.609375 
Q 29.78125 56 35.6875 56 
Q 41.65625 56 45.828125 52.96875 
Q 50 49.953125 52 44.1875 
z
" id="DejaVuSans-109"/>
     </defs>
     <g transform="translate(317.804688 466.329688)scale(0.1 -0.1)">
      <use xlink:href="#DejaVuSans-87"/>
      <use x="98.876953" xlink:href="#DejaVuSans-104"/>
      <use x="162.255859" xlink:href="#DejaVuSans-97"/>
      <use x="223.535156" xlink:href="#DejaVuSans-116"/>
      <use x="262.744141" xlink:href="#DejaVuSans-32"/>
      <use x="294.53125" xlink:href="#DejaVuSans-68"/>
      <use x="371.533203" xlink:href="#DejaVuSans-97"/>
      <use x="432.8125" xlink:href="#DejaVuSans-115"/>
      <use x="484.912109" xlink:href="#DejaVuSans-107"/>
      <use x="542.822266" xlink:href="#DejaVuSans-32"/>
      <use x="574.609375" xlink:href="#DejaVuSans-114"/>
      <use x="615.691406" xlink:href="#DejaVuSans-101"/>
      <use x="677.214844" xlink:href="#DejaVuSans-115"/>
      <use x="729.314453" xlink:href="#DejaVuSans-111"/>
      <use x="790.496094" xlink:href="#DejaVuSans-117"/>
      <use x="853.875" xlink:href="#DejaVuSans-114"/>
      <use x="894.957031" xlink:href="#DejaVuSans-99"/>
      <use x="949.9375" xlink:href="#DejaVuSans-101"/>
      <use x="1011.460938" xlink:href="#DejaVuSans-115"/>
      <use x="1063.560547" xlink:href="#DejaVuSans-32"/>
      <use x="1095.347656" xlink:href="#DejaVuSans-104"/>
      <use x="1158.726562" xlink:href="#DejaVuSans-97"/>
      <use x="1220.005859" xlink:href="#DejaVuSans-118"/>
      <use x="1279.185547" xlink:href="#DejaVuSans-101"/>
      <use x="1340.708984" xlink:href="#DejaVuSans-32"/>
      <use x="1372.496094" xlink:href="#DejaVuSans-121"/>
      <use x="1431.675781" xlink:href="#DejaVuSans-111"/>
      <use x="1492.857422" xlink:href="#DejaVuSans-117"/>
      <use x="1556.236328" xlink:href="#DejaVuSans-32"/>
      <use x="1588.023438" xlink:href="#DejaVuSans-117"/>
      <use x="1651.402344" xlink:href="#DejaVuSans-115"/>
      <use x="1703.501953" xlink:href="#DejaVuSans-101"/>
      <use x="1765.025391" xlink:href="#DejaVuSans-100"/>
      <use x="1828.501953" xlink:href="#DejaVuSans-32"/>
      <use x="1860.289062" xlink:href="#DejaVuSans-102"/>
      <use x="1895.494141" xlink:href="#DejaVuSans-111"/>
      <use x="1956.675781" xlink:href="#DejaVuSans-114"/>
      <use x="1997.789062" xlink:href="#DejaVuSans-32"/>
      <use x="2029.576172" xlink:href="#DejaVuSans-115"/>
      <use x="2081.675781" xlink:href="#DejaVuSans-117"/>
      <use x="2145.054688" xlink:href="#DejaVuSans-112"/>
      <use x="2208.53125" xlink:href="#DejaVuSans-112"/>
      <use x="2272.007812" xlink:href="#DejaVuSans-111"/>
      <use x="2333.189453" xlink:href="#DejaVuSans-114"/>
      <use x="2374.302734" xlink:href="#DejaVuSans-116"/>
      <use x="2413.511719" xlink:href="#DejaVuSans-32"/>
      <use x="2445.298828" xlink:href="#DejaVuSans-105"/>
      <use x="2473.082031" xlink:href="#DejaVuSans-110"/>
      <use x="2536.460938" xlink:href="#DejaVuSans-32"/>
      <use x="2568.248047" xlink:href="#DejaVuSans-116"/>
      <use x="2607.457031" xlink:href="#DejaVuSans-104"/>
      <use x="2670.835938" xlink:href="#DejaVuSans-101"/>
      <use x="2732.359375" xlink:href="#DejaVuSans-32"/>
      <use x="2764.146484" xlink:href="#DejaVuSans-108"/>
      <use x="2791.929688" xlink:href="#DejaVuSans-97"/>
      <use x="2853.208984" xlink:href="#DejaVuSans-115"/>
      <use x="2905.308594" xlink:href="#DejaVuSans-116"/>
      <use x="2944.517578" xlink:href="#DejaVuSans-32"/>
      <use x="2976.304688" xlink:href="#DejaVuSans-115"/>
      <use x="3028.404297" xlink:href="#DejaVuSans-105"/>
      <use x="3056.1875" xlink:href="#DejaVuSans-120"/>
      <use x="3115.367188" xlink:href="#DejaVuSans-32"/>
      <use x="3147.154297" xlink:href="#DejaVuSans-109"/>
      <use x="3244.566406" xlink:href="#DejaVuSans-111"/>
      <use x="3305.748047" xlink:href="#DejaVuSans-110"/>
      <use x="3369.126953" xlink:href="#DejaVuSans-116"/>
      <use x="3408.335938" xlink:href="#DejaVuSans-104"/>
      <use x="3471.714844" xlink:href="#DejaVuSans-115"/>
      <use x="3523.814453" xlink:href="#DejaVuSans-63"/>
     </g>
    </g>
    <g id="patch_21">
     <path d="M 402.725781 481.007813 
L 422.725781 481.007813 
L 422.725781 474.007813 
L 402.725781 474.007813 
z
" style="fill:#3274a1;"/>
    </g>
    <g id="text_14">
     <!-- Documentation -->
     <g transform="translate(430.725781 481.007813)scale(0.1 -0.1)">
      <use xlink:href="#DejaVuSans-68"/>
      <use x="77.001953" xlink:href="#DejaVuSans-111"/>
      <use x="138.183594" xlink:href="#DejaVuSans-99"/>
      <use x="193.164062" xlink:href="#DejaVuSans-117"/>
      <use x="256.542969" xlink:href="#DejaVuSans-109"/>
      <use x="353.955078" xlink:href="#DejaVuSans-101"/>
      <use x="415.478516" xlink:href="#DejaVuSans-110"/>
      <use x="478.857422" xlink:href="#DejaVuSans-116"/>
      <use x="518.066406" xlink:href="#DejaVuSans-97"/>
      <use x="579.345703" xlink:href="#DejaVuSans-116"/>
      <use x="618.554688" xlink:href="#DejaVuSans-105"/>
      <use x="646.337891" xlink:href="#DejaVuSans-111"/>
      <use x="707.519531" xlink:href="#DejaVuSans-110"/>
     </g>
    </g>
    <g id="patch_22">
     <path d="M 402.725781 495.685938 
L 422.725781 495.685938 
L 422.725781 488.685938 
L 402.725781 488.685938 
z
" style="fill:#e1812c;"/>
    </g>
    <g id="text_15">
     <!-- Tutorial -->
     <defs>
      <path d="M -0.296875 72.90625 
L 61.375 72.90625 
L 61.375 64.59375 
L 35.5 64.59375 
L 35.5 0 
L 25.59375 0 
L 25.59375 64.59375 
L -0.296875 64.59375 
z
" id="DejaVuSans-84"/>
     </defs>
     <g transform="translate(430.725781 495.685938)scale(0.1 -0.1)">
      <use xlink:href="#DejaVuSans-84"/>
      <use x="60.849609" xlink:href="#DejaVuSans-117"/>
      <use x="124.228516" xlink:href="#DejaVuSans-116"/>
      <use x="163.4375" xlink:href="#DejaVuSans-111"/>
      <use x="224.619141" xlink:href="#DejaVuSans-114"/>
      <use x="265.732422" xlink:href="#DejaVuSans-105"/>
      <use x="293.515625" xlink:href="#DejaVuSans-97"/>
      <use x="354.794922" xlink:href="#DejaVuSans-108"/>
     </g>
    </g>
    <g id="patch_23">
     <path d="M 402.725781 510.364063 
L 422.725781 510.364063 
L 422.725781 503.364063 
L 402.725781 503.364063 
z
" style="fill:#3a923a;"/>
    </g>
    <g id="text_16">
     <!-- Examples at examples.dask.org -->
     <defs>
      <path d="M 10.6875 12.40625 
L 21 12.40625 
L 21 0 
L 10.6875 0 
z
" id="DejaVuSans-46"/>
     </defs>
     <g transform="translate(430.725781 510.364063)scale(0.1 -0.1)">
      <use xlink:href="#DejaVuSans-69"/>
      <use x="63.183594" xlink:href="#DejaVuSans-120"/>
      <use x="122.363281" xlink:href="#DejaVuSans-97"/>
      <use x="183.642578" xlink:href="#DejaVuSans-109"/>
      <use x="281.054688" xlink:href="#DejaVuSans-112"/>
      <use x="344.53125" xlink:href="#DejaVuSans-108"/>
      <use x="372.314453" xlink:href="#DejaVuSans-101"/>
      <use x="433.837891" xlink:href="#DejaVuSans-115"/>
      <use x="485.9375" xlink:href="#DejaVuSans-32"/>
      <use x="517.724609" xlink:href="#DejaVuSans-97"/>
      <use x="579.003906" xlink:href="#DejaVuSans-116"/>
      <use x="618.212891" xlink:href="#DejaVuSans-32"/>
      <use x="650" xlink:href="#DejaVuSans-101"/>
      <use x="711.507812" xlink:href="#DejaVuSans-120"/>
      <use x="770.6875" xlink:href="#DejaVuSans-97"/>
      <use x="831.966797" xlink:href="#DejaVuSans-109"/>
      <use x="929.378906" xlink:href="#DejaVuSans-112"/>
      <use x="992.855469" xlink:href="#DejaVuSans-108"/>
      <use x="1020.638672" xlink:href="#DejaVuSans-101"/>
      <use x="1082.162109" xlink:href="#DejaVuSans-115"/>
      <use x="1134.261719" xlink:href="#DejaVuSans-46"/>
      <use x="1166.048828" xlink:href="#DejaVuSans-100"/>
      <use x="1229.525391" xlink:href="#DejaVuSans-97"/>
      <use x="1290.804688" xlink:href="#DejaVuSans-115"/>
      <use x="1342.904297" xlink:href="#DejaVuSans-107"/>
      <use x="1400.814453" xlink:href="#DejaVuSans-46"/>
      <use x="1432.601562" xlink:href="#DejaVuSans-111"/>
      <use x="1493.783203" xlink:href="#DejaVuSans-114"/>
      <use x="1534.880859" xlink:href="#DejaVuSans-103"/>
     </g>
    </g>
    <g id="patch_24">
     <path d="M 402.725781 525.042188 
L 422.725781 525.042188 
L 422.725781 518.042188 
L 402.725781 518.042188 
z
" style="fill:#c03d3e;"/>
    </g>
    <g id="text_17">
     <!-- Stack Overflow #Dask tag -->
     <defs>
      <path d="M 53.515625 70.515625 
L 53.515625 60.890625 
Q 47.90625 63.578125 42.921875 64.890625 
Q 37.9375 66.21875 33.296875 66.21875 
Q 25.25 66.21875 20.875 63.09375 
Q 16.5 59.96875 16.5 54.203125 
Q 16.5 49.359375 19.40625 46.890625 
Q 22.3125 44.4375 30.421875 42.921875 
L 36.375 41.703125 
Q 47.40625 39.59375 52.65625 34.296875 
Q 57.90625 29 57.90625 20.125 
Q 57.90625 9.515625 50.796875 4.046875 
Q 43.703125 -1.421875 29.984375 -1.421875 
Q 24.8125 -1.421875 18.96875 -0.25 
Q 13.140625 0.921875 6.890625 3.21875 
L 6.890625 13.375 
Q 12.890625 10.015625 18.65625 8.296875 
Q 24.421875 6.59375 29.984375 6.59375 
Q 38.421875 6.59375 43.015625 9.90625 
Q 47.609375 13.234375 47.609375 19.390625 
Q 47.609375 24.75 44.3125 27.78125 
Q 41.015625 30.8125 33.5 32.328125 
L 27.484375 33.5 
Q 16.453125 35.6875 11.515625 40.375 
Q 6.59375 45.0625 6.59375 53.421875 
Q 6.59375 63.09375 13.40625 68.65625 
Q 20.21875 74.21875 32.171875 74.21875 
Q 37.3125 74.21875 42.625 73.28125 
Q 47.953125 72.359375 53.515625 70.515625 
z
" id="DejaVuSans-83"/>
      <path d="M 51.125 44 
L 36.921875 44 
L 32.8125 27.6875 
L 47.125 27.6875 
z
M 43.796875 71.78125 
L 38.71875 51.515625 
L 52.984375 51.515625 
L 58.109375 71.78125 
L 65.921875 71.78125 
L 60.890625 51.515625 
L 76.125 51.515625 
L 76.125 44 
L 58.984375 44 
L 54.984375 27.6875 
L 70.515625 27.6875 
L 70.515625 20.21875 
L 53.078125 20.21875 
L 48 0 
L 40.1875 0 
L 45.21875 20.21875 
L 30.90625 20.21875 
L 25.875 0 
L 18.015625 0 
L 23.09375 20.21875 
L 7.71875 20.21875 
L 7.71875 27.6875 
L 24.90625 27.6875 
L 29 44 
L 13.28125 44 
L 13.28125 51.515625 
L 30.90625 51.515625 
L 35.890625 71.78125 
z
" id="DejaVuSans-35"/>
     </defs>
     <g transform="translate(430.725781 525.042188)scale(0.1 -0.1)">
      <use xlink:href="#DejaVuSans-83"/>
      <use x="63.476562" xlink:href="#DejaVuSans-116"/>
      <use x="102.685547" xlink:href="#DejaVuSans-97"/>
      <use x="163.964844" xlink:href="#DejaVuSans-99"/>
      <use x="218.945312" xlink:href="#DejaVuSans-107"/>
      <use x="276.855469" xlink:href="#DejaVuSans-32"/>
      <use x="308.642578" xlink:href="#DejaVuSans-79"/>
      <use x="387.353516" xlink:href="#DejaVuSans-118"/>
      <use x="446.533203" xlink:href="#DejaVuSans-101"/>
      <use x="508.056641" xlink:href="#DejaVuSans-114"/>
      <use x="549.169922" xlink:href="#DejaVuSans-102"/>
      <use x="584.375" xlink:href="#DejaVuSans-108"/>
      <use x="612.158203" xlink:href="#DejaVuSans-111"/>
      <use x="673.339844" xlink:href="#DejaVuSans-119"/>
      <use x="755.126953" xlink:href="#DejaVuSans-32"/>
      <use x="786.914062" xlink:href="#DejaVuSans-35"/>
      <use x="870.703125" xlink:href="#DejaVuSans-68"/>
      <use x="947.705078" xlink:href="#DejaVuSans-97"/>
      <use x="1008.984375" xlink:href="#DejaVuSans-115"/>
      <use x="1061.083984" xlink:href="#DejaVuSans-107"/>
      <use x="1118.994141" xlink:href="#DejaVuSans-32"/>
      <use x="1150.78125" xlink:href="#DejaVuSans-116"/>
      <use x="1189.990234" xlink:href="#DejaVuSans-97"/>
      <use x="1251.269531" xlink:href="#DejaVuSans-103"/>
     </g>
    </g>
    <g id="patch_25">
     <path d="M 402.725781 539.720313 
L 422.725781 539.720313 
L 422.725781 532.720313 
L 402.725781 532.720313 
z
" style="fill:#9372b2;"/>
    </g>
    <g id="text_18">
     <!-- GitHub -->
     <defs>
      <path d="M 59.515625 10.40625 
L 59.515625 29.984375 
L 43.40625 29.984375 
L 43.40625 38.09375 
L 69.28125 38.09375 
L 69.28125 6.78125 
Q 63.578125 2.734375 56.6875 0.65625 
Q 49.8125 -1.421875 42 -1.421875 
Q 24.90625 -1.421875 15.25 8.5625 
Q 5.609375 18.5625 5.609375 36.375 
Q 5.609375 54.25 15.25 64.234375 
Q 24.90625 74.21875 42 74.21875 
Q 49.125 74.21875 55.546875 72.453125 
Q 61.96875 70.703125 67.390625 67.28125 
L 67.390625 56.78125 
Q 61.921875 61.421875 55.765625 63.765625 
Q 49.609375 66.109375 42.828125 66.109375 
Q 29.4375 66.109375 22.71875 58.640625 
Q 16.015625 51.171875 16.015625 36.375 
Q 16.015625 21.625 22.71875 14.15625 
Q 29.4375 6.6875 42.828125 6.6875 
Q 48.046875 6.6875 52.140625 7.59375 
Q 56.25 8.5 59.515625 10.40625 
z
" id="DejaVuSans-71"/>
      <path d="M 48.6875 27.296875 
Q 48.6875 37.203125 44.609375 42.84375 
Q 40.53125 48.484375 33.40625 48.484375 
Q 26.265625 48.484375 22.1875 42.84375 
Q 18.109375 37.203125 18.109375 27.296875 
Q 18.109375 17.390625 22.1875 11.75 
Q 26.265625 6.109375 33.40625 6.109375 
Q 40.53125 6.109375 44.609375 11.75 
Q 48.6875 17.390625 48.6875 27.296875 
z
M 18.109375 46.390625 
Q 20.953125 51.265625 25.265625 53.625 
Q 29.59375 56 35.59375 56 
Q 45.5625 56 51.78125 48.09375 
Q 58.015625 40.1875 58.015625 27.296875 
Q 58.015625 14.40625 51.78125 6.484375 
Q 45.5625 -1.421875 35.59375 -1.421875 
Q 29.59375 -1.421875 25.265625 0.953125 
Q 20.953125 3.328125 18.109375 8.203125 
L 18.109375 0 
L 9.078125 0 
L 9.078125 75.984375 
L 18.109375 75.984375 
z
" id="DejaVuSans-98"/>
     </defs>
     <g transform="translate(430.725781 539.720313)scale(0.1 -0.1)">
      <use xlink:href="#DejaVuSans-71"/>
      <use x="77.490234" xlink:href="#DejaVuSans-105"/>
      <use x="105.273438" xlink:href="#DejaVuSans-116"/>
      <use x="144.482422" xlink:href="#DejaVuSans-72"/>
      <use x="219.677734" xlink:href="#DejaVuSans-117"/>
      <use x="283.056641" xlink:href="#DejaVuSans-98"/>
     </g>
    </g>
   </g>
  </g>
 </g>
 <defs>
  <clipPath id="p26b6806190">
   <rect height="543.6" width="558" x="126.484375" y="7.2"/>
  </clipPath>
 </defs>
</svg>
