<?xml version="1.0" encoding="UTF-8" standalone="no"?>
<!DOCTYPE svg PUBLIC "-//W3C//DTD SVG 1.1//EN"
 "http://www.w3.org/Graphics/SVG/1.1/DTD/svg11.dtd">
<!-- Generated by graphviz version 2.26.3 (20100126.1600)
 -->
<!-- Title: _anonymous_0 Pages: 1 -->
<svg width="172pt" height="194pt"
 viewBox="0.00 0.00 172.00 194.00" xmlns="http://www.w3.org/2000/svg" xmlns:xlink="http://www.w3.org/1999/xlink">
<g id="graph1" class="graph" transform="scale(1 1) rotate(0) translate(4 190)">
<title>_anonymous_0</title>
<polygon fill="white" stroke="white" points="-4,5 -4,-190 169,-190 169,5 -4,5"/>
<!-- Add -->
<g id="node1" class="node"><title>Add</title>
<ellipse fill="none" stroke="black" cx="64" cy="-167" rx="29.9071" ry="18.3848"/>
<text text-anchor="middle" x="64" y="-163.4" font-family="Times Roman,serif" font-size="14.00">Add</text>
</g>
<!-- x -->
<g id="node3" class="node"><title>x</title>
<ellipse fill="none" stroke="black" cx="27" cy="-93" rx="27" ry="18.3848"/>
<text text-anchor="middle" x="27" y="-89.4" font-family="Times Roman,serif" font-size="14.00">x</text>
</g>
<!-- Add&#45;&gt;x -->
<g id="edge2" class="edge"><title>Add&#45;&gt;x</title>
<path fill="none" stroke="black" d="M55.0433,-149.087C50.6349,-140.27 45.2308,-129.462 40.3473,-119.695"/>
<polygon fill="black" stroke="black" points="43.4769,-118.127 35.8742,-110.748 37.2159,-121.258 43.4769,-118.127"/>
</g>
<!-- Mul -->
<g id="node5" class="node"><title>Mul</title>
<ellipse fill="none" stroke="black" cx="101" cy="-93" rx="28.9914" ry="18.3848"/>
<text text-anchor="middle" x="101" y="-89.4" font-family="Times Roman,serif" font-size="14.00">Mul</text>
</g>
<!-- Add&#45;&gt;Mul -->
<g id="edge4" class="edge"><title>Add&#45;&gt;Mul</title>
<path fill="none" stroke="black" d="M72.9567,-149.087C77.3651,-140.27 82.7692,-129.462 87.6527,-119.695"/>
<polygon fill="black" stroke="black" points="90.7841,-121.258 92.1258,-110.748 84.5231,-118.127 90.7841,-121.258"/>
</g>
<!-- y -->
<g id="node7" class="node"><title>y</title>
<ellipse fill="none" stroke="black" cx="65" cy="-19" rx="27" ry="18.3848"/>
<text text-anchor="middle" x="65" y="-15.4" font-family="Times Roman,serif" font-size="14.00">y</text>
</g>
<!-- Mul&#45;&gt;y -->
<g id="edge6" class="edge"><title>Mul&#45;&gt;y</title>
<path fill="none" stroke="black" d="M92.2854,-75.0867C88.0403,-66.3607 82.8464,-55.6843 78.1337,-45.9971"/>
<polygon fill="black" stroke="black" points="81.1564,-44.2096 73.6343,-36.7484 74.8617,-47.2719 81.1564,-44.2096"/>
</g>
<!-- z -->
<g id="node9" class="node"><title>z</title>
<ellipse fill="none" stroke="black" cx="137" cy="-19" rx="27" ry="18.3848"/>
<text text-anchor="middle" x="137" y="-15.4" font-family="Times Roman,serif" font-size="14.00">z</text>
</g>
<!-- Mul&#45;&gt;z -->
<g id="edge8" class="edge"><title>Mul&#45;&gt;z</title>
<path fill="none" stroke="black" d="M109.715,-75.0867C113.96,-66.3607 119.154,-55.6843 123.866,-45.9971"/>
<polygon fill="black" stroke="black" points="127.138,-47.2719 128.366,-36.7484 120.844,-44.2096 127.138,-47.2719"/>
</g>
</g>
</svg>
