<?xml version="1.0" encoding="UTF-8" standalone="no"?>
<!-- Created with Inkscape (http://www.inkscape.org/) -->

<svg
   xmlns:dc="http://purl.org/dc/elements/1.1/"
   xmlns:cc="http://creativecommons.org/ns#"
   xmlns:rdf="http://www.w3.org/1999/02/22-rdf-syntax-ns#"
   xmlns:svg="http://www.w3.org/2000/svg"
   xmlns="http://www.w3.org/2000/svg"
   xmlns:sodipodi="http://sodipodi.sourceforge.net/DTD/sodipodi-0.dtd"
   xmlns:inkscape="http://www.inkscape.org/namespaces/inkscape"
   width="578.02002"
   height="448.38925"
   id="svg2"
   version="1.1"
   inkscape:version="0.48.3.1 r9886"
   sodipodi:docname="care6.svg">
  <defs
     id="defs4" />
  <sodipodi:namedview
     id="base"
     pagecolor="#ffffff"
     bordercolor="#666666"
     borderopacity="1.0"
     inkscape:pageopacity="0.0"
     inkscape:pageshadow="2"
     inkscape:zoom="0.9899495"
     inkscape:cx="322.8677"
     inkscape:cy="102.6883"
     inkscape:document-units="px"
     inkscape:current-layer="layer1"
     showgrid="false"
     inkscape:window-width="1600"
     inkscape:window-height="876"
     inkscape:window-x="0"
     inkscape:window-y="24"
     inkscape:window-maximized="1"
     fit-margin-top="0"
     fit-margin-left="0"
     fit-margin-right="0"
     fit-margin-bottom="0">
    <inkscape:grid
       type="xygrid"
       id="grid3838"
       empspacing="5"
       visible="true"
       enabled="true"
       snapvisiblegridlinesonly="true" />
  </sodipodi:namedview>
  <metadata
     id="metadata7">
    <rdf:RDF>
      <cc:Work
         rdf:about="">
        <dc:format>image/svg+xml</dc:format>
        <dc:type
           rdf:resource="http://purl.org/dc/dcmitype/StillImage" />
        <dc:title />
      </cc:Work>
    </rdf:RDF>
  </metadata>
  <g
     inkscape:label="Layer 1"
     inkscape:groupmode="layer"
     id="layer1"
     transform="translate(-104.90372,-218.33008)">
    <path
       transform="translate(-25.09628,238.33008)"
       sodipodi:type="arc"
       style="opacity:0.6;fill:none;stroke:#000000;stroke-width:2;stroke-miterlimit:4;stroke-opacity:1;stroke-dasharray:none;stroke-dashoffset:0"
       id="path4440-8"
       sodipodi:cx="190"
       sodipodi:cy="33.389252"
       sodipodi:rx="10"
       sodipodi:ry="5"
       d="m 200,33.389252 c 0,2.761423 -4.47715,5 -10,5 -5.52285,0 -10,-2.238577 -10,-5 0,-2.761424 4.47715,-5 10,-5 5.52285,0 10,2.238576 10,5 z" />
    <path
       transform="translate(-15.09628,208.33008)"
       sodipodi:type="arc"
       style="opacity:0.6;fill:none;stroke:#000000;stroke-width:2;stroke-miterlimit:4;stroke-opacity:1;stroke-dasharray:none;stroke-dashoffset:0"
       id="path4442-1"
       sodipodi:cx="210"
       sodipodi:cy="23.389252"
       sodipodi:rx="10"
       sodipodi:ry="5"
       d="m 220,23.389252 c 0,2.761423 -4.47715,5 -10,5 -5.52285,0 -10,-2.238577 -10,-5 0,-2.761424 4.47715,-5 10,-5 5.52285,0 10,2.238576 10,5 z" />
    <path
       transform="translate(4.90372,253.33008)"
       sodipodi:type="arc"
       style="opacity:0.6;fill:none;stroke:#000000;stroke-width:2;stroke-miterlimit:4;stroke-opacity:1;stroke-dasharray:none;stroke-dashoffset:0"
       id="path4444-9"
       sodipodi:cx="210"
       sodipodi:cy="43.389252"
       sodipodi:rx="10"
       sodipodi:ry="5"
       d="m 220,43.389252 c 0,2.761423 -4.47715,5 -10,5 -5.52285,0 -10,-2.238577 -10,-5 0,-2.761424 4.47715,-5 10,-5 5.52285,0 10,2.238576 10,5 z" />
    <path
       transform="translate(199.18943,200.47294)"
       sodipodi:type="arc"
       style="opacity:0.6;fill:none;stroke:#000000;stroke-width:2;stroke-miterlimit:4;stroke-opacity:1;stroke-dasharray:none;stroke-dashoffset:0"
       id="path4444-9-7"
       sodipodi:cx="210"
       sodipodi:cy="43.389252"
       sodipodi:rx="10"
       sodipodi:ry="5"
       d="m 220,43.389252 a 10,5 0 1 1 -20,0 10,5 0 1 1 20,0 z" />
    <path
       transform="translate(113.47515,241.90151)"
       sodipodi:type="arc"
       style="opacity:0.6;fill:none;stroke:#000000;stroke-width:2;stroke-miterlimit:4;stroke-opacity:1;stroke-dasharray:none;stroke-dashoffset:0"
       id="path4444-9-2"
       sodipodi:cx="210"
       sodipodi:cy="43.389252"
       sodipodi:rx="10"
       sodipodi:ry="5"
       d="m 220,43.389252 a 10,5 0 1 1 -20,0 10,5 0 1 1 20,0 z" />
    <path
       transform="translate(187.04658,245.47294)"
       sodipodi:type="arc"
       style="opacity:0.6;fill:none;stroke:#000000;stroke-width:2;stroke-miterlimit:4;stroke-opacity:1;stroke-dasharray:none;stroke-dashoffset:0"
       id="path4444-9-75"
       sodipodi:cx="210"
       sodipodi:cy="43.389252"
       sodipodi:rx="10"
       sodipodi:ry="5"
       d="m 220,43.389252 a 10,5 0 1 1 -20,0 10,5 0 1 1 20,0 z" />
    <path
       transform="translate(274.18943,213.33008)"
       sodipodi:type="arc"
       style="opacity:0.6;fill:none;stroke:#000000;stroke-width:2;stroke-miterlimit:4;stroke-opacity:1;stroke-dasharray:none;stroke-dashoffset:0"
       id="path4444-9-9"
       sodipodi:cx="210"
       sodipodi:cy="43.389252"
       sodipodi:rx="10"
       sodipodi:ry="5"
       d="m 220,43.389252 a 10,5 0 1 1 -20,0 10,5 0 1 1 20,0 z" />
    <path
       transform="translate(322.04658,246.90151)"
       sodipodi:type="arc"
       style="opacity:0.6;fill:none;stroke:#000000;stroke-width:2;stroke-miterlimit:4;stroke-opacity:1;stroke-dasharray:none;stroke-dashoffset:0"
       id="path4444-9-8"
       sodipodi:cx="210"
       sodipodi:cy="43.389252"
       sodipodi:rx="10"
       sodipodi:ry="5"
       d="m 220,43.389252 a 10,5 0 1 1 -20,0 10,5 0 1 1 20,0 z" />
    <path
       transform="translate(388.47515,235.47294)"
       sodipodi:type="arc"
       style="opacity:0.6;fill:none;stroke:#000000;stroke-width:2;stroke-miterlimit:4;stroke-opacity:1;stroke-dasharray:none;stroke-dashoffset:0"
       id="path4444-9-1"
       sodipodi:cx="210"
       sodipodi:cy="43.389252"
       sodipodi:rx="10"
       sodipodi:ry="5"
       d="m 220,43.389252 a 10,5 0 1 1 -20,0 10,5 0 1 1 20,0 z" />
    <path
       transform="translate(334.90372,279.75865)"
       sodipodi:type="arc"
       style="opacity:0.6;fill:none;stroke:#000000;stroke-width:2;stroke-miterlimit:4;stroke-opacity:1;stroke-dasharray:none;stroke-dashoffset:0"
       id="path4444-9-91"
       sodipodi:cx="210"
       sodipodi:cy="43.389252"
       sodipodi:rx="10"
       sodipodi:ry="5"
       d="m 220,43.389252 a 10,5 0 1 1 -20,0 10,5 0 1 1 20,0 z" />
    <path
       transform="translate(279.90372,286.18722)"
       sodipodi:type="arc"
       style="opacity:0.6;fill:none;stroke:#000000;stroke-width:2;stroke-miterlimit:4;stroke-opacity:1;stroke-dasharray:none;stroke-dashoffset:0"
       id="path4444-9-94"
       sodipodi:cx="210"
       sodipodi:cy="43.389252"
       sodipodi:rx="10"
       sodipodi:ry="5"
       d="m 220,43.389252 a 10,5 0 1 1 -20,0 10,5 0 1 1 20,0 z" />
    <path
       transform="translate(159.18943,301.18722)"
       sodipodi:type="arc"
       style="opacity:0.6;fill:none;stroke:#000000;stroke-width:2;stroke-miterlimit:4;stroke-opacity:1;stroke-dasharray:none;stroke-dashoffset:0"
       id="path4444-9-3"
       sodipodi:cx="210"
       sodipodi:cy="43.389252"
       sodipodi:rx="10"
       sodipodi:ry="5"
       d="m 220,43.389252 a 10,5 0 1 1 -20,0 10,5 0 1 1 20,0 z" />
    <path
       transform="translate(58.475148,317.61579)"
       sodipodi:type="arc"
       style="opacity:0.6;fill:none;stroke:#000000;stroke-width:2;stroke-miterlimit:4;stroke-opacity:1;stroke-dasharray:none;stroke-dashoffset:0"
       id="path4444-9-80"
       sodipodi:cx="210"
       sodipodi:cy="43.389252"
       sodipodi:rx="10"
       sodipodi:ry="5"
       d="m 220,43.389252 a 10,5 0 1 1 -20,0 10,5 0 1 1 20,0 z" />
    <path
       transform="translate(58.475148,291.18722)"
       sodipodi:type="arc"
       style="opacity:0.6;fill:none;stroke:#000000;stroke-width:2;stroke-miterlimit:4;stroke-opacity:1;stroke-dasharray:none;stroke-dashoffset:0"
       id="path4444-9-0"
       sodipodi:cx="210"
       sodipodi:cy="43.389252"
       sodipodi:rx="10"
       sodipodi:ry="5"
       d="m 220,43.389252 a 10,5 0 1 1 -20,0 10,5 0 1 1 20,0 z" />
    <path
       transform="translate(53.475148,231.18722)"
       sodipodi:type="arc"
       style="opacity:0.6;fill:none;stroke:#000000;stroke-width:2;stroke-miterlimit:4;stroke-opacity:1;stroke-dasharray:none;stroke-dashoffset:0"
       id="path4444-9-05"
       sodipodi:cx="210"
       sodipodi:cy="43.389252"
       sodipodi:rx="10"
       sodipodi:ry="5"
       d="m 220,43.389252 a 10,5 0 1 1 -20,0 10,5 0 1 1 20,0 z" />
    <path
       transform="translate(111.33229,206.18722)"
       sodipodi:type="arc"
       style="opacity:0.6;fill:none;stroke:#000000;stroke-width:2;stroke-miterlimit:4;stroke-opacity:1;stroke-dasharray:none;stroke-dashoffset:0"
       id="path4444-9-76"
       sodipodi:cx="210"
       sodipodi:cy="43.389252"
       sodipodi:rx="10"
       sodipodi:ry="5"
       d="m 220,43.389252 a 10,5 0 1 1 -20,0 10,5 0 1 1 20,0 z" />
    <path
       transform="translate(2.7608628,289.04437)"
       sodipodi:type="arc"
       style="opacity:0.6;fill:none;stroke:#000000;stroke-width:2;stroke-miterlimit:4;stroke-opacity:1;stroke-dasharray:none;stroke-dashoffset:0"
       id="path4444-9-78"
       sodipodi:cx="210"
       sodipodi:cy="43.389252"
       sodipodi:rx="10"
       sodipodi:ry="5"
       d="m 220,43.389252 a 10,5 0 1 1 -20,0 10,5 0 1 1 20,0 z" />
    <path
       transform="translate(-70.810566,315.47294)"
       sodipodi:type="arc"
       style="opacity:0.6;fill:none;stroke:#000000;stroke-width:2;stroke-miterlimit:4;stroke-opacity:1;stroke-dasharray:none;stroke-dashoffset:0"
       id="path4444-9-4"
       sodipodi:cx="210"
       sodipodi:cy="43.389252"
       sodipodi:rx="10"
       sodipodi:ry="5"
       d="m 220,43.389252 a 10,5 0 1 1 -20,0 10,5 0 1 1 20,0 z" />
    <path
       transform="translate(-50.09628,339.75865)"
       sodipodi:type="arc"
       style="opacity:0.6;fill:none;stroke:#000000;stroke-width:2;stroke-miterlimit:4;stroke-opacity:1;stroke-dasharray:none;stroke-dashoffset:0"
       id="path4444-9-03"
       sodipodi:cx="210"
       sodipodi:cy="43.389252"
       sodipodi:rx="10"
       sodipodi:ry="5"
       d="m 220,43.389252 a 10,5 0 1 1 -20,0 10,5 0 1 1 20,0 z" />
    <path
       transform="translate(124.18943,316.18722)"
       sodipodi:type="arc"
       style="opacity:0.6;fill:none;stroke:#000000;stroke-width:2;stroke-miterlimit:4;stroke-opacity:1;stroke-dasharray:none;stroke-dashoffset:0"
       id="path4444-9-805"
       sodipodi:cx="210"
       sodipodi:cy="43.389252"
       sodipodi:rx="10"
       sodipodi:ry="5"
       d="m 220,43.389252 a 10,5 0 1 1 -20,0 10,5 0 1 1 20,0 z" />
    <path
       transform="translate(221.33229,319.75865)"
       sodipodi:type="arc"
       style="opacity:0.6;fill:none;stroke:#000000;stroke-width:2;stroke-miterlimit:4;stroke-opacity:1;stroke-dasharray:none;stroke-dashoffset:0"
       id="path4444-9-08"
       sodipodi:cx="210"
       sodipodi:cy="43.389252"
       sodipodi:rx="10"
       sodipodi:ry="5"
       d="m 220,43.389252 a 10,5 0 1 1 -20,0 10,5 0 1 1 20,0 z" />
    <path
       transform="translate(344.18943,333.33008)"
       sodipodi:type="arc"
       style="opacity:0.6;fill:none;stroke:#000000;stroke-width:2;stroke-miterlimit:4;stroke-opacity:1;stroke-dasharray:none;stroke-dashoffset:0"
       id="path4444-9-14"
       sodipodi:cx="210"
       sodipodi:cy="43.389252"
       sodipodi:rx="10"
       sodipodi:ry="5"
       d="m 220,43.389252 a 10,5 0 1 1 -20,0 10,5 0 1 1 20,0 z" />
    <path
       transform="translate(288.47515,324.04437)"
       sodipodi:type="arc"
       style="opacity:0.6;fill:none;stroke:#000000;stroke-width:2;stroke-miterlimit:4;stroke-opacity:1;stroke-dasharray:none;stroke-dashoffset:0"
       id="path4444-9-5"
       sodipodi:cx="210"
       sodipodi:cy="43.389252"
       sodipodi:rx="10"
       sodipodi:ry="5"
       d="m 220,43.389252 a 10,5 0 1 1 -20,0 10,5 0 1 1 20,0 z" />
    <path
       transform="translate(408.47515,280.47294)"
       sodipodi:type="arc"
       style="opacity:0.6;fill:none;stroke:#000000;stroke-width:2;stroke-miterlimit:4;stroke-opacity:1;stroke-dasharray:none;stroke-dashoffset:0"
       id="path4444-9-052"
       sodipodi:cx="210"
       sodipodi:cy="43.389252"
       sodipodi:rx="10"
       sodipodi:ry="5"
       d="m 220,43.389252 a 10,5 0 1 1 -20,0 10,5 0 1 1 20,0 z" />
    <path
       transform="translate(426.33229,314.04437)"
       sodipodi:type="arc"
       style="opacity:0.6;fill:none;stroke:#000000;stroke-width:2;stroke-miterlimit:4;stroke-opacity:1;stroke-dasharray:none;stroke-dashoffset:0"
       id="path4444-9-32"
       sodipodi:cx="210"
       sodipodi:cy="43.389252"
       sodipodi:rx="10"
       sodipodi:ry="5"
       d="m 220,43.389252 a 10,5 0 1 1 -20,0 10,5 0 1 1 20,0 z" />
    <path
       transform="translate(374.18943,307.61579)"
       sodipodi:type="arc"
       style="opacity:0.6;fill:none;stroke:#000000;stroke-width:2;stroke-miterlimit:4;stroke-opacity:1;stroke-dasharray:none;stroke-dashoffset:0"
       id="path4444-9-59"
       sodipodi:cx="210"
       sodipodi:cy="43.389252"
       sodipodi:rx="10"
       sodipodi:ry="5"
       d="m 220,43.389252 a 10,5 0 1 1 -20,0 10,5 0 1 1 20,0 z" />
    <path
       transform="translate(405.61801,365.47294)"
       sodipodi:type="arc"
       style="opacity:0.6;fill:none;stroke:#000000;stroke-width:2;stroke-miterlimit:4;stroke-opacity:1;stroke-dasharray:none;stroke-dashoffset:0"
       id="path4444-9-6"
       sodipodi:cx="210"
       sodipodi:cy="43.389252"
       sodipodi:rx="10"
       sodipodi:ry="5"
       d="m 220,43.389252 a 10,5 0 1 1 -20,0 10,5 0 1 1 20,0 z" />
    <path
       transform="translate(212.76086,268.33008)"
       sodipodi:type="arc"
       style="opacity:0.6;fill:none;stroke:#000000;stroke-width:2;stroke-miterlimit:4;stroke-opacity:1;stroke-dasharray:none;stroke-dashoffset:0"
       id="path4444-9-69"
       sodipodi:cx="210"
       sodipodi:cy="43.389252"
       sodipodi:rx="10"
       sodipodi:ry="5"
       d="m 220,43.389252 a 10,5 0 1 1 -20,0 10,5 0 1 1 20,0 z" />
    <path
       transform="translate(265.61801,252.61579)"
       sodipodi:type="arc"
       style="opacity:0.6;fill:none;stroke:#000000;stroke-width:2;stroke-miterlimit:4;stroke-opacity:1;stroke-dasharray:none;stroke-dashoffset:0"
       id="path4444-9-29"
       sodipodi:cx="210"
       sodipodi:cy="43.389252"
       sodipodi:rx="10"
       sodipodi:ry="5"
       d="m 220,43.389252 a 10,5 0 1 1 -20,0 10,5 0 1 1 20,0 z" />
    <path
       style="fill:none;stroke:#000000;stroke-width:1px;stroke-linecap:butt;stroke-linejoin:miter;stroke-opacity:1"
       d="m 39.901025,144.33334 c 11.111678,14.14213 11.111678,14.14213 11.111678,14.14213"
       id="path3203"
       inkscape:connector-curvature="0"
       transform="translate(104.90372,218.33008)" />
    <path
       style="fill:none;stroke:#000000;stroke-width:1px;stroke-linecap:butt;stroke-linejoin:miter;stroke-opacity:1"
       d="M 109.09647,84.734336 C 108.5914,107.96784 108.5914,107.96784 108.5914,107.96784"
       id="path3205"
       inkscape:connector-curvature="0"
       transform="translate(104.90372,218.33008)" />
    <path
       style="fill:none;stroke:#000000;stroke-width:1px;stroke-linecap:butt;stroke-linejoin:miter;stroke-opacity:1"
       d="m 115.66247,117.05922 c 40.91117,22.22335 40.91117,22.72843 40.91117,22.72843"
       id="path3207"
       inkscape:connector-curvature="0"
       transform="translate(104.90372,218.33008)" />
    <path
       style="fill:none;stroke:#000000;stroke-width:1px;stroke-linecap:butt;stroke-linejoin:miter;stroke-opacity:1"
       d="M 101.01525,117.56429 C 58.083771,159.9907 58.083771,159.9907 58.083771,159.9907"
       id="path3209"
       inkscape:connector-curvature="0"
       transform="translate(104.90372,218.33008)" />
    <path
       style="fill:none;stroke:#000000;stroke-width:1px;stroke-linecap:butt;stroke-linejoin:miter;stroke-opacity:1"
       d="m 296.47977,75.642963 c 16.16244,13.131983 16.16244,13.131983 16.16244,13.131983"
       id="path3211"
       inkscape:connector-curvature="0"
       transform="translate(104.90372,218.33008)" />
    <path
       style="fill:none;stroke:#000000;stroke-width:1px;stroke-linecap:butt;stroke-linejoin:miter;stroke-opacity:1"
       d="m 427.7996,77.663268 c 11.11168,21.71828 11.61676,21.71828 11.61676,21.71828"
       id="path3213"
       inkscape:connector-curvature="0"
       transform="translate(104.90372,218.33008)" />
    <path
       style="fill:none;stroke:#000000;stroke-width:1px;stroke-linecap:butt;stroke-linejoin:miter;stroke-opacity:1"
       d="m 506.5915,108.47292 c -22.22336,21.2132 -22.22336,20.70813 -22.22336,20.70813"
       id="path3215"
       inkscape:connector-curvature="0"
       transform="translate(104.90372,218.33008)" />
    <path
       style="fill:none;stroke:#000000;stroke-width:1px;stroke-linecap:butt;stroke-linejoin:miter;stroke-opacity:1"
       d="m 516.69303,111.50338 c 15.15228,22.22335 15.15228,22.22335 15.15228,22.22335"
       id="path3217"
       inkscape:connector-curvature="0"
       transform="translate(104.90372,218.33008)" />
    <path
       style="fill:none;stroke:#000000;stroke-width:1px;stroke-linecap:butt;stroke-linejoin:miter;stroke-opacity:1"
       d="m 472.75139,136.25212 c -18.68782,16.16244 -18.68782,16.16244 -18.68782,16.16244"
       id="path3219"
       inkscape:connector-curvature="0"
       transform="translate(104.90372,218.33008)" />
    <path
       style="fill:none;stroke:#000000;stroke-width:1px;stroke-linecap:butt;stroke-linejoin:miter;stroke-opacity:1"
       d="m 493.96459,65.541437 c 20.20306,32.829958 20.20306,32.829958 20.20306,32.829958"
       id="path3221"
       inkscape:connector-curvature="0"
       transform="translate(104.90372,218.33008)" />
    <path
       style="fill:none;stroke:#000000;stroke-width:1px;stroke-linecap:butt;stroke-linejoin:miter;stroke-opacity:1"
       d="M 215.66757,36.75209 C 161.62441,50.389149 161.62441,50.389149 161.62441,50.389149"
       id="path3223"
       inkscape:connector-curvature="0"
       transform="translate(104.90372,218.33008)" />
    <path
       style="fill:none;stroke:#000000;stroke-width:1px;stroke-linecap:butt;stroke-linejoin:miter;stroke-opacity:1"
       d="m 218.19295,34.731785 c 4.04061,25.75889 4.04061,25.75889 4.04061,25.75889"
       id="path3225"
       inkscape:connector-curvature="0"
       transform="translate(104.90372,218.33008)" />
    <path
       style="fill:none;stroke:#000000;stroke-width:1px;stroke-linecap:butt;stroke-linejoin:miter;stroke-opacity:1"
       d="m 323.60175,253.56694 c 144.95689,39.90103 144.95689,39.90103 144.95689,39.90103"
       id="path3227"
       inkscape:connector-curvature="0" />
    <path
       style="fill:none;stroke:#000000;stroke-width:1.02646148px;stroke-linecap:butt;stroke-linejoin:miter;stroke-opacity:1"
       d="m 323.61497,255.0954 c 109.5751,103.51418 109.5751,103.51418 109.5751,103.51418"
       id="path3229"
       inkscape:connector-curvature="0" />
    <path
       style="opacity:0.6;fill:none;stroke:#000000;stroke-width:3;stroke-miterlimit:4;stroke-opacity:1;stroke-dasharray:none"
       d="m 393.66265,394.86133 c -158.38737,0 -286.78125,60.61931 -286.78125,135.375 0,74.75569 128.39388,135.34375 286.78125,135.34375 158.38737,0 286.8125,-60.58806 286.8125,-135.34375 0,-74.75569 -128.42513,-135.375 -286.8125,-135.375 z"
       id="path2985"
       inkscape:connector-curvature="0" />
  </g>
</svg>
