<?xml version="1.0" encoding="UTF-8" standalone="no"?>
<!-- Created with Inkscape (http://www.inkscape.org/) -->

<svg
   xmlns:dc="http://purl.org/dc/elements/1.1/"
   xmlns:cc="http://creativecommons.org/ns#"
   xmlns:rdf="http://www.w3.org/1999/02/22-rdf-syntax-ns#"
   xmlns:svg="http://www.w3.org/2000/svg"
   xmlns="http://www.w3.org/2000/svg"
   xmlns:sodipodi="http://sodipodi.sourceforge.net/DTD/sodipodi-0.dtd"
   xmlns:inkscape="http://www.inkscape.org/namespaces/inkscape"
   width="578.02002"
   height="448.38925"
   id="svg2"
   version="1.1"
   inkscape:version="0.48.3.1 r9886"
   sodipodi:docname="care3.svg">
  <defs
     id="defs4" />
  <sodipodi:namedview
     id="base"
     pagecolor="#ffffff"
     bordercolor="#666666"
     borderopacity="1.0"
     inkscape:pageopacity="0.0"
     inkscape:pageshadow="2"
     inkscape:zoom="3.959798"
     inkscape:cx="124.84795"
     inkscape:cy="413.22685"
     inkscape:document-units="px"
     inkscape:current-layer="layer1"
     showgrid="false"
     inkscape:window-width="1600"
     inkscape:window-height="876"
     inkscape:window-x="0"
     inkscape:window-y="24"
     inkscape:window-maximized="1"
     fit-margin-top="0"
     fit-margin-left="0"
     fit-margin-right="0"
     fit-margin-bottom="0">
    <inkscape:grid
       type="xygrid"
       id="grid3838"
       empspacing="5"
       visible="true"
       enabled="true"
       snapvisiblegridlinesonly="true" />
  </sodipodi:namedview>
  <metadata
     id="metadata7">
    <rdf:RDF>
      <cc:Work
         rdf:about="">
        <dc:format>image/svg+xml</dc:format>
        <dc:type
           rdf:resource="http://purl.org/dc/dcmitype/StillImage" />
        <dc:title></dc:title>
      </cc:Work>
    </rdf:RDF>
  </metadata>
  <g
     inkscape:label="Layer 1"
     inkscape:groupmode="layer"
     id="layer1"
     transform="translate(-104.90372,-218.33008)">
    <path
       sodipodi:type="arc"
       style="opacity:0.6;fill:none;stroke:#000000;stroke-width:3;stroke-miterlimit:4;stroke-opacity:1;stroke-dasharray:none"
       id="path2985"
       sodipodi:cx="394.64285"
       sodipodi:cy="529.86218"
       sodipodi:rx="286.78571"
       sodipodi:ry="135.35715"
       d="m 681.42856,529.86218 c 0,74.75569 -128.39834,135.35715 -286.78571,135.35715 -158.38737,0 -286.7857,-60.60146 -286.7857,-135.35715 0,-74.75569 128.39833,-135.35714 286.7857,-135.35714 158.38737,0 286.78571,60.60145 286.78571,135.35714 z" />
    <path
       sodipodi:type="arc"
       style="opacity:0.6;fill:none;stroke:#000000;stroke-width:1.59938276;stroke-miterlimit:4;stroke-opacity:1;stroke-dasharray:9.59629679, 9.59629679;stroke-dashoffset:0"
       id="path2987"
       sodipodi:cx="268.92856"
       sodipodi:cy="534.86218"
       sodipodi:rx="69.64286"
       sodipodi:ry="48.92857"
       d="m 338.57142,534.86218 c 0,27.02251 -31.18017,48.92857 -69.64286,48.92857 -38.46269,0 -69.64286,-21.90606 -69.64286,-48.92857 0,-27.0225 31.18017,-48.92857 69.64286,-48.92857 38.46269,0 69.64286,21.90607 69.64286,48.92857 z"
       transform="matrix(1.245887,0,0,1.2550947,194.2311,-147.1548)" />
    <path
       sodipodi:type="arc"
       style="opacity:0.6;fill:none;stroke:#000000;stroke-width:3;stroke-miterlimit:4;stroke-opacity:1;stroke-dasharray:none"
       id="path2987-1"
       sodipodi:cx="268.92856"
       sodipodi:cy="534.86218"
       sodipodi:rx="69.64286"
       sodipodi:ry="48.92857"
       d="m 338.57142,534.86218 c 0,27.02251 -31.18017,48.92857 -69.64286,48.92857 -38.46269,0 -69.64286,-21.90606 -69.64286,-48.92857 0,-27.0225 31.18017,-48.92857 69.64286,-48.92857 38.46269,0 69.64286,21.90607 69.64286,48.92857 z"
       transform="matrix(1.245887,0,0,1.2550947,196.28565,-389.6869)" />
    <path
       style="fill:none;stroke:#000000;stroke-width:2;stroke-linecap:butt;stroke-linejoin:miter;stroke-miterlimit:4;stroke-opacity:1;stroke-dasharray:none"
       d="m 529.31993,316.97113 0,168.69547"
       id="path3912"
       inkscape:connector-curvature="0" />
    <path
       style="fill:none;stroke:#000000;stroke-width:1.38577437;stroke-linecap:butt;stroke-linejoin:miter;stroke-miterlimit:4;stroke-opacity:1;stroke-dasharray:none"
       d="m 557.99973,434.26383 -28.57702,48.05358 -28.67243,-48.21403"
       id="path3916"
       inkscape:connector-curvature="0" />
    <path
       sodipodi:type="arc"
       style="opacity:0.6;fill:none;stroke:#000000;stroke-width:2;stroke-miterlimit:4;stroke-opacity:1;stroke-dasharray:none;stroke-dashoffset:0"
       id="path3859"
       sodipodi:cx="130"
       sodipodi:cy="63.389252"
       sodipodi:rx="30"
       sodipodi:ry="25"
       d="m 160,63.389252 a 30,25 0 1 1 -60,0 30,25 0 1 1 60,0 z"
       transform="translate(174.90372,188.33008)" />
    <path
       sodipodi:type="arc"
       style="opacity:0.59999999999999998;fill:none;stroke:#000000;stroke-width:2;stroke-miterlimit:4;stroke-opacity:1;stroke-dasharray:8,8;stroke-dashoffset:0"
       id="path3859-0"
       sodipodi:cx="130"
       sodipodi:cy="63.389252"
       sodipodi:rx="30"
       sodipodi:ry="25"
       d="m 160,63.389252 a 30,25 0 1 1 -60,0 30,25 0 1 1 60,0 z"
       transform="translate(384.90372,193.33008)" />
    <path
       style="fill:none;stroke:#000000;stroke-width:2;stroke-linecap:butt;stroke-linejoin:miter;stroke-miterlimit:4;stroke-opacity:1;stroke-dasharray:none"
       d="m 327.61102,255.39913 168.69547,0"
       id="path3912-3"
       inkscape:connector-curvature="0" />
    <path
       style="fill:none;stroke:#000000;stroke-width:1.38577437;stroke-linecap:butt;stroke-linejoin:miter;stroke-miterlimit:4;stroke-opacity:1;stroke-dasharray:none"
       d="m 444.90372,226.71933 48.05358,28.57702 -48.21403,28.67243"
       id="path3916-0"
       inkscape:connector-curvature="0" />
    <path
       sodipodi:type="arc"
       style="opacity:0.59999999999999998;fill:none;stroke:#000000;stroke-width:1.5;stroke-miterlimit:4;stroke-opacity:1;stroke-dasharray:3,3;stroke-dashoffset:0"
       id="path4440"
       sodipodi:cx="190"
       sodipodi:cy="33.389252"
       sodipodi:rx="10"
       sodipodi:ry="5"
       d="m 200,33.389252 a 10,5 0 1 1 -20,0 10,5 0 1 1 20,0 z"
       transform="translate(104.90372,218.33008)" />
    <path
       sodipodi:type="arc"
       style="opacity:0.59999999999999998;fill:none;stroke:#000000;stroke-width:1.5;stroke-miterlimit:4;stroke-opacity:1;stroke-dasharray:3,3;stroke-dashoffset:0"
       id="path4442"
       sodipodi:cx="210"
       sodipodi:cy="23.389252"
       sodipodi:rx="10"
       sodipodi:ry="5"
       d="m 220,23.389252 a 10,5 0 1 1 -20,0 10,5 0 1 1 20,0 z"
       transform="translate(104.90372,218.33008)" />
    <path
       sodipodi:type="arc"
       style="opacity:0.59999999999999998;fill:none;stroke:#000000;stroke-width:1.5;stroke-miterlimit:4;stroke-opacity:1;stroke-dasharray:3,3;stroke-dashoffset:0"
       id="path4444"
       sodipodi:cx="210"
       sodipodi:cy="43.389252"
       sodipodi:rx="10"
       sodipodi:ry="5"
       d="m 220,43.389252 a 10,5 0 1 1 -20,0 10,5 0 1 1 20,0 z"
       transform="translate(104.90372,218.33008)" />
    <path
       transform="translate(-25.09628,238.33008)"
       sodipodi:type="arc"
       style="opacity:0.6;fill:none;stroke:#000000;stroke-width:2;stroke-miterlimit:4;stroke-opacity:1;stroke-dasharray:none;stroke-dashoffset:0"
       id="path4440-8"
       sodipodi:cx="190"
       sodipodi:cy="33.389252"
       sodipodi:rx="10"
       sodipodi:ry="5"
       d="m 200,33.389252 a 10,5 0 1 1 -20,0 10,5 0 1 1 20,0 z" />
    <path
       transform="translate(-15.09628,208.33008)"
       sodipodi:type="arc"
       style="opacity:0.6;fill:none;stroke:#000000;stroke-width:2;stroke-miterlimit:4;stroke-opacity:1;stroke-dasharray:none;stroke-dashoffset:0"
       id="path4442-1"
       sodipodi:cx="210"
       sodipodi:cy="23.389252"
       sodipodi:rx="10"
       sodipodi:ry="5"
       d="m 220,23.389252 a 10,5 0 1 1 -20,0 10,5 0 1 1 20,0 z" />
    <path
       transform="translate(4.90372,253.33008)"
       sodipodi:type="arc"
       style="opacity:0.6;fill:none;stroke:#000000;stroke-width:2;stroke-miterlimit:4;stroke-opacity:1;stroke-dasharray:none;stroke-dashoffset:0"
       id="path4444-9"
       sodipodi:cx="210"
       sodipodi:cy="43.389252"
       sodipodi:rx="10"
       sodipodi:ry="5"
       d="m 220,43.389252 a 10,5 0 1 1 -20,0 10,5 0 1 1 20,0 z" />
    <path
       style="fill:none;stroke:#000000;stroke-width:1px;stroke-linecap:butt;stroke-linejoin:miter;stroke-opacity:1"
       d="M 118.18785,75.137885 C 200.26274,45.085846 200.26274,45.085846 200.26274,45.085846"
       id="path4472"
       inkscape:connector-curvature="0"
       transform="translate(104.90372,218.33008)" />
    <path
       style="fill:none;stroke:#000000;stroke-width:1px;stroke-linecap:butt;stroke-linejoin:miter;stroke-opacity:1"
       d="M 68.690373,52.409452 C 181.57492,33.469092 181.57492,33.469092 181.57492,33.469092"
       id="path4474"
       inkscape:connector-curvature="0"
       transform="translate(104.90372,218.33008)" />
    <path
       style="fill:none;stroke:#000000;stroke-width:1px;stroke-linecap:butt;stroke-linejoin:miter;stroke-opacity:1"
       d="m 100.25764,15.033808 c 99.50003,6.313453 99.50003,6.313453 99.50003,6.313453"
       id="path4476"
       inkscape:connector-curvature="0"
       transform="translate(104.90372,218.33008)" />
  </g>
</svg>
