<?xml version="1.0" encoding="UTF-8" standalone="no"?>
<!DOCTYPE svg PUBLIC "-//W3C//DTD SVG 1.1//EN"
 "http://www.w3.org/Graphics/SVG/1.1/DTD/svg11.dtd">
<!-- Generated by graphviz version 2.38.0 (20140413.2041)
 -->
<!-- Title: %3 Pages: 1 -->
<svg width="350pt" height="123pt"
 viewBox="0.00 0.00 350.00 122.90" xmlns="http://www.w3.org/2000/svg" xmlns:xlink="http://www.w3.org/1999/xlink">
<g id="graph0" class="graph" transform="scale(1 1) rotate(0) translate(4 118.896)">
<title>%3</title>
<polygon fill="white" stroke="none" points="-4,4 -4,-118.896 346,-118.896 346,4 -4,4"/>
<!-- 4795611148821890840 -->
<g id="node1" class="node"><title>4795611148821890840</title>
<polygon fill="none" stroke="black" points="54,-114.896 0,-114.896 0,-78.8962 54,-78.8962 54,-114.896"/>
<text text-anchor="middle" x="27" y="-93.1962" font-family="Times,serif" font-size="14.00">inc&#45;#0</text>
</g>
<!-- &#45;7581234466657288171 -->
<g id="node2" class="node"><title>&#45;7581234466657288171</title>
<ellipse fill="none" stroke="black" cx="27" cy="-21.4481" rx="21.3963" ry="21.3963"/>
<text text-anchor="middle" x="27" y="-17.7481" font-family="Times,serif" font-size="14.00">inc</text>
</g>
<!-- &#45;7581234466657288171&#45;&gt;4795611148821890840 -->
<g id="edge1" class="edge"><title>&#45;7581234466657288171&#45;&gt;4795611148821890840</title>
<path fill="none" stroke="black" d="M27,-42.9075C27,-50.7866 27,-59.9176 27,-68.357"/>
<polygon fill="black" stroke="black" points="23.5001,-68.5307 27,-78.5307 30.5001,-68.5308 23.5001,-68.5307"/>
</g>
<!-- 1749146609862058187 -->
<g id="node3" class="node"><title>1749146609862058187</title>
<polygon fill="none" stroke="black" points="126,-114.896 72,-114.896 72,-78.8962 126,-78.8962 126,-114.896"/>
<text text-anchor="middle" x="99" y="-93.1962" font-family="Times,serif" font-size="14.00">inc&#45;#1</text>
</g>
<!-- &#45;7760798718767983350 -->
<g id="node4" class="node"><title>&#45;7760798718767983350</title>
<ellipse fill="none" stroke="black" cx="99" cy="-21.4481" rx="21.3963" ry="21.3963"/>
<text text-anchor="middle" x="99" y="-17.7481" font-family="Times,serif" font-size="14.00">inc</text>
</g>
<!-- &#45;7760798718767983350&#45;&gt;1749146609862058187 -->
<g id="edge2" class="edge"><title>&#45;7760798718767983350&#45;&gt;1749146609862058187</title>
<path fill="none" stroke="black" d="M99,-42.9075C99,-50.7866 99,-59.9176 99,-68.357"/>
<polygon fill="black" stroke="black" points="95.5001,-68.5307 99,-78.5307 102.5,-68.5308 95.5001,-68.5307"/>
</g>
<!-- 2089429868363590595 -->
<g id="node5" class="node"><title>2089429868363590595</title>
<polygon fill="none" stroke="black" points="198,-114.896 144,-114.896 144,-78.8962 198,-78.8962 198,-114.896"/>
<text text-anchor="middle" x="171" y="-93.1962" font-family="Times,serif" font-size="14.00">inc&#45;#2</text>
</g>
<!-- 1232711586140940482 -->
<g id="node6" class="node"><title>1232711586140940482</title>
<ellipse fill="none" stroke="black" cx="171" cy="-21.4481" rx="21.3963" ry="21.3963"/>
<text text-anchor="middle" x="171" y="-17.7481" font-family="Times,serif" font-size="14.00">inc</text>
</g>
<!-- 1232711586140940482&#45;&gt;2089429868363590595 -->
<g id="edge3" class="edge"><title>1232711586140940482&#45;&gt;2089429868363590595</title>
<path fill="none" stroke="black" d="M171,-42.9075C171,-50.7866 171,-59.9176 171,-68.357"/>
<polygon fill="black" stroke="black" points="167.5,-68.5307 171,-78.5307 174.5,-68.5308 167.5,-68.5307"/>
</g>
<!-- &#45;5114251527495170246 -->
<g id="node7" class="node"><title>&#45;5114251527495170246</title>
<polygon fill="none" stroke="black" points="270,-114.896 216,-114.896 216,-78.8962 270,-78.8962 270,-114.896"/>
<text text-anchor="middle" x="243" y="-93.1962" font-family="Times,serif" font-size="14.00">inc&#45;#3</text>
</g>
<!-- 1465565644294390383 -->
<g id="node8" class="node"><title>1465565644294390383</title>
<ellipse fill="none" stroke="black" cx="243" cy="-21.4481" rx="21.3963" ry="21.3963"/>
<text text-anchor="middle" x="243" y="-17.7481" font-family="Times,serif" font-size="14.00">inc</text>
</g>
<!-- 1465565644294390383&#45;&gt;&#45;5114251527495170246 -->
<g id="edge4" class="edge"><title>1465565644294390383&#45;&gt;&#45;5114251527495170246</title>
<path fill="none" stroke="black" d="M243,-42.9075C243,-50.7866 243,-59.9176 243,-68.357"/>
<polygon fill="black" stroke="black" points="239.5,-68.5307 243,-78.5307 246.5,-68.5308 239.5,-68.5307"/>
</g>
<!-- &#45;1064982444137115156 -->
<g id="node9" class="node"><title>&#45;1064982444137115156</title>
<polygon fill="none" stroke="black" points="342,-114.896 288,-114.896 288,-78.8962 342,-78.8962 342,-114.896"/>
<text text-anchor="middle" x="315" y="-93.1962" font-family="Times,serif" font-size="14.00">inc&#45;#4</text>
</g>
<!-- 6664351393423795393 -->
<g id="node10" class="node"><title>6664351393423795393</title>
<ellipse fill="none" stroke="black" cx="315" cy="-21.4481" rx="21.3963" ry="21.3963"/>
<text text-anchor="middle" x="315" y="-17.7481" font-family="Times,serif" font-size="14.00">inc</text>
</g>
<!-- 6664351393423795393&#45;&gt;&#45;1064982444137115156 -->
<g id="edge5" class="edge"><title>6664351393423795393&#45;&gt;&#45;1064982444137115156</title>
<path fill="none" stroke="black" d="M315,-42.9075C315,-50.7866 315,-59.9176 315,-68.357"/>
<polygon fill="black" stroke="black" points="311.5,-68.5307 315,-78.5307 318.5,-68.5308 311.5,-68.5307"/>
</g>
</g>
</svg>
