<?xml version="1.0" encoding="UTF-8" standalone="no"?>
<!DOCTYPE svg PUBLIC "-//W3C//DTD SVG 1.1//EN"
 "http://www.w3.org/Graphics/SVG/1.1/DTD/svg11.dtd">
<!-- Generated by graphviz version 2.40.1 (20161225.0304)
 -->
<!-- Title: %3 Pages: 1 -->
<svg width="1429pt" height="875pt"
 viewBox="0.00 0.00 1428.63 874.96" xmlns="http://www.w3.org/2000/svg" xmlns:xlink="http://www.w3.org/1999/xlink">
<g id="graph0" class="graph" transform="scale(1 1) rotate(0) translate(4 870.955)">
<title>%3</title>
<polygon fill="#ffffff" stroke="transparent" points="-4,4 -4,-870.955 1424.6303,-870.955 1424.6303,4 -4,4"/>
<!-- &#45;5756528345238856837 -->
<g id="node1" class="node">
<title>&#45;5756528345238856837</title>
<polygon fill="none" stroke="#000000" points="562.09,-866.955 508.09,-866.955 508.09,-830.955 562.09,-830.955 562.09,-866.955"/>
<text text-anchor="middle" x="535.09" y="-845.255" font-family="Times,serif" font-size="14.00" fill="#000000">0</text>
</g>
<!-- 6974392536669616663 -->
<g id="node2" class="node">
<title>6974392536669616663</title>
<ellipse fill="none" stroke="#000000" cx="535.09" cy="-758.5582" rx="36.2938" ry="36.2938"/>
<text text-anchor="middle" x="535.09" y="-754.8582" font-family="Times,serif" font-size="14.00" fill="#000000">truediv</text>
</g>
<!-- 6974392536669616663&#45;&gt;&#45;5756528345238856837 -->
<g id="edge1" class="edge">
<title>6974392536669616663&#45;&gt;&#45;5756528345238856837</title>
<path fill="none" stroke="#000000" d="M535.09,-795.0655C535.09,-803.6514 535.09,-812.6721 535.09,-820.8244"/>
<polygon fill="#000000" stroke="#000000" points="531.5901,-820.9316 535.09,-830.9316 538.5901,-820.9317 531.5901,-820.9316"/>
</g>
<!-- 8614537788903396952 -->
<g id="node3" class="node">
<title>8614537788903396952</title>
<polygon fill="none" stroke="#000000" points="635.09,-686.1615 581.09,-686.1615 581.09,-650.1615 635.09,-650.1615 635.09,-686.1615"/>
<text text-anchor="middle" x="608.09" y="-664.4615" font-family="Times,serif" font-size="14.00" fill="#000000">0</text>
</g>
<!-- 8614537788903396952&#45;&gt;6974392536669616663 -->
<g id="edge2" class="edge">
<title>8614537788903396952&#45;&gt;6974392536669616663</title>
<path fill="none" stroke="#000000" d="M593.3173,-686.4546C585.0468,-696.6961 574.4363,-709.8352 564.5436,-722.0854"/>
<polygon fill="#000000" stroke="#000000" points="561.738,-719.9889 558.1782,-729.9678 567.184,-724.3868 561.738,-719.9889"/>
</g>
<!-- 5673301237450591847 -->
<g id="node4" class="node">
<title>5673301237450591847</title>
<polygon fill="none" stroke="#000000" points="526.09,-686.1615 472.09,-686.1615 472.09,-650.1615 526.09,-650.1615 526.09,-686.1615"/>
<text text-anchor="middle" x="499.09" y="-664.4615" font-family="Times,serif" font-size="14.00" fill="#000000">0</text>
</g>
<!-- 5673301237450591847&#45;&gt;6974392536669616663 -->
<g id="edge3" class="edge">
<title>5673301237450591847&#45;&gt;6974392536669616663</title>
<path fill="none" stroke="#000000" d="M506.3751,-686.4546C509.6759,-694.7429 513.7324,-704.929 517.7455,-715.0059"/>
<polygon fill="#000000" stroke="#000000" points="514.6021,-716.5728 521.5536,-724.5682 521.1054,-713.9829 514.6021,-716.5728"/>
</g>
<!-- &#45;2763440856414593631 -->
<g id="node5" class="node">
<title>&#45;2763440856414593631</title>
<polygon fill="none" stroke="#000000" points="666.59,-370.1799 605.59,-370.1799 605.59,-334.1799 666.59,-334.1799 666.59,-370.1799"/>
<text text-anchor="middle" x="636.09" y="-348.4799" font-family="Times,serif" font-size="14.00" fill="#000000">(0, 0, 0)</text>
</g>
<!-- &#45;2453370172501454868 -->
<g id="node14" class="node">
<title>&#45;2453370172501454868</title>
<ellipse fill="none" stroke="#000000" cx="675.09" cy="-510.1707" rx="99.3824" ry="99.3824"/>
<text text-anchor="middle" x="675.09" y="-506.4707" font-family="Times,serif" font-size="14.00" fill="#000000">series&#45;groupby&#45;sum&#45;agg</text>
</g>
<!-- &#45;2763440856414593631&#45;&gt;&#45;2453370172501454868 -->
<g id="edge11" class="edge">
<title>&#45;2763440856414593631&#45;&gt;&#45;2453370172501454868</title>
<path fill="none" stroke="#000000" d="M640.5638,-370.3035C642.7799,-379.2814 645.6532,-390.9208 648.7954,-403.6501"/>
<polygon fill="#000000" stroke="#000000" points="645.4496,-404.701 651.2443,-413.5707 652.2456,-403.0233 645.4496,-404.701"/>
</g>
<!-- 8944420827982598481 -->
<g id="node6" class="node">
<title>8944420827982598481</title>
<ellipse fill="none" stroke="#000000" cx="597.09" cy="-185.09" rx="108.5808" ry="108.5808"/>
<text text-anchor="middle" x="597.09" y="-181.39" font-family="Times,serif" font-size="14.00" fill="#000000">series&#45;groupby&#45;sum&#45;chunk</text>
</g>
<!-- 8944420827982598481&#45;&gt;&#45;2763440856414593631 -->
<g id="edge4" class="edge">
<title>8944420827982598481&#45;&gt;&#45;2763440856414593631</title>
<path fill="none" stroke="#000000" d="M621.7893,-290.9106C624.601,-302.957 627.2571,-314.3369 629.4997,-323.9447"/>
<polygon fill="#000000" stroke="#000000" points="626.1606,-325.0376 631.842,-333.9803 632.9774,-323.4465 626.1606,-325.0376"/>
</g>
<!-- &#45;6970790616692853463 -->
<g id="node7" class="node">
<title>&#45;6970790616692853463</title>
<polygon fill="none" stroke="#000000" points="425.09,-36 371.09,-36 371.09,0 425.09,0 425.09,-36"/>
<text text-anchor="middle" x="398.09" y="-14.3" font-family="Times,serif" font-size="14.00" fill="#000000">0</text>
</g>
<!-- &#45;6970790616692853463&#45;&gt;8944420827982598481 -->
<g id="edge5" class="edge">
<title>&#45;6970790616692853463&#45;&gt;8944420827982598481</title>
<path fill="none" stroke="#000000" d="M425.1856,-34.3757C441.3316,-44.5413 461.9516,-58.2517 479.09,-72 490.3297,-81.0165 501.7535,-90.9058 512.846,-100.9669"/>
<polygon fill="#000000" stroke="#000000" points="510.7292,-103.7745 520.4661,-107.951 515.4589,-98.6141 510.7292,-103.7745"/>
</g>
<!-- 6128444059311649355 -->
<g id="node16" class="node">
<title>6128444059311649355</title>
<ellipse fill="none" stroke="#000000" cx="113.09" cy="-185.09" rx="113.18" ry="113.18"/>
<text text-anchor="middle" x="113.09" y="-181.39" font-family="Times,serif" font-size="14.00" fill="#000000">series&#45;groupby&#45;count&#45;chunk</text>
</g>
<!-- &#45;6970790616692853463&#45;&gt;6128444059311649355 -->
<g id="edge15" class="edge">
<title>&#45;6970790616692853463&#45;&gt;6128444059311649355</title>
<path fill="none" stroke="#000000" d="M370.9232,-23.2649C337.3008,-30.5947 279.1056,-45.9905 235.09,-72 222.8677,-79.2223 210.841,-87.8407 199.3854,-97.0527"/>
<polygon fill="#000000" stroke="#000000" points="197.0377,-94.4521 191.5505,-103.5152 201.4919,-99.8522 197.0377,-94.4521"/>
</g>
<!-- &#45;2763439402923597156 -->
<g id="node8" class="node">
<title>&#45;2763439402923597156</title>
<polygon fill="none" stroke="#000000" points="823.59,-370.1799 762.59,-370.1799 762.59,-334.1799 823.59,-334.1799 823.59,-370.1799"/>
<text text-anchor="middle" x="793.09" y="-348.4799" font-family="Times,serif" font-size="14.00" fill="#000000">(0, 1, 0)</text>
</g>
<!-- &#45;2763439402923597156&#45;&gt;&#45;2453370172501454868 -->
<g id="edge13" class="edge">
<title>&#45;2763439402923597156&#45;&gt;&#45;2453370172501454868</title>
<path fill="none" stroke="#000000" d="M779.5539,-370.3035C769.7107,-383.4825 755.584,-402.3969 740.887,-422.0748"/>
<polygon fill="#000000" stroke="#000000" points="737.9693,-420.1323 734.7895,-430.2388 743.5777,-424.3212 737.9693,-420.1323"/>
</g>
<!-- &#45;5130138482222259552 -->
<g id="node9" class="node">
<title>&#45;5130138482222259552</title>
<ellipse fill="none" stroke="#000000" cx="832.09" cy="-185.09" rx="108.5808" ry="108.5808"/>
<text text-anchor="middle" x="832.09" y="-181.39" font-family="Times,serif" font-size="14.00" fill="#000000">series&#45;groupby&#45;sum&#45;chunk</text>
</g>
<!-- &#45;5130138482222259552&#45;&gt;&#45;2763439402923597156 -->
<g id="edge6" class="edge">
<title>&#45;5130138482222259552&#45;&gt;&#45;2763439402923597156</title>
<path fill="none" stroke="#000000" d="M807.3907,-290.9106C804.5789,-302.957 801.9228,-314.3369 799.6803,-323.9447"/>
<polygon fill="#000000" stroke="#000000" points="796.2026,-323.4465 797.3379,-333.9803 803.0193,-325.0376 796.2026,-323.4465"/>
</g>
<!-- &#45;6970790616691770938 -->
<g id="node10" class="node">
<title>&#45;6970790616691770938</title>
<polygon fill="none" stroke="#000000" points="583.09,-36 529.09,-36 529.09,0 583.09,0 583.09,-36"/>
<text text-anchor="middle" x="556.09" y="-14.3" font-family="Times,serif" font-size="14.00" fill="#000000">1</text>
</g>
<!-- &#45;6970790616691770938&#45;&gt;&#45;5130138482222259552 -->
<g id="edge7" class="edge">
<title>&#45;6970790616691770938&#45;&gt;&#45;5130138482222259552</title>
<path fill="none" stroke="#000000" d="M583.2518,-23.3827C616.2197,-30.7522 672.6605,-46.1085 715.09,-72 727.4338,-79.5325 739.519,-88.5741 750.9556,-98.2202"/>
<polygon fill="#000000" stroke="#000000" points="748.9143,-101.0825 758.7647,-104.9838 753.4971,-95.7912 748.9143,-101.0825"/>
</g>
<!-- &#45;7880965554614988014 -->
<g id="node18" class="node">
<title>&#45;7880965554614988014</title>
<ellipse fill="none" stroke="#000000" cx="357.09" cy="-185.09" rx="113.18" ry="113.18"/>
<text text-anchor="middle" x="357.09" y="-181.39" font-family="Times,serif" font-size="14.00" fill="#000000">series&#45;groupby&#45;count&#45;chunk</text>
</g>
<!-- &#45;6970790616691770938&#45;&gt;&#45;7880965554614988014 -->
<g id="edge17" class="edge">
<title>&#45;6970790616691770938&#45;&gt;&#45;7880965554614988014</title>
<path fill="none" stroke="#000000" d="M529.0677,-35.6306C513.9959,-45.7875 495.0927,-59.071 479.09,-72 468.2296,-80.7744 457.1203,-90.2678 446.2434,-99.8958"/>
<polygon fill="#000000" stroke="#000000" points="443.8881,-97.3065 438.7563,-106.5756 448.5483,-102.5299 443.8881,-97.3065"/>
</g>
<!-- &#45;2763443763396586581 -->
<g id="node11" class="node">
<title>&#45;2763443763396586581</title>
<polygon fill="none" stroke="#000000" points="1240.59,-370.1799 1179.59,-370.1799 1179.59,-334.1799 1240.59,-334.1799 1240.59,-370.1799"/>
<text text-anchor="middle" x="1210.09" y="-348.4799" font-family="Times,serif" font-size="14.00" fill="#000000">(0, 2, 0)</text>
</g>
<!-- &#45;2763443763396586581&#45;&gt;&#45;2453370172501454868 -->
<g id="edge12" class="edge">
<title>&#45;2763443763396586581&#45;&gt;&#45;2453370172501454868</title>
<path fill="none" stroke="#000000" d="M1179.4045,-361.2417C1103.58,-383.6334 904.5438,-442.4107 780.3921,-479.0739"/>
<polygon fill="#000000" stroke="#000000" points="779.0736,-475.8138 770.4743,-482.0028 781.0561,-482.5272 779.0736,-475.8138"/>
</g>
<!-- &#45;4620980056172986681 -->
<g id="node12" class="node">
<title>&#45;4620980056172986681</title>
<ellipse fill="none" stroke="#000000" cx="1312.09" cy="-185.09" rx="108.5808" ry="108.5808"/>
<text text-anchor="middle" x="1312.09" y="-181.39" font-family="Times,serif" font-size="14.00" fill="#000000">series&#45;groupby&#45;sum&#45;chunk</text>
</g>
<!-- &#45;4620980056172986681&#45;&gt;&#45;2763443763396586581 -->
<g id="edge8" class="edge">
<title>&#45;4620980056172986681&#45;&gt;&#45;2763443763396586581</title>
<path fill="none" stroke="#000000" d="M1255.4227,-277.9188C1244.7673,-295.3738 1234.446,-312.2814 1226.3505,-325.543"/>
<polygon fill="#000000" stroke="#000000" points="1223.3477,-323.7446 1221.1247,-334.1036 1229.3225,-327.3919 1223.3477,-323.7446"/>
</g>
<!-- &#45;6970790616695018513 -->
<g id="node13" class="node">
<title>&#45;6970790616695018513</title>
<polygon fill="none" stroke="#000000" points="1219.09,-36 1165.09,-36 1165.09,0 1219.09,0 1219.09,-36"/>
<text text-anchor="middle" x="1192.09" y="-14.3" font-family="Times,serif" font-size="14.00" fill="#000000">2</text>
</g>
<!-- &#45;6970790616695018513&#45;&gt;&#45;4620980056172986681 -->
<g id="edge9" class="edge">
<title>&#45;6970790616695018513&#45;&gt;&#45;4620980056172986681</title>
<path fill="none" stroke="#000000" d="M1205.1605,-36.1996C1214.6638,-49.4321 1228.3429,-68.4792 1242.7588,-88.5521"/>
<polygon fill="#000000" stroke="#000000" points="1240.0741,-90.814 1248.7503,-96.8948 1245.7598,-86.7307 1240.0741,-90.814"/>
</g>
<!-- 8952969303716861653 -->
<g id="node20" class="node">
<title>8952969303716861653</title>
<ellipse fill="none" stroke="#000000" cx="1072.09" cy="-185.09" rx="113.18" ry="113.18"/>
<text text-anchor="middle" x="1072.09" y="-181.39" font-family="Times,serif" font-size="14.00" fill="#000000">series&#45;groupby&#45;count&#45;chunk</text>
</g>
<!-- &#45;6970790616695018513&#45;&gt;8952969303716861653 -->
<g id="edge19" class="edge">
<title>&#45;6970790616695018513&#45;&gt;8952969303716861653</title>
<path fill="none" stroke="#000000" d="M1179.0194,-36.1996C1170.1298,-48.5777 1157.5861,-66.0437 1144.2035,-84.6779"/>
<polygon fill="#000000" stroke="#000000" points="1141.2068,-82.8505 1138.2163,-93.0145 1146.8925,-86.9338 1141.2068,-82.8505"/>
</g>
<!-- &#45;2453370172501454868&#45;&gt;8614537788903396952 -->
<g id="edge10" class="edge">
<title>&#45;2453370172501454868&#45;&gt;8614537788903396952</title>
<path fill="none" stroke="#000000" d="M636.1158,-602.0746C630.1647,-616.1076 624.4506,-629.5819 619.7521,-640.6612"/>
<polygon fill="#000000" stroke="#000000" points="616.4271,-639.5372 615.7451,-650.1101 622.8716,-642.2702 616.4271,-639.5372"/>
</g>
<!-- &#45;5345523493488598465 -->
<g id="node15" class="node">
<title>&#45;5345523493488598465</title>
<polygon fill="none" stroke="#000000" points="260.59,-370.1799 199.59,-370.1799 199.59,-334.1799 260.59,-334.1799 260.59,-370.1799"/>
<text text-anchor="middle" x="230.09" y="-348.4799" font-family="Times,serif" font-size="14.00" fill="#000000">(0, 0, 0)</text>
</g>
<!-- 8691426494848250547 -->
<g id="node21" class="node">
<title>8691426494848250547</title>
<ellipse fill="none" stroke="#000000" cx="425.09" cy="-510.1707" rx="103.9815" ry="103.9815"/>
<text text-anchor="middle" x="425.09" y="-506.4707" font-family="Times,serif" font-size="14.00" fill="#000000">series&#45;groupby&#45;count&#45;agg</text>
</g>
<!-- &#45;5345523493488598465&#45;&gt;8691426494848250547 -->
<g id="edge23" class="edge">
<title>&#45;5345523493488598465&#45;&gt;8691426494848250547</title>
<path fill="none" stroke="#000000" d="M252.4589,-370.3035C273.1171,-387.0409 305.193,-413.0291 336.1161,-438.0833"/>
<polygon fill="#000000" stroke="#000000" points="333.9723,-440.8509 343.9455,-444.4267 338.3789,-435.412 333.9723,-440.8509"/>
</g>
<!-- 6128444059311649355&#45;&gt;&#45;5345523493488598465 -->
<g id="edge14" class="edge">
<title>6128444059311649355&#45;&gt;&#45;5345523493488598465</title>
<path fill="none" stroke="#000000" d="M178.0907,-277.9188C190.3131,-295.3738 202.1521,-312.2814 211.4382,-325.543"/>
<polygon fill="#000000" stroke="#000000" points="208.8296,-327.9196 217.4325,-334.1036 214.5636,-323.9045 208.8296,-327.9196"/>
</g>
<!-- &#45;5345522039997601990 -->
<g id="node17" class="node">
<title>&#45;5345522039997601990</title>
<polygon fill="none" stroke="#000000" points="421.59,-370.1799 360.59,-370.1799 360.59,-334.1799 421.59,-334.1799 421.59,-370.1799"/>
<text text-anchor="middle" x="391.09" y="-348.4799" font-family="Times,serif" font-size="14.00" fill="#000000">(0, 1, 0)</text>
</g>
<!-- &#45;5345522039997601990&#45;&gt;8691426494848250547 -->
<g id="edge21" class="edge">
<title>&#45;5345522039997601990&#45;&gt;8691426494848250547</title>
<path fill="none" stroke="#000000" d="M394.9902,-370.3035C396.6462,-377.9984 398.7229,-387.6487 401.0075,-398.2645"/>
<polygon fill="#000000" stroke="#000000" points="397.6323,-399.2171 403.1579,-408.2569 404.4756,-397.7443 397.6323,-399.2171"/>
</g>
<!-- &#45;7880965554614988014&#45;&gt;&#45;5345522039997601990 -->
<g id="edge16" class="edge">
<title>&#45;7880965554614988014&#45;&gt;&#45;5345522039997601990</title>
<path fill="none" stroke="#000000" d="M379.6739,-296.0766C381.7207,-306.1353 383.6459,-315.597 385.3115,-323.7823"/>
<polygon fill="#000000" stroke="#000000" points="381.9161,-324.649 387.3398,-333.7503 388.7755,-323.2532 381.9161,-324.649"/>
</g>
<!-- &#45;5345520586506605515 -->
<g id="node19" class="node">
<title>&#45;5345520586506605515</title>
<polygon fill="none" stroke="#000000" points="1021.59,-370.1799 960.59,-370.1799 960.59,-334.1799 1021.59,-334.1799 1021.59,-370.1799"/>
<text text-anchor="middle" x="991.09" y="-348.4799" font-family="Times,serif" font-size="14.00" fill="#000000">(0, 2, 0)</text>
</g>
<!-- &#45;5345520586506605515&#45;&gt;8691426494848250547 -->
<g id="edge22" class="edge">
<title>&#45;5345520586506605515&#45;&gt;8691426494848250547</title>
<path fill="none" stroke="#000000" d="M960.4427,-355.6572C866.1202,-366.4152 585.4208,-398.8714 567.09,-406.1799 548.1859,-413.717 529.5069,-424.3709 512.2154,-436.0097"/>
<polygon fill="#000000" stroke="#000000" points="510.0818,-433.2296 503.8434,-441.7931 514.0604,-438.9891 510.0818,-433.2296"/>
</g>
<!-- 8952969303716861653&#45;&gt;&#45;5345520586506605515 -->
<g id="edge18" class="edge">
<title>8952969303716861653&#45;&gt;&#45;5345520586506605515</title>
<path fill="none" stroke="#000000" d="M1022.6386,-287.1001C1015.9306,-300.9377 1009.5675,-314.0638 1004.3362,-324.8551"/>
<polygon fill="#000000" stroke="#000000" points="1001.0855,-323.5373 999.8727,-334.0625 1007.3844,-326.5909 1001.0855,-323.5373"/>
</g>
<!-- 8691426494848250547&#45;&gt;5673301237450591847 -->
<g id="edge20" class="edge">
<title>8691426494848250547&#45;&gt;5673301237450591847</title>
<path fill="none" stroke="#000000" d="M469.2046,-604.356C475.397,-617.5767 481.313,-630.2075 486.2232,-640.6909"/>
<polygon fill="#000000" stroke="#000000" points="483.1878,-642.4618 490.599,-650.0331 489.5269,-639.4927 483.1878,-642.4618"/>
</g>
</g>
</svg>
