<?xml version="1.0" encoding="UTF-8" standalone="no"?>
<!DOCTYPE svg PUBLIC "-//W3C//DTD SVG 1.1//EN"
 "http://www.w3.org/Graphics/SVG/1.1/DTD/svg11.dtd">
<!-- Generated by graphviz version 2.38.0 (20140413.2041)
 -->
<!-- Title: %3 Pages: 1 -->
<svg width="350pt" height="282pt"
 viewBox="0.00 0.00 350.00 281.59" xmlns="http://www.w3.org/2000/svg" xmlns:xlink="http://www.w3.org/1999/xlink">
<g id="graph0" class="graph" transform="scale(1 1) rotate(0) translate(4 277.592)">
<title>%3</title>
<polygon fill="white" stroke="none" points="-4,4 -4,-277.592 346,-277.592 346,4 -4,4"/>
<!-- &#45;913363156535959934 -->
<g id="node1" class="node"><title>&#45;913363156535959934</title>
<polygon fill="none" stroke="black" points="342,-118.796 288,-118.796 288,-82.7958 342,-82.7958 342,-118.796"/>
<text text-anchor="middle" x="315" y="-97.0958" font-family="Times,serif" font-size="14.00">add&#45;#0</text>
</g>
<!-- 5319367647874326015 -->
<g id="node6" class="node"><title>5319367647874326015</title>
<ellipse fill="none" stroke="black" cx="306" cy="-178.194" rx="23.2963" ry="23.2963"/>
<text text-anchor="middle" x="306" y="-174.494" font-family="Times,serif" font-size="14.00">add</text>
</g>
<!-- &#45;913363156535959934&#45;&gt;5319367647874326015 -->
<g id="edge4" class="edge"><title>&#45;913363156535959934&#45;&gt;5319367647874326015</title>
<path fill="none" stroke="black" d="M312.958,-118.905C312.048,-126.525 310.945,-135.763 309.889,-144.618"/>
<polygon fill="black" stroke="black" points="306.393,-144.371 308.683,-154.715 313.344,-145.201 306.393,-144.371"/>
</g>
<!-- 3255716365683698167 -->
<g id="node2" class="node"><title>3255716365683698167</title>
<ellipse fill="none" stroke="black" cx="315" cy="-23.3979" rx="23.2963" ry="23.2963"/>
<text text-anchor="middle" x="315" y="-19.6979" font-family="Times,serif" font-size="14.00">add</text>
</g>
<!-- 3255716365683698167&#45;&gt;&#45;913363156535959934 -->
<g id="edge1" class="edge"><title>3255716365683698167&#45;&gt;&#45;913363156535959934</title>
<path fill="none" stroke="black" d="M315,-47.0198C315,-55.0716 315,-64.222 315,-72.6162"/>
<polygon fill="black" stroke="black" points="311.5,-72.7045 315,-82.7046 318.5,-72.7046 311.5,-72.7045"/>
</g>
<!-- &#45;822888061053616485 -->
<g id="node3" class="node"><title>&#45;822888061053616485</title>
<polygon fill="none" stroke="black" points="270,-118.796 216,-118.796 216,-82.7958 270,-82.7958 270,-118.796"/>
<text text-anchor="middle" x="243" y="-97.0958" font-family="Times,serif" font-size="14.00">add&#45;#1</text>
</g>
<!-- &#45;822888061053616485&#45;&gt;5319367647874326015 -->
<g id="edge5" class="edge"><title>&#45;822888061053616485&#45;&gt;5319367647874326015</title>
<path fill="none" stroke="black" d="M257.296,-118.905C265.396,-128.599 275.686,-140.914 284.719,-151.724"/>
<polygon fill="black" stroke="black" points="282.226,-154.2 291.324,-159.629 287.598,-149.711 282.226,-154.2"/>
</g>
<!-- &#45;4291857937596190969 -->
<g id="node10" class="node"><title>&#45;4291857937596190969</title>
<ellipse fill="none" stroke="black" cx="225" cy="-178.194" rx="23.2963" ry="23.2963"/>
<text text-anchor="middle" x="225" y="-174.494" font-family="Times,serif" font-size="14.00">add</text>
</g>
<!-- &#45;822888061053616485&#45;&gt;&#45;4291857937596190969 -->
<g id="edge8" class="edge"><title>&#45;822888061053616485&#45;&gt;&#45;4291857937596190969</title>
<path fill="none" stroke="black" d="M238.916,-118.905C237.047,-126.734 234.77,-136.271 232.603,-145.346"/>
<polygon fill="black" stroke="black" points="229.15,-144.739 230.232,-155.278 235.959,-146.364 229.15,-144.739"/>
</g>
<!-- 1086607463082576218 -->
<g id="node4" class="node"><title>1086607463082576218</title>
<ellipse fill="none" stroke="black" cx="243" cy="-23.3979" rx="23.2963" ry="23.2963"/>
<text text-anchor="middle" x="243" y="-19.6979" font-family="Times,serif" font-size="14.00">add</text>
</g>
<!-- 1086607463082576218&#45;&gt;&#45;822888061053616485 -->
<g id="edge2" class="edge"><title>1086607463082576218&#45;&gt;&#45;822888061053616485</title>
<path fill="none" stroke="black" d="M243,-47.0198C243,-55.0716 243,-64.222 243,-72.6162"/>
<polygon fill="black" stroke="black" points="239.5,-72.7045 243,-82.7046 246.5,-72.7046 239.5,-72.7045"/>
</g>
<!-- 2966102570566711498 -->
<g id="node5" class="node"><title>2966102570566711498</title>
<polygon fill="none" stroke="black" points="333,-273.592 279,-273.592 279,-237.592 333,-237.592 333,-273.592"/>
<text text-anchor="middle" x="306" y="-251.892" font-family="Times,serif" font-size="14.00">add&#45;#2</text>
</g>
<!-- 5319367647874326015&#45;&gt;2966102570566711498 -->
<g id="edge3" class="edge"><title>5319367647874326015&#45;&gt;2966102570566711498</title>
<path fill="none" stroke="black" d="M306,-201.816C306,-209.867 306,-219.018 306,-227.412"/>
<polygon fill="black" stroke="black" points="302.5,-227.5 306,-237.5 309.5,-227.5 302.5,-227.5"/>
</g>
<!-- 9172590645198714092 -->
<g id="node7" class="node"><title>9172590645198714092</title>
<polygon fill="none" stroke="black" points="198,-118.796 144,-118.796 144,-82.7958 198,-82.7958 198,-118.796"/>
<text text-anchor="middle" x="171" y="-97.0958" font-family="Times,serif" font-size="14.00">add&#45;#3</text>
</g>
<!-- 9172590645198714092&#45;&gt;&#45;4291857937596190969 -->
<g id="edge9" class="edge"><title>9172590645198714092&#45;&gt;&#45;4291857937596190969</title>
<path fill="none" stroke="black" d="M183.253,-118.905C189.915,-128.205 198.303,-139.918 205.81,-150.4"/>
<polygon fill="black" stroke="black" points="203.183,-152.743 211.852,-158.835 208.874,-148.667 203.183,-152.743"/>
</g>
<!-- &#45;6544503500074353483 -->
<g id="node14" class="node"><title>&#45;6544503500074353483</title>
<ellipse fill="none" stroke="black" cx="135" cy="-178.194" rx="23.2963" ry="23.2963"/>
<text text-anchor="middle" x="135" y="-174.494" font-family="Times,serif" font-size="14.00">add</text>
</g>
<!-- 9172590645198714092&#45;&gt;&#45;6544503500074353483 -->
<g id="edge13" class="edge"><title>9172590645198714092&#45;&gt;&#45;6544503500074353483</title>
<path fill="none" stroke="black" d="M162.831,-118.905C158.817,-127.312 153.862,-137.69 149.25,-147.348"/>
<polygon fill="black" stroke="black" points="145.951,-146.135 144.801,-156.667 152.268,-149.151 145.951,-146.135"/>
</g>
<!-- 583784644147484609 -->
<g id="node8" class="node"><title>583784644147484609</title>
<ellipse fill="none" stroke="black" cx="171" cy="-23.3979" rx="23.2963" ry="23.2963"/>
<text text-anchor="middle" x="171" y="-19.6979" font-family="Times,serif" font-size="14.00">add</text>
</g>
<!-- 583784644147484609&#45;&gt;9172590645198714092 -->
<g id="edge6" class="edge"><title>583784644147484609&#45;&gt;9172590645198714092</title>
<path fill="none" stroke="black" d="M171,-47.0198C171,-55.0716 171,-64.222 171,-72.6162"/>
<polygon fill="black" stroke="black" points="167.5,-72.7045 171,-82.7046 174.5,-72.7046 167.5,-72.7045"/>
</g>
<!-- 3246674444454305426 -->
<g id="node9" class="node"><title>3246674444454305426</title>
<polygon fill="none" stroke="black" points="252,-273.592 198,-273.592 198,-237.592 252,-237.592 252,-273.592"/>
<text text-anchor="middle" x="225" y="-251.892" font-family="Times,serif" font-size="14.00">add&#45;#4</text>
</g>
<!-- &#45;4291857937596190969&#45;&gt;3246674444454305426 -->
<g id="edge7" class="edge"><title>&#45;4291857937596190969&#45;&gt;3246674444454305426</title>
<path fill="none" stroke="black" d="M225,-201.816C225,-209.867 225,-219.018 225,-227.412"/>
<polygon fill="black" stroke="black" points="221.5,-227.5 225,-237.5 228.5,-227.5 221.5,-227.5"/>
</g>
<!-- &#45;1482782779799836990 -->
<g id="node11" class="node"><title>&#45;1482782779799836990</title>
<polygon fill="none" stroke="black" points="126,-118.796 72,-118.796 72,-82.7958 126,-82.7958 126,-118.796"/>
<text text-anchor="middle" x="99" y="-97.0958" font-family="Times,serif" font-size="14.00">add&#45;#5</text>
</g>
<!-- &#45;1482782779799836990&#45;&gt;&#45;6544503500074353483 -->
<g id="edge12" class="edge"><title>&#45;1482782779799836990&#45;&gt;&#45;6544503500074353483</title>
<path fill="none" stroke="black" d="M107.169,-118.905C111.183,-127.312 116.138,-137.69 120.75,-147.348"/>
<polygon fill="black" stroke="black" points="117.732,-149.151 125.199,-156.667 124.049,-146.135 117.732,-149.151"/>
</g>
<!-- 7492979886209505496 -->
<g id="node18" class="node"><title>7492979886209505496</title>
<ellipse fill="none" stroke="black" cx="45" cy="-178.194" rx="23.2963" ry="23.2963"/>
<text text-anchor="middle" x="45" y="-174.494" font-family="Times,serif" font-size="14.00">add</text>
</g>
<!-- &#45;1482782779799836990&#45;&gt;7492979886209505496 -->
<g id="edge16" class="edge"><title>&#45;1482782779799836990&#45;&gt;7492979886209505496</title>
<path fill="none" stroke="black" d="M86.7466,-118.905C80.0854,-128.205 71.6969,-139.918 64.1898,-150.4"/>
<polygon fill="black" stroke="black" points="61.1256,-148.667 58.1484,-158.835 66.8166,-152.743 61.1256,-148.667"/>
</g>
<!-- 6385843330649572535 -->
<g id="node12" class="node"><title>6385843330649572535</title>
<ellipse fill="none" stroke="black" cx="99" cy="-23.3979" rx="23.2963" ry="23.2963"/>
<text text-anchor="middle" x="99" y="-19.6979" font-family="Times,serif" font-size="14.00">add</text>
</g>
<!-- 6385843330649572535&#45;&gt;&#45;1482782779799836990 -->
<g id="edge10" class="edge"><title>6385843330649572535&#45;&gt;&#45;1482782779799836990</title>
<path fill="none" stroke="black" d="M99,-47.0198C99,-55.0716 99,-64.222 99,-72.6162"/>
<polygon fill="black" stroke="black" points="95.5001,-72.7045 99,-82.7046 102.5,-72.7046 95.5001,-72.7045"/>
</g>
<!-- 6186642973450486584 -->
<g id="node13" class="node"><title>6186642973450486584</title>
<polygon fill="none" stroke="black" points="162,-273.592 108,-273.592 108,-237.592 162,-237.592 162,-273.592"/>
<text text-anchor="middle" x="135" y="-251.892" font-family="Times,serif" font-size="14.00">add&#45;#6</text>
</g>
<!-- &#45;6544503500074353483&#45;&gt;6186642973450486584 -->
<g id="edge11" class="edge"><title>&#45;6544503500074353483&#45;&gt;6186642973450486584</title>
<path fill="none" stroke="black" d="M135,-201.816C135,-209.867 135,-219.018 135,-227.412"/>
<polygon fill="black" stroke="black" points="131.5,-227.5 135,-237.5 138.5,-227.5 131.5,-227.5"/>
</g>
<!-- 4312931785672489652 -->
<g id="node15" class="node"><title>4312931785672489652</title>
<polygon fill="none" stroke="black" points="54,-118.796 0,-118.796 0,-82.7958 54,-82.7958 54,-118.796"/>
<text text-anchor="middle" x="27" y="-97.0958" font-family="Times,serif" font-size="14.00">add&#45;#7</text>
</g>
<!-- 4312931785672489652&#45;&gt;7492979886209505496 -->
<g id="edge17" class="edge"><title>4312931785672489652&#45;&gt;7492979886209505496</title>
<path fill="none" stroke="black" d="M31.0845,-118.905C32.9535,-126.734 35.2305,-136.271 37.3968,-145.346"/>
<polygon fill="black" stroke="black" points="34.0415,-146.364 39.768,-155.278 40.8501,-144.739 34.0415,-146.364"/>
</g>
<!-- &#45;5799590591126754743 -->
<g id="node16" class="node"><title>&#45;5799590591126754743</title>
<ellipse fill="none" stroke="black" cx="27" cy="-23.3979" rx="23.2963" ry="23.2963"/>
<text text-anchor="middle" x="27" y="-19.6979" font-family="Times,serif" font-size="14.00">add</text>
</g>
<!-- &#45;5799590591126754743&#45;&gt;4312931785672489652 -->
<g id="edge14" class="edge"><title>&#45;5799590591126754743&#45;&gt;4312931785672489652</title>
<path fill="none" stroke="black" d="M27,-47.0198C27,-55.0716 27,-64.222 27,-72.6162"/>
<polygon fill="black" stroke="black" points="23.5001,-72.7045 27,-82.7046 30.5001,-72.7046 23.5001,-72.7045"/>
</g>
<!-- &#45;7182877395404629447 -->
<g id="node17" class="node"><title>&#45;7182877395404629447</title>
<polygon fill="none" stroke="black" points="72,-273.592 18,-273.592 18,-237.592 72,-237.592 72,-273.592"/>
<text text-anchor="middle" x="45" y="-251.892" font-family="Times,serif" font-size="14.00">add&#45;#8</text>
</g>
<!-- 7492979886209505496&#45;&gt;&#45;7182877395404629447 -->
<g id="edge15" class="edge"><title>7492979886209505496&#45;&gt;&#45;7182877395404629447</title>
<path fill="none" stroke="black" d="M45,-201.816C45,-209.867 45,-219.018 45,-227.412"/>
<polygon fill="black" stroke="black" points="41.5001,-227.5 45,-237.5 48.5001,-227.5 41.5001,-227.5"/>
</g>
</g>
</svg>
