<?xml version="1.0" encoding="UTF-8" standalone="no"?>
<!-- Created with Inkscape (http://www.inkscape.org/) -->

<svg
   xmlns:dc="http://purl.org/dc/elements/1.1/"
   xmlns:cc="http://creativecommons.org/ns#"
   xmlns:rdf="http://www.w3.org/1999/02/22-rdf-syntax-ns#"
   xmlns:svg="http://www.w3.org/2000/svg"
   xmlns="http://www.w3.org/2000/svg"
   version="1.1"
   width="209.73837"
   height="312.28882"
   id="svg2">
  <defs
     id="defs4" />
  <metadata
     id="metadata7">
    <rdf:RDF>
      <cc:Work
         rdf:about="">
        <dc:format>image/svg+xml</dc:format>
        <dc:type
           rdf:resource="http://purl.org/dc/dcmitype/StillImage" />
        <dc:title></dc:title>
      </cc:Work>
    </rdf:RDF>
  </metadata>
  <g
     transform="translate(-8.1642506,-320.58618)"
     id="layer1">
    <path
       d="m 30,362.36218 c 0,60 0,60 0,60"
       id="path2987"
       style="fill:none;stroke:#000000;stroke-width:1px;stroke-linecap:butt;stroke-linejoin:miter;stroke-opacity:1" />
    <path
       d="m 60,362.36218 c 0,60 0,60 0,60"
       id="path2987-5"
       style="fill:none;stroke:#000000;stroke-width:1px;stroke-linecap:butt;stroke-linejoin:miter;stroke-opacity:1" />
    <path
       d="m 30,422.36218 c 30,0 30,0 30,0"
       id="path3029"
       style="fill:none;stroke:#000000;stroke-width:1px;stroke-linecap:butt;stroke-linejoin:miter;stroke-opacity:1" />
    <path
       d="m 30,362.36218 c 30,0 30,0 30,0"
       id="path3031"
       style="fill:none;stroke:#000000;stroke-width:1px;stroke-linecap:butt;stroke-linejoin:miter;stroke-opacity:1" />
    <path
       d="m 30,432.36218 c 0,60 0,60 0,60"
       id="path2987-0"
       style="fill:none;stroke:#000000;stroke-width:1px;stroke-linecap:butt;stroke-linejoin:miter;stroke-opacity:1" />
    <path
       d="m 60,432.36218 c 0,60 0,60 0,60"
       id="path2987-5-0"
       style="fill:none;stroke:#000000;stroke-width:1px;stroke-linecap:butt;stroke-linejoin:miter;stroke-opacity:1" />
    <path
       d="m 30,492.36218 c 30,0 30,0 30,0"
       id="path3029-4"
       style="fill:none;stroke:#000000;stroke-width:1px;stroke-linecap:butt;stroke-linejoin:miter;stroke-opacity:1" />
    <path
       d="m 30,432.36218 c 30,0 30,0 30,0"
       id="path3031-0"
       style="fill:none;stroke:#000000;stroke-width:1px;stroke-linecap:butt;stroke-linejoin:miter;stroke-opacity:1" />
    <path
       d="m 30,503.07647 c 0,60 0,60 0,60"
       id="path2987-00"
       style="fill:none;stroke:#000000;stroke-width:1px;stroke-linecap:butt;stroke-linejoin:miter;stroke-opacity:1" />
    <path
       d="m 60,503.07647 c 0,60 0,60 0,60"
       id="path2987-5-1"
       style="fill:none;stroke:#000000;stroke-width:1px;stroke-linecap:butt;stroke-linejoin:miter;stroke-opacity:1" />
    <path
       d="m 30,563.07647 c 30,0 30,0 30,0"
       id="path3029-0"
       style="fill:none;stroke:#000000;stroke-width:1px;stroke-linecap:butt;stroke-linejoin:miter;stroke-opacity:1" />
    <path
       d="m 30,503.07647 c 30,0 30,0 30,0"
       id="path3031-7"
       style="fill:none;stroke:#000000;stroke-width:1px;stroke-linecap:butt;stroke-linejoin:miter;stroke-opacity:1" />
    <path
       d="m 30,572.36218 c 0,60 0,60 0,60"
       id="path2987-57"
       style="fill:none;stroke:#000000;stroke-width:1px;stroke-linecap:butt;stroke-linejoin:miter;stroke-opacity:1" />
    <path
       d="m 60,572.36218 c 0,60 0,60 0,60"
       id="path2987-5-7"
       style="fill:none;stroke:#000000;stroke-width:1px;stroke-linecap:butt;stroke-linejoin:miter;stroke-opacity:1" />
    <path
       d="m 30,632.36218 c 30,0 30,0 30,0"
       id="path3029-1"
       style="fill:none;stroke:#000000;stroke-width:1px;stroke-linecap:butt;stroke-linejoin:miter;stroke-opacity:1" />
    <path
       d="m 30,572.36218 c 30,0 30,0 30,0"
       id="path3031-5"
       style="fill:none;stroke:#000000;stroke-width:1px;stroke-linecap:butt;stroke-linejoin:miter;stroke-opacity:1" />
    <path
       d="m 170,362.36218 c 0,60 0,60 0,60"
       id="path2987-2"
       style="fill:none;stroke:#000000;stroke-width:1px;stroke-linecap:butt;stroke-linejoin:miter;stroke-opacity:1" />
    <path
       d="m 200,362.36218 c 0,60 0,60 0,60"
       id="path2987-5-14"
       style="fill:none;stroke:#000000;stroke-width:1px;stroke-linecap:butt;stroke-linejoin:miter;stroke-opacity:1" />
    <path
       d="m 170,422.36218 c 30,0 30,0 30,0"
       id="path3029-2"
       style="fill:none;stroke:#000000;stroke-width:1px;stroke-linecap:butt;stroke-linejoin:miter;stroke-opacity:1" />
    <path
       d="m 170,362.36218 c 30,0 30,0 30,0"
       id="path3031-3"
       style="fill:none;stroke:#000000;stroke-width:1px;stroke-linecap:butt;stroke-linejoin:miter;stroke-opacity:1" />
    <path
       d="m 170,432.36218 c 0,60 0,60 0,60"
       id="path2987-0-0"
       style="fill:none;stroke:#000000;stroke-width:1px;stroke-linecap:butt;stroke-linejoin:miter;stroke-opacity:1" />
    <path
       d="m 200,432.36218 c 0,60 0,60 0,60"
       id="path2987-5-0-1"
       style="fill:none;stroke:#000000;stroke-width:1px;stroke-linecap:butt;stroke-linejoin:miter;stroke-opacity:1" />
    <path
       d="m 170,492.36218 c 30,0 30,0 30,0"
       id="path3029-4-0"
       style="fill:none;stroke:#000000;stroke-width:1px;stroke-linecap:butt;stroke-linejoin:miter;stroke-opacity:1" />
    <path
       d="m 170,432.36218 c 30,0 30,0 30,0"
       id="path3031-0-0"
       style="fill:none;stroke:#000000;stroke-width:1px;stroke-linecap:butt;stroke-linejoin:miter;stroke-opacity:1" />
    <path
       d="m 170,503.07647 c 0,60 0,60 0,60"
       id="path2987-00-6"
       style="fill:none;stroke:#000000;stroke-width:1px;stroke-linecap:butt;stroke-linejoin:miter;stroke-opacity:1" />
    <path
       d="m 200,503.07647 c 0,60 0,60 0,60"
       id="path2987-5-1-2"
       style="fill:none;stroke:#000000;stroke-width:1px;stroke-linecap:butt;stroke-linejoin:miter;stroke-opacity:1" />
    <path
       d="m 170,563.07647 c 30,0 30,0 30,0"
       id="path3029-0-0"
       style="fill:none;stroke:#000000;stroke-width:1px;stroke-linecap:butt;stroke-linejoin:miter;stroke-opacity:1" />
    <path
       d="m 170,503.07647 c 30,0 30,0 30,0"
       id="path3031-7-0"
       style="fill:none;stroke:#000000;stroke-width:1px;stroke-linecap:butt;stroke-linejoin:miter;stroke-opacity:1" />
    <path
       d="m 170,572.36218 c 0,60 0,60 0,60"
       id="path2987-57-4"
       style="fill:none;stroke:#000000;stroke-width:1px;stroke-linecap:butt;stroke-linejoin:miter;stroke-opacity:1" />
    <path
       d="m 200,572.36218 c 0,60 0,60 0,60"
       id="path2987-5-7-2"
       style="fill:none;stroke:#000000;stroke-width:1px;stroke-linecap:butt;stroke-linejoin:miter;stroke-opacity:1" />
    <path
       d="m 170,632.36218 c 30,0 30,0 30,0"
       id="path3029-1-3"
       style="fill:none;stroke:#000000;stroke-width:1px;stroke-linecap:butt;stroke-linejoin:miter;stroke-opacity:1" />
    <path
       d="m 170,572.36218 c 30,0 30,0 30,0"
       id="path3031-5-7"
       style="fill:none;stroke:#000000;stroke-width:1px;stroke-linecap:butt;stroke-linejoin:miter;stroke-opacity:1" />
    <path
       d="m 60.506937,443.35869 c 1.124619,-0.59685 2.210575,-1.26138 3.324447,-1.87618 0.757821,-0.55239 1.657208,-0.88161 2.44512,-1.37456 0.455834,-0.28068 0.885575,-0.59681 1.294644,-0.94346 0.668538,-0.5041 1.323579,-1.02201 1.949105,-1.57861 0.473033,-0.42049 0.974199,-0.80851 1.377459,-1.30047 0.674859,-0.79537 1.288609,-1.63876 1.943969,-2.44996 0.645675,-0.84615 1.322275,-1.66632 1.955684,-2.52146 0.636335,-0.82559 1.290358,-1.63764 1.918215,-2.46982 0.73103,-0.9537 1.391458,-1.95823 2.09344,-2.93294 0.741911,-0.99846 1.492609,-1.98821 2.299113,-2.93562 0.776236,-0.80733 1.45618,-1.69585 2.1778,-2.54982 0.933013,-1.09098 1.920825,-2.13006 2.989631,-3.08853 0.895362,-0.75401 1.780168,-1.51975 2.635787,-2.31866 1.087724,-0.95734 2.209774,-1.87664 3.279313,-2.85421 1.197794,-1.10422 2.398564,-2.2014 3.644323,-3.25221 1.30482,-1.17113 2.687926,-2.25097 4.006148,-3.4059 1.240395,-1.09756 2.477585,-2.19759 3.735385,-3.27582 1.31319,-1.13259 2.63117,-2.25995 3.96554,-3.36758 1.13946,-0.91827 2.22968,-1.89362 3.29108,-2.90035 0.98944,-0.91411 1.85764,-1.94456 2.80033,-2.90519 1.25363,-1.25351 2.62639,-2.38 4.06147,-3.41807 0.95695,-0.69436 1.94759,-1.33996 2.91688,-2.0164 1.60983,-1.00734 3.20244,-2.04202 4.82424,-3.03022 1.52265,-0.89388 3.02336,-1.82061 4.57253,-2.66779 1.37213,-0.77165 2.73063,-1.56319 4.12793,-2.29087 2.10166,-1.08378 4.29119,-1.98101 6.48466,-2.85871 1.40572,-0.54586 2.80774,-1.10201 4.20182,-1.67634 1.37825,-0.66358 2.75662,-1.31408 4.16943,-1.90421 1.81112,-0.78661 3.71205,-1.31701 5.65204,-1.66345 0.91973,-0.25074 1.86519,-0.3531 2.80273,-0.50292 1.3548,-0.24892 2.71457,-0.44804 4.08519,-0.59054 1.3274,-0.11706 2.66005,-0.14883 3.9918,-0.16746 0.96236,0.0462 1.90286,-0.13148 2.86409,-0.1313 0.27904,0.0359 0.55808,0.0718 0.83711,0.1077 0,0 -1.12221,6.26177 -1.12221,6.26177 l 0,0 c 0.0568,-0.004 0.1136,-0.008 0.17039,-0.0118 -0.89235,-0.0693 -1.79681,0.19295 -2.69718,0.0945 -1.14308,0.002 -2.2876,0.0117 -3.42751,0.10591 -1.2426,0.11402 -2.46303,0.33102 -3.68448,0.58263 -0.93788,0.15402 -1.88238,0.26495 -2.81184,0.47147 -1.46079,0.20079 -2.88692,0.57749 -4.23296,1.19028 -1.44713,0.61867 -2.82523,1.36233 -4.25247,2.02102 -1.40806,0.54982 -2.82927,1.0654 -4.25028,1.58109 -1.98987,0.78731 -3.98559,1.57778 -5.86506,2.60898 -1.37747,0.74011 -2.7005,1.57155 -4.07328,2.3183 -1.45845,0.76397 -2.87227,1.60472 -4.29534,2.433 -1.49599,0.91816 -2.95674,1.89084 -4.42322,2.85503 -0.96783,0.69663 -1.96028,1.35851 -2.94502,2.03093 -1.15403,0.77525 -2.22674,1.67489 -3.2081,2.65907 -1.00817,1.02633 -1.8888,2.17517 -2.97659,3.12396 -1.16727,1.07116 -2.36304,2.11156 -3.59951,3.10244 -1.31241,1.08582 -2.59431,2.20826 -3.87943,3.32603 -1.24909,1.06234 -2.47908,2.14485 -3.71394,3.22321 -1.34492,1.159 -2.71789,2.28547 -4.048901,3.46105 -1.183157,1.01166 -2.327371,2.06315 -3.471596,3.11816 -1.051298,0.95525 -2.129132,1.88097 -3.195638,2.81938 -0.8944,0.83892 -1.811044,1.65122 -2.761436,2.42665 -0.856896,0.74791 -1.620725,1.58739 -2.360268,2.44969 -0.731969,0.86272 -1.394741,1.7853 -2.1944,2.59068 -0.702981,0.81152 -1.345983,1.66807 -1.990578,2.5261 -0.728032,0.99371 -1.392532,2.03265 -2.141437,3.01138 -0.621877,0.83652 -1.264761,1.65739 -1.90728,2.47804 -0.691122,0.91546 -1.430785,1.79167 -2.117418,2.71079 -0.689328,0.84504 -1.318113,1.73646 -2.017635,2.57341 -0.615128,0.71669 -1.286572,1.36534 -2.016201,1.9639 -0.657238,0.57339 -1.33265,1.12667 -2.035482,1.64355 -0.7542,0.64221 -1.547069,1.22837 -2.409728,1.71866 -0.819981,0.4172 -1.646391,0.8191 -2.431147,1.30529 -1.083319,0.57147 -2.132686,1.2185 -3.175637,1.8597 0,0 -3.155641,-5.52237 -3.155641,-5.52237 z"
       id="path3282"
       style="opacity:0.6;fill:#0000ff;fill-opacity:0.50196078;stroke:#000000;stroke-width:2.5;stroke-linecap:round;stroke-miterlimit:4;stroke-opacity:0.42465754;stroke-dasharray:none;stroke-dashoffset:0" />
    <path
       d="m 62.804451,453.44953 c 1.599796,-0.1158 3.185877,-0.38478 4.76638,-0.65129 2.239329,-0.33672 4.4866,-0.6333 6.742,-0.84066 1.986178,-0.13582 3.976698,-0.23614 5.955945,-0.45553 1.757633,-0.15439 3.497002,-0.44994 5.249677,-0.64595 1.704573,-0.19116 3.407076,-0.36111 5.121453,-0.4375 2.220526,-0.0849 4.445811,-0.18401 6.659359,-0.38556 1.686546,-0.18539 3.374525,-0.34366 5.069785,-0.41685 1.64023,-0.0483 3.28179,-0.0333 4.92253,-0.0257 1.82956,0.0572 3.652,-0.0239 5.47622,-0.15077 1.60862,-0.13027 3.22171,-0.2684 4.82221,-0.47946 1.8123,-0.26367 3.64402,-0.32928 5.46784,-0.47592 2.13161,-0.15767 4.25753,-0.3867 6.38174,-0.62282 2.11233,-0.29964 4.2339,-0.52523 6.34472,-0.83567 2.11588,-0.24655 4.22538,-0.52717 6.32735,-0.87269 1.70864,-0.23986 3.40919,-0.53274 5.11412,-0.79694 1.79758,-0.22898 3.60576,-0.37128 5.41068,-0.53614 1.39199,-0.1325 2.78851,-0.21229 4.18586,-0.25831 0.67073,-0.024 1.34223,-0.0402 2.01338,-0.0291 0.94171,0.0168 1.88345,0.0234 2.82529,0.0281 0.86697,0.0914 1.79542,-0.16767 2.65206,0.0539 0.40871,0.10572 0.79351,0.28853 1.19026,0.4328 0.65181,0.45187 0.39921,0.33729 0.52192,0.29459 0,0 -1.84904,6.06036 -1.84904,6.06036 l 0,0 c -0.64119,-0.21 -1.26548,-0.3958 -1.82069,-0.7924 -0.0422,-0.0301 0.0926,0.0467 0.13891,0.07 0.26984,0.0765 0.53497,0.17214 0.80953,0.22941 0.0777,0.0162 0.31592,0.002 0.23773,-0.011 -0.61285,-0.105 -1.26711,0.0483 -1.88295,-0.0212 -0.9451,0.004 -1.8901,0.0101 -2.83513,0.023 -0.62174,0.008 -1.24348,-0.01 -1.86528,-0.009 -1.25544,0.0108 -2.51077,0.0485 -3.76225,0.15468 -1.66847,0.14737 -3.33788,0.29979 -5.00034,0.50145 -1.70203,0.26983 -3.4055,0.53037 -5.11236,0.76801 -2.12819,0.32157 -4.26208,0.59139 -6.39754,0.85884 -2.18293,0.31922 -4.37602,0.55715 -6.56083,0.86275 -2.17856,0.24144 -4.35877,0.47372 -6.54377,0.64834 -1.73812,0.15365 -3.48127,0.26129 -5.21057,0.49953 -1.7263,0.20826 -3.4622,0.36407 -5.19601,0.48909 -1.95917,0.11969 -3.91672,0.21038 -5.88047,0.16654 -1.55809,0.009 -3.11638,0.0123 -4.67389,0.0604 -1.60459,0.0582 -3.20576,0.17323 -4.804163,0.32594 -2.280179,0.17578 -4.566391,0.28367 -6.849172,0.41916 -1.599258,0.0987 -3.186455,0.28839 -4.780011,0.44714 -1.756834,0.17872 -3.501714,0.45684 -5.261604,0.6092 -2.015954,0.2054 -4.037979,0.34014 -6.061143,0.44913 -2.086073,0.17879 -4.163028,0.44912 -6.229415,0.78579 -1.676657,0.29763 -3.357214,0.57224 -5.04141,0.82372 0,0 -0.788911,-6.31129 -0.788911,-6.31129 z"
       id="path3284"
       style="opacity:0.6;fill:#0000ff;fill-opacity:0.50196078;stroke:#000000;stroke-width:2.5;stroke-linecap:round;stroke-miterlimit:4;stroke-opacity:0.42465754;stroke-dasharray:none;stroke-dashoffset:0" />
    <path
       d="m 64.270335,461.32458 c 1.875392,0.0203 3.745188,0.14326 5.616846,0.2548 3.430975,0.13957 6.849443,0.4444 10.266197,0.7737 3.313,0.25474 6.54239,1.0142 9.68572,2.06154 2.534658,0.9378 4.92299,2.23381 7.248093,3.60138 2.336471,1.2938 4.270859,3.09537 6.060979,5.05008 1.40406,1.64258 2.62753,3.42653 3.9419,5.1403 1.0455,1.32782 1.86971,2.8021 2.56532,4.33688 0.55422,1.3264 1.04934,2.68077 1.7209,3.95387 0.66895,1.3324 1.53392,2.54328 2.35813,3.78 1.00311,1.52095 1.98197,3.05632 3.09234,4.50224 1.2711,1.5086 2.58999,2.97231 3.8469,4.49363 1.25354,1.57399 2.46946,3.17555 3.77881,4.70406 1.22479,1.33318 2.60093,2.51027 3.90621,3.76108 1.37164,1.22406 2.71882,2.47434 4.04597,3.74639 1.4003,1.20164 2.76631,2.44712 4.19595,3.61429 1.18562,1.00665 2.43557,1.93238 3.64475,2.90966 0.74105,0.47784 1.38316,1.10195 2.11718,1.5865 0.45347,0.36971 0.68068,0.53343 1.1844,0.80006 -0.4478,-0.27426 0.63293,0.358 0.86753,0.40291 0.51626,0.12022 1.00809,0.34133 1.53266,0.42588 0.8047,0.23636 1.63436,0.34384 2.45463,0.50327 0.9312,0.16645 1.84769,0.40248 2.7829,0.54692 0.77649,0.10675 1.56125,0.11535 2.34344,0.13198 0.94719,0.0303 1.88737,0.0283 2.8293,-0.0688 1.06482,-0.1386 2.13304,-0.22624 3.20609,-0.25714 1.40065,-0.13813 2.80532,-0.22094 4.21061,-0.29391 1.16809,-0.0305 2.32483,-0.21883 3.48637,-0.33658 0.59536,0.0263 1.09944,-0.13721 1.66246,-0.26971 -0.14399,-0.0533 1.51801,-0.21665 1.15049,-0.21013 0,0 0.84613,6.36267 0.84613,6.36267 l 0,0 c -0.22594,0.0179 -0.36241,0.009 -0.5839,0.0666 -0.82413,0.17604 -1.64742,0.35389 -2.49547,0.3541 -1.25947,0.10181 -2.51282,0.29026 -3.77777,0.30939 -1.43251,0.0564 -2.85826,0.17999 -4.28255,0.34263 -0.92471,0.038 -1.84806,0.10069 -2.76715,0.21262 -1.19422,0.12573 -2.38876,0.15025 -3.58909,0.12698 -1.08898,-0.0136 -2.17851,-0.0704 -3.25789,-0.22225 -0.99816,-0.16876 -1.98336,-0.39621 -2.98019,-0.57006 -0.8082,-0.15972 -1.63066,-0.25346 -2.42348,-0.48947 -0.84885,-0.16743 -1.67273,-0.4196 -2.49774,-0.67773 -0.85592,-0.31835 -1.40019,-0.59705 -1.90058,-0.85972 -0.5989,-0.35692 -1.20548,-0.72678 -1.73061,-1.18602 -0.80817,-0.60434 -1.57548,-1.26248 -2.38707,-1.8632 -1.19741,-1.00258 -2.43996,-1.94956 -3.62903,-2.96241 -1.52979,-1.2792 -3.01261,-2.6156 -4.5211,-3.91914 -1.33552,-1.27142 -2.7001,-2.51052 -4.06582,-3.74928 -1.44874,-1.39461 -2.97228,-2.71451 -4.30784,-4.22272 -1.32841,-1.55532 -2.58636,-3.16651 -3.84526,-4.77827 -1.30989,-1.57861 -2.68866,-3.09455 -3.99548,-4.6752 -1.19122,-1.55691 -2.26732,-3.19173 -3.36568,-4.81447 -0.94849,-1.42341 -1.92556,-2.82783 -2.69952,-4.35854 -0.72261,-1.39582 -1.3269,-2.84438 -1.91105,-4.30311 -0.47249,-1.11118 -1.10568,-2.15582 -1.81682,-3.12977 -1.16397,-1.58049 -2.273965,-3.20281 -3.519457,-4.72053 -1.371612,-1.51159 -2.834807,-2.91435 -4.642448,-3.90289 -1.946095,-1.16835 -3.959527,-2.25288 -6.072677,-3.08781 -2.681498,-0.93373 -5.437645,-1.62887 -8.277714,-1.86 -3.322143,-0.31488 -6.647085,-0.60615 -9.986889,-0.63799 -1.772377,-0.0659 -3.545546,-0.17689 -5.31893,-0.0687 0,0 0,-6.36092 0,-6.36092 z"
       id="path3286"
       style="opacity:0.6;fill:#0000ff;fill-opacity:0.50196078;stroke:#000000;stroke-width:2.5;stroke-linecap:round;stroke-miterlimit:4;stroke-opacity:0.42465754;stroke-dasharray:none;stroke-dashoffset:0" />
    <path
       d="m 65.102191,472.60089 c 1.465833,0.34456 2.96076,0.5576 4.436313,0.86857 2.648,0.48887 4.809035,1.38855 7.113625,2.75287 2.085518,1.2776 3.809252,2.98913 5.373208,4.84771 1.656839,1.9805 3.193756,4.05663 4.634478,6.19835 1.489453,2.38418 2.958437,4.78013 4.737151,6.96179 1.802004,2.21078 3.827986,4.22071 5.668834,6.39699 1.92876,2.31523 3.5069,4.892 4.84659,7.58403 1.04945,2.28831 1.86909,4.67024 2.86691,6.98072 0.89074,1.95731 1.96914,3.81957 3.05314,5.67399 1.09266,1.8792 2.11461,3.79218 3.02576,5.76606 0.76699,2.01322 1.45944,4.06001 2.0891,6.12072 0.48052,1.90091 1.17067,3.73048 1.87415,5.55662 0.87044,2.12229 1.64112,4.28729 2.54184,6.39684 0.80721,1.91421 1.74791,3.7715 2.81636,5.55265 1.03499,1.68113 2.16242,3.30344 3.31177,4.90785 1.12236,1.46722 2.2314,2.94537 3.39779,4.37809 1.06826,1.26568 2.18642,2.48657 3.28777,3.72316 1.06969,1.32056 2.18068,2.59661 3.39481,3.78551 1.19727,1.15372 2.44255,2.25777 3.7196,3.32233 1.47554,1.15995 2.78622,2.50375 4.18083,3.75451 1.23505,1.02197 2.47822,2.03061 3.81871,2.91148 1.27617,0.81676 2.57631,1.58373 3.80378,2.47394 1.10985,0.81081 2.26588,1.56669 3.46154,2.24468 1.2993,0.86252 2.75239,1.4302 4.17558,2.04809 1.39474,0.60093 2.79908,1.17653 4.18082,1.80772 1.24787,0.50569 2.50108,0.99723 3.78191,1.41348 1.06778,0.27695 2.1175,0.61362 3.17319,0.93197 0.0853,0.0218 0.17227,0.0378 0.25585,0.0654 0.57313,0.1894 1.39091,0.54552 1.13909,0.42107 0.47287,-0.008 1.07434,0.0881 1.5864,0.16781 0.85669,0.0933 1.7002,0.24836 2.54481,0.41669 0.9088,0.15157 1.79399,0.41333 2.64132,0.77214 0.70744,0.40467 1.43116,0.86127 1.83393,1.6096 0.21918,0.40722 0.33083,0.86374 0.49624,1.2956 0,0 -6.27924,1.22055 -6.27924,1.22055 l 0,0 c 0.33297,0.75036 0.54738,1.39413 1.34602,1.69174 -0.37897,-0.2152 -0.86861,-0.27291 -1.29993,-0.36376 -0.74186,-0.15238 -1.47756,-0.29437 -2.23357,-0.36736 -0.72268,-0.10519 -1.45957,-0.0696 -2.17287,-0.24947 -0.65274,-0.17928 -1.22178,-0.44724 -1.80577,-0.64229 -1.06186,-0.36509 -2.13411,-0.68993 -3.21366,-0.99924 -1.48501,-0.50317 -2.94906,-1.06634 -4.39735,-1.66723 -1.35087,-0.6132 -2.72257,-1.17736 -4.07799,-1.78022 -1.6346,-0.71363 -3.2941,-1.3913 -4.80349,-2.35399 -1.38849,-0.80661 -2.7603,-1.65068 -4.04928,-2.61056 -1.14016,-0.84736 -2.38682,-1.52526 -3.55842,-2.32699 -1.57868,-1.0593 -3.05121,-2.25502 -4.50813,-3.47506 -1.34771,-1.20084 -2.60173,-2.50422 -4.03138,-3.61294 -1.39935,-1.17292 -2.78159,-2.36941 -4.0787,-3.65574 -1.31307,-1.28522 -2.54204,-2.64532 -3.6959,-4.07595 -1.1691,-1.30446 -2.3406,-2.60699 -3.45881,-3.95566 -1.2492,-1.53526 -2.4325,-3.12213 -3.62547,-4.70118 -1.2466,-1.75298 -2.4749,-3.52059 -3.59617,-5.35726 -1.19117,-2.03475 -2.26599,-4.13832 -3.1731,-6.31599 -0.90451,-2.17243 -1.72738,-4.37921 -2.62543,-6.55445 -0.76925,-1.97008 -1.52521,-3.94416 -2.04676,-5.99803 -0.53579,-1.79157 -1.15094,-3.5619 -1.77757,-5.32329 -0.82552,-1.79906 -1.75887,-3.5376 -2.74842,-5.2516 -1.19325,-2.07504 -2.3826,-4.15596 -3.361328,-6.34372 -0.95142,-2.21574 -1.750481,-4.49055 -2.712414,-6.7013 -1.099026,-2.25585 -2.406882,-4.41338 -4.01021,-6.35015 -1.863661,-2.21592 -3.947704,-4.23637 -5.750991,-6.50558 -1.864697,-2.3326 -3.489022,-4.82907 -5.069065,-7.36135 -1.328005,-1.95441 -2.736737,-3.85524 -4.280558,-5.6459 -1.122285,-1.33066 -2.331728,-2.59059 -3.814237,-3.52705 -1.603387,-0.98194 -3.29165,-1.68834 -5.163152,-1.9853 -1.640623,-0.32361 -3.302415,-0.49926 -4.939007,-0.84069 0,0 1.749153,-6.12203 1.749153,-6.12203 z"
       id="path3288"
       style="opacity:0.6;fill:#0000ff;fill-opacity:0.50196078;stroke:#000000;stroke-width:2.5;stroke-linecap:round;stroke-miterlimit:4;stroke-opacity:0.42465754;stroke-dasharray:none;stroke-dashoffset:0" />
    <path
       d="m 59.627478,583.11029 c 1.088247,0.0406 2.177728,0.0231 3.266435,0.0145 0.835328,-0.011 1.670647,-0.008 2.505996,-0.006 0.791397,-6.3e-4 1.58279,-0.004 2.374186,-0.005 0.03969,-0.0514 0.547662,-0.11413 0.568724,-0.11926 0.02843,-0.007 -0.05843,-0.003 -0.08765,-0.005 0.06332,-0.023 0.126639,-0.046 0.189959,-0.0689 0.0013,-0.006 0.0026,-0.0119 0.004,-0.0179 0.283148,-0.18408 0.337968,-0.25915 0.70517,-0.5347 -0.0132,0.005 -0.04728,0.0283 -0.0396,0.0163 0.0674,-0.10551 0.180462,-0.17382 0.265244,-0.26595 0.208902,-0.22701 0.390714,-0.48482 0.574306,-0.73214 0.68281,-1.01567 1.294308,-2.07713 1.924448,-3.12574 0.557502,-1.14767 1.157365,-2.2743 1.718409,-3.42015 0.772453,-1.6492 1.533794,-3.30361 2.29096,-4.96001 0.716257,-1.56947 1.393815,-3.15428 2.063149,-4.74404 0.666495,-1.6958 1.422088,-3.35186 2.176588,-5.00953 0.775506,-1.76986 1.744285,-3.44595 2.660624,-5.14489 0.813375,-1.55776 1.654674,-3.0993 2.38165,-4.70007 0.930529,-2.11049 2.018616,-4.14452 2.974684,-6.24258 1.028354,-2.10979 1.918485,-4.28003 2.741771,-6.47655 0.799237,-2.22993 1.500694,-4.49001 2.329016,-6.70976 0.826428,-2.14347 1.75126,-4.23978 2.492711,-6.41525 0.662928,-1.9898 1.160784,-4.03118 1.715676,-6.05326 0.61719,-2.41983 1.425457,-4.77702 2.257102,-7.12908 0.836984,-2.31916 1.557634,-4.6776 2.361614,-7.00771 0.90886,-2.6752 1.71714,-5.3816 2.66809,-8.0428 1.00919,-2.794 2.26767,-5.4799 3.51668,-8.17098 1.1374,-2.30814 2.13646,-4.67946 3.16476,-7.03709 0.96075,-2.30661 2.05768,-4.55482 3.16355,-6.79477 1.04638,-2.23333 2.04901,-4.48745 3.07185,-6.732 0.97564,-1.92925 1.85634,-3.90396 2.71304,-5.88823 1.13404,-2.42384 2.18491,-4.8828 3.20715,-7.35542 1.06746,-2.62305 1.92355,-5.32404 2.81312,-8.01064 0.98031,-2.86178 2.12866,-5.66167 3.18283,-8.49627 0.832,-2.28166 1.44506,-4.6349 2.16239,-6.95411 0.60575,-2.17189 1.51231,-4.23584 2.35472,-6.32161 0.91424,-2.02648 1.73354,-4.09257 2.5722,-6.15076 0.71505,-1.85924 1.50002,-3.6818 2.44346,-5.4363 0.97753,-1.78117 2.42373,-3.22284 3.77795,-4.71408 1.20505,-1.23018 2.43108,-2.44482 3.71947,-3.58802 1.11814,-1.06573 2.30494,-2.05661 3.52992,-2.9965 1.03891,-0.83296 2.23381,-1.44056 3.32241,-2.19643 0.79066,-0.53299 1.60339,-1.02058 2.45462,-1.45135 1.07308,-0.49118 2.15752,-0.95896 3.24886,-1.40756 0.916,-0.41023 1.84704,-0.78286 2.77206,-1.17097 0.75067,-0.37415 1.57032,-0.56322 2.3798,-0.76064 0.85342,-0.14233 1.68733,-0.36792 2.53692,-0.52996 0.45416,-0.0807 0.90833,-0.16293 1.36542,-0.22557 0.67137,-0.0757 1.48094,-0.14167 -1.54947,0.62873 -0.20973,0.0533 0.35319,-0.25422 0.5487,-0.34699 0.70642,-0.33524 0.84051,-0.31888 1.54302,-0.44816 1.15482,-0.042 0.62737,-0.0515 1.58261,0.001 0,0 -0.35446,6.32703 -0.35446,6.32703 l 0,0 c -0.3189,-0.0186 -0.37207,0.0123 -0.17757,-0.05 0.1712,-0.0678 0.33737,-0.13272 0.50329,-0.22384 0.11901,-0.0654 0.46514,-0.27287 0.3364,-0.22972 -0.62622,0.20988 -1.22853,0.48534 -1.84047,0.7338 -0.0171,0.007 0.0449,-10e-4 0.0548,-0.009 -0.28785,0.005 -0.57391,0.0493 -0.85857,0.0895 -0.72238,0.12557 -1.4276,0.33404 -2.15224,0.44816 -0.51636,0.1345 -1.03618,0.23861 -1.52087,0.46854 -0.93082,0.37343 -1.86529,0.73659 -2.78361,1.14168 -0.95053,0.3839 -1.88703,0.80688 -2.81419,1.24385 -0.65644,0.31267 -1.23481,0.73422 -1.85763,1.10682 -0.98449,0.60577 -2.00639,1.15296 -2.92948,1.8553 -1.11777,0.84645 -2.17689,1.76404 -3.19408,2.72901 -1.12271,0.96897 -2.18066,2.01324 -3.23355,3.05672 -1.01482,1.12349 -2.12579,2.19421 -2.91021,3.49797 -0.85092,1.55684 -1.54414,3.18424 -2.19314,4.83522 -0.85328,2.03175 -1.6627,4.08177 -2.55876,6.09551 -0.77706,1.93195 -1.62938,3.83707 -2.19102,5.84743 -0.76255,2.42396 -1.44781,4.87501 -2.33886,7.25593 -1.03614,2.75648 -2.15814,5.48169 -3.10379,8.27161 -0.931,2.82465 -1.83597,5.66044 -2.96335,8.41502 -1.01962,2.50425 -2.06079,4.99874 -3.18586,7.45789 -0.86616,2.05129 -1.76574,4.09012 -2.78096,6.07285 -1.07379,2.26616 -2.10815,4.55003 -3.16195,6.82501 -1.05136,2.17184 -2.1024,4.34616 -3.03935,6.57022 -1.05601,2.3942 -2.09266,4.79764 -3.25748,7.14188 -1.17384,2.52271 -2.36611,5.03648 -3.30811,7.65898 -0.95091,2.62819 -1.72548,5.31253 -2.60683,7.9639 -0.79673,2.35017 -1.52526,4.72328 -2.37273,7.05643 -0.7726,2.21498 -1.5455,4.42637 -2.10564,6.70792 -0.58208,2.16124 -1.09541,4.34603 -1.83103,6.46188 -0.78029,2.21376 -1.70483,4.36411 -2.561285,6.54829 -0.833184,2.22349 -1.520468,4.49384 -2.329583,6.72581 -0.879154,2.32293 -1.831239,4.61641 -2.912809,6.85346 -0.951087,2.09208 -2.00876,4.1324 -2.925173,6.2407 -0.781859,1.74494 -1.663837,3.43939 -2.561417,5.12701 -0.853048,1.55964 -1.762881,3.09428 -2.478396,4.72384 -0.725209,1.61767 -1.442893,3.23668 -2.080753,4.89159 -0.70133,1.64424 -1.443926,3.26789 -2.174457,4.89923 -0.778871,1.68629 -1.529656,3.38515 -2.295742,5.07706 -0.631143,1.33344 -1.313245,2.64348 -1.992793,3.95244 -0.730246,1.20271 -1.419259,2.43163 -2.201085,3.60236 -0.637792,0.88242 -1.304563,1.75721 -2.176732,2.42389 -0.517472,0.41834 -1.130398,0.86657 -1.782884,1.14706 -1.061602,0.45845 -2.168634,0.74066 -3.33021,0.78252 -0.791396,-0.002 -1.582789,-0.005 -2.374186,-0.005 -0.835349,0.002 -1.670668,0.005 -2.505996,-0.006 -1.088707,-0.009 -2.178188,-0.026 -3.266435,0.0145 0,0 0,-6.36093 0,-6.36093 z"
       id="path3290"
       style="opacity:0.6;fill:#800000;fill-opacity:0.50196078;stroke:#000000;stroke-width:2.5;stroke-linecap:round;stroke-miterlimit:4;stroke-opacity:0.42465754;stroke-dasharray:none;stroke-dashoffset:0" />
    <path
       d="m 61.935509,596.21583 c 1.206414,-0.58425 2.387465,-1.2086 3.554666,-1.86642 0.890758,-0.49169 1.780263,-0.98968 2.682001,-1.46248 0.664737,-0.32372 1.269567,-0.73257 1.842851,-1.19606 0.899855,-0.70292 1.812676,-1.38911 2.708884,-2.09669 0.505986,-0.49524 1.108052,-0.97942 1.564725,-1.46476 0.567057,-0.79479 1.061792,-1.63795 1.570541,-2.47043 0.644038,-1.06791 1.347906,-2.09517 1.99457,-3.16119 0.610941,-1.04147 1.281987,-2.04563 1.914871,-3.07351 0.797922,-1.40382 1.615667,-2.7942 2.471421,-4.1636 0.987527,-1.62674 2.044144,-3.20731 3.134543,-4.76638 1.193858,-1.53647 2.329796,-3.11112 3.428367,-4.7167 1.174476,-1.76826 2.322618,-3.55177 3.560332,-5.27763 1.165746,-1.67523 2.447435,-3.26458 3.683278,-4.88757 1.427013,-1.75253 2.684783,-3.62997 4.024301,-5.44717 1.17201,-1.60529 2.40937,-3.15966 3.66675,-4.6983 1.42655,-1.79083 2.74536,-3.66332 4.11513,-5.49744 1.42731,-1.8712 2.93669,-3.6771 4.40398,-5.51701 1.2868,-1.81084 2.6188,-3.58712 3.98383,-5.33957 1.41816,-1.8748 2.9049,-3.69938 4.28486,-5.60258 1.18304,-1.65601 2.14503,-3.44918 3.19642,-5.18748 1.25061,-2.05681 2.60174,-4.04799 4.02259,-5.99024 1.25817,-1.65115 2.41638,-3.3805 3.46522,-5.17184 0.96746,-1.83646 1.90038,-3.69082 2.89435,-5.51311 1.02794,-1.78997 2.20797,-3.48648 3.23439,-5.2767 0.88217,-1.6142 1.5915,-3.31225 2.41452,-4.95653 0.75451,-1.58361 1.69203,-3.06624 2.52455,-4.60781 0.68401,-1.26188 1.41662,-2.4963 2.21935,-3.68615 0.82345,-1.26701 1.86097,-2.36801 2.92363,-3.43406 0.72634,-0.71854 1.48308,-1.40239 2.1425,-2.18347 0.75129,-0.86726 1.60309,-1.64387 2.42742,-2.44127 0.77696,-0.74745 1.55723,-1.49058 2.38781,-2.17791 0.52161,-0.42658 1.08312,-0.79822 1.62785,-1.19334 0.81663,-0.53286 1.56779,-1.1544 2.35763,-1.72466 0.46033,-0.445 1.02132,-0.7775 1.38312,-1.01651 0.65528,-0.37405 1.30054,-0.75474 1.94755,-1.14123 0.44145,-0.27684 0.77679,-0.49497 1.46502,-0.79312 0.52154,-0.19694 1.03335,-0.41845 1.54897,-0.63093 0.6371,-0.28404 1.32664,-0.39067 2.01729,-0.42858 -0.92595,0.16485 0.23202,-0.12727 0.40618,-0.18366 0.16972,-0.0573 0.36241,-0.1255 0.53245,-0.12078 1.02755,0.0285 1.42734,0.0296 2.18462,0.38407 0.0462,0.0216 -0.0935,-0.0407 -0.14033,-0.0611 1.49542,0.62643 1.56943,1.04719 2.35376,2.45725 0,0 -6.0815,1.96077 -6.0815,1.96077 l 0,0 c 0.54836,0.85571 0.71796,1.31835 1.68116,1.64248 -0.14837,-0.0547 -0.29722,-0.10805 -0.4451,-0.16402 -0.0158,-0.006 -0.0622,-0.0258 -0.0458,-0.0218 0.60219,0.14909 1.2091,0.20298 1.80508,0.0607 0.0315,-0.008 -0.0628,0.0157 -0.0942,0.0236 -0.60969,0.15382 -1.2115,0.34289 -1.8399,0.40935 -0.12094,-0.0128 0.47251,-0.15136 -0.0123,-0.0176 -0.55888,0.20373 -1.09863,0.45167 -1.64734,0.68043 0.0908,-0.047 0.18455,-0.0889 0.27247,-0.14111 0.0611,-0.0363 0.23169,-0.16517 0.17363,-0.12407 -0.30358,0.21491 -0.60915,0.42796 -0.94764,0.5851 -0.51336,0.2829 -1.00861,0.59809 -1.52376,0.87576 -0.67216,0.48499 -0.60313,0.33603 -1.35997,0.96677 -0.76838,0.51129 -1.4619,1.12304 -2.22561,1.642 -0.47398,0.35159 -0.95426,0.69122 -1.42624,1.04463 -0.7071,0.50488 -1.31385,1.13907 -1.95017,1.72699 -0.68511,0.67461 -1.39236,1.3319 -2.02979,2.05081 -0.77931,0.89535 -1.64064,1.70585 -2.50204,2.52136 -0.79179,0.77936 -1.56535,1.58307 -2.16067,2.52761 -0.70259,1.00756 -1.31164,2.0747 -1.91957,3.14111 -0.81418,1.46865 -1.7239,2.88301 -2.45464,4.39738 -0.88435,1.74779 -1.61532,3.56969 -2.58903,5.27228 -1.01325,1.74304 -2.16034,3.40242 -3.18279,5.14041 -1.033,1.87963 -1.96915,3.8106 -2.98652,5.69876 -1.16842,1.9603 -2.44783,3.85522 -3.83135,5.67049 -1.31693,1.78431 -2.5526,3.62517 -3.68837,5.53068 -1.13936,1.90053 -2.20571,3.84793 -3.51978,5.6379 -1.43132,1.94396 -2.94972,3.8227 -4.40422,5.74948 -1.38226,1.77373 -2.68693,3.6034 -4.01648,5.41651 -1.42728,1.77748 -2.90836,3.51027 -4.30016,5.31567 -1.4122,1.91153 -2.7613,3.8694 -4.22785,5.74023 -1.19241,1.484 -2.38988,2.96399 -3.53136,4.48806 -1.36877,1.80857 -2.61423,3.71026 -4.04515,5.47344 -1.195198,1.59825 -2.432257,3.16516 -3.589865,4.79135 -1.217128,1.67568 -2.339032,3.41183 -3.469173,5.14628 -1.110153,1.62792 -2.247281,3.23376 -3.461625,4.78617 -1.029937,1.46524 -2.007534,2.96269 -2.938956,4.4927 -0.842509,1.35357 -1.618973,2.74233 -2.398369,4.13294 -0.627778,1.03877 -1.296758,2.05182 -1.91066,3.09907 -0.655119,1.05463 -1.359582,2.07575 -1.997131,3.14094 -0.662109,1.08644 -1.280919,2.2052 -2.059248,3.21535 -0.778106,0.88141 -1.65589,1.6425 -2.554299,2.40017 -0.885282,0.69325 -1.779483,1.37475 -2.659137,2.07523 -0.906795,0.72017 -1.858174,1.37809 -2.895012,1.8999 -0.855668,0.4237 -1.695222,0.88393 -2.535854,1.33531 -1.150206,0.61956 -2.313947,1.2171 -3.444812,1.86946 0,0 -3.15564,-5.52237 -3.15564,-5.52237 z"
       id="path3292"
       style="opacity:0.6;fill:#800000;fill-opacity:0.50196078;stroke:#000000;stroke-width:2.5;stroke-linecap:round;stroke-miterlimit:4;stroke-opacity:0.42465754;stroke-dasharray:none;stroke-dashoffset:0" />
    <path
       d="m 66.368694,608.18679 c 1.547747,-0.55241 2.992422,-1.36467 4.427069,-2.15836 1.923086,-1.04327 3.787147,-2.18541 5.645738,-3.33823 1.870994,-1.13469 3.690493,-2.34578 5.494953,-3.58238 2.002646,-1.36509 4.008064,-2.7245 5.981362,-4.13174 1.685802,-1.26332 3.324808,-2.58838 4.97409,-3.89892 1.779348,-1.30167 3.45173,-2.73679 5.14084,-4.15135 1.91298,-1.54113 3.810614,-3.1005 5.710304,-4.65782 1.8364,-1.63167 3.69794,-3.23471 5.53212,-4.86883 2.3363,-2.08122 4.82881,-3.97658 7.41125,-5.73988 2.35851,-1.44818 4.57063,-3.10562 6.82605,-4.7036 2.36923,-1.66363 4.76367,-3.28894 7.23193,-4.80231 2.00842,-1.25215 4.05407,-2.44232 6.06897,-3.684 1.65195,-1.03885 3.26635,-2.13248 4.87472,-3.23731 1.70058,-1.18197 3.44003,-2.30578 5.15933,-3.46001 1.35713,-0.85753 2.62624,-1.84579 3.84473,-2.88875 1.21579,-1.02082 2.45652,-2.01215 3.71048,-2.98562 1.21938,-0.94924 2.52111,-1.75991 3.91335,-2.42682 1.03279,-0.4912 2.07633,-0.95879 3.11361,-1.44122 0.81663,-0.43171 1.70918,-0.69876 2.54468,-1.08253 0.41324,-0.24657 0.99705,-0.36246 1.3606,-0.53201 0.82266,-0.29867 0.0595,-0.0495 -0.12432,0.0899 0.96245,-0.86608 2.11316,-0.96714 3.32976,-0.97336 0.82103,-0.0715 1.52227,0.0615 2.34106,0.2217 0.63246,0.62411 1.26491,1.24822 1.89737,1.87233 0,0 -5.90992,2.4734 -5.90992,2.4734 l 0,0 c 0.60392,0.55592 1.20784,1.11184 1.81176,1.66776 2.04319,0.31424 0.43931,0.0752 -0.0576,0.13481 -0.32133,0.008 -0.15023,0.002 -0.416,0.0132 -0.0136,5.7e-4 -0.054,0.005 -0.0408,0.002 0.56172,-0.14009 1.0157,-0.33533 1.44605,-0.75006 -0.53798,0.4799 -1.14441,0.91384 -1.83406,1.14645 -0.56607,0.22659 -0.85753,0.28047 -1.4035,0.52446 -0.7694,0.30121 -1.55439,0.55599 -2.29499,0.93026 -1.01698,0.46702 -2.03937,0.92142 -3.04996,1.40096 -0.98893,0.46718 -1.92273,1.01808 -2.78446,1.69782 -1.17805,0.90699 -2.33879,1.83739 -3.48486,2.78435 -1.40973,1.20013 -2.88359,2.32915 -4.45654,3.30883 -1.70269,1.12587 -3.41884,2.23217 -5.08848,3.40703 -1.7027,1.16988 -3.40972,2.33175 -5.16836,3.41669 -2.02946,1.21973 -4.0816,2.40048 -6.10668,3.62734 -2.35591,1.41838 -4.61268,2.98647 -6.86107,4.56829 -2.28471,1.62627 -4.54399,3.28488 -6.94167,4.7457 -2.361,1.60483 -4.63928,3.33348 -6.74858,5.26081 -1.89249,1.70872 -3.80914,3.3905 -5.72007,5.0785 -1.87881,1.53579 -3.77004,3.05573 -5.65132,4.58847 -1.72969,1.46853 -3.434968,2.96742 -5.260185,4.31846 -1.736771,1.36428 -3.475386,2.72776 -5.249502,4.04311 -2.000714,1.42487 -4.034563,2.80118 -6.052909,4.20084 -1.879673,1.30189 -3.785173,2.56103 -5.738109,3.75104 -1.944393,1.20839 -3.90566,2.38683 -5.908487,3.49616 -1.705989,0.94795 -3.412104,1.90614 -5.20791,2.67657 0,0 -2.231854,-5.95161 -2.231854,-5.95161 z"
       id="path3294"
       style="opacity:0.6;fill:#800000;fill-opacity:0.50196078;stroke:#000000;stroke-width:2.5;stroke-linecap:round;stroke-miterlimit:4;stroke-opacity:0.42465754;stroke-dasharray:none;stroke-dashoffset:0" />
    <path
       d="m 58.688415,618.59494 c 1.64605,-0.55988 3.350938,-0.93244 5.053628,-1.27393 1.796294,-0.35345 3.583543,-0.75202 5.378128,-1.11349 1.600098,-0.36153 3.208328,-0.68521 4.800272,-1.08182 1.809994,-0.39492 3.584454,-0.92291 5.356924,-1.45708 2.179635,-0.55591 4.337643,-1.1927 6.513437,-1.76196 2.125012,-0.51525 4.22476,-1.12359 6.313563,-1.76819 1.923633,-0.50461 3.796832,-1.16752 5.68749,-1.77783 1.626117,-0.59777 3.264663,-1.15996 4.882433,-1.78126 1.41712,-0.52392 2.74886,-1.23756 4.08534,-1.93469 1.52039,-0.78765 3.02911,-1.59648 4.57543,-2.33236 2.25658,-1.18334 4.66427,-2.01384 7.08115,-2.79836 2.21586,-0.73072 4.4822,-1.28981 6.71945,-1.94647 1.55558,-0.47122 3.13848,-0.82771 4.72247,-1.18577 1.46649,-0.33236 2.9604,-0.56472 4.41895,-0.92996 1.09117,-0.33351 2.23037,-0.38061 3.35345,-0.5178 1.47204,-0.20872 2.9572,-0.27036 4.44138,-0.31652 1.17838,-0.0344 2.357,-0.0681 3.53596,-0.0684 1.31324,-0.0442 2.61926,0.0923 3.92575,0.20171 1.25979,0.10685 2.52381,0.1393 3.7875,0.15147 0.96033,-0.0586 1.90286,0.12672 2.85027,0.24418 0.8703,0.0915 1.74631,0.10334 2.62057,0.11146 0.60409,-0.009 1.2079,-0.008 1.81198,-0.004 0.94452,-0.007 1.87327,0.18543 2.80943,0.28269 0.10227,0.008 0.2053,0.009 0.30681,0.0243 0.51737,0.0759 1.01692,0.19195 1.51289,0.35523 0.25241,0.0831 0.38196,0.14806 0.23713,0.0778 -0.82906,-0.23426 -1.19945,0.008 -0.36594,-0.24427 0.66221,-0.20341 1.34021,-0.3428 2.02249,-0.45803 0.0528,-0.008 0.10522,-0.0189 0.15832,-0.0247 0.1183,-0.013 0.35937,-0.0315 0.49338,-0.0356 0.0721,-0.002 0.28771,-0.0136 0.21648,-0.002 -1.02288,0.16603 -0.62771,0.0748 -0.4102,0.0206 0.57412,-0.10145 1.12696,-0.26163 1.68375,-0.43287 0.69444,-0.17214 0.25124,-0.0831 1.34417,-0.18008 0,0 -0.0711,6.38857 -0.0711,6.38857 l 0,0 c 0.59094,-0.0945 0.7492,-0.12202 0.47604,-0.0751 -0.57964,0.15286 -1.15312,0.33118 -1.73963,0.4555 -0.38357,0.11071 -1.17666,0.25488 -1.25022,0.22011 -0.35259,0.0309 -0.70039,0.0945 -1.03872,0.20055 -1.11134,0.35111 -2.25371,0.6183 -3.41337,0.27706 -0.40553,-0.13504 -0.4658,-0.23002 -0.85352,-0.25529 -0.70308,-0.0799 -1.40483,-0.23258 -2.11061,-0.23151 -0.64043,0.006 -1.28068,0.009 -1.92088,-0.0164 -1.08134,-0.0237 -2.16264,-0.0652 -3.24047,-0.15912 -0.76049,-0.0824 -1.50029,-0.24584 -2.26783,-0.21431 -1.38489,-0.0459 -2.76904,-0.11678 -4.15108,-0.21726 -1.13909,-0.0875 -2.27419,-0.17157 -3.41765,-0.12667 -1.11384,0.002 -2.22784,-0.0201 -3.34154,0.008 -1.29127,0.0424 -2.58281,0.11104 -3.86123,0.30902 -0.92056,0.11594 -1.85163,0.16626 -2.75115,0.41347 -1.46542,0.3065 -2.94838,0.52991 -4.40692,0.87392 -1.48882,0.34328 -2.97154,0.70559 -4.44686,1.10364 -2.17023,0.57164 -4.3574,1.08346 -6.49228,1.7826 -2.15326,0.69512 -4.27727,1.4866 -6.27497,2.55965 -1.4794,0.72058 -2.91004,1.53442 -4.3785,2.2771 -1.54885,0.80633 -3.10653,1.60004 -4.74792,2.20533 -1.73173,0.66299 -3.4822,1.27103 -5.227666,1.8961 -1.91281,0.59765 -3.803156,1.26812 -5.749472,1.75628 -2.177686,0.67253 -4.366388,1.30912 -6.581924,1.84655 -2.091755,0.54001 -4.160515,1.16807 -6.25459,1.70083 -1.866329,0.58023 -3.735401,1.15597 -5.646199,1.575 -1.688344,0.43134 -3.39583,0.77814 -5.098216,1.14879 -1.789322,0.35967 -3.576276,0.73197 -5.363954,1.09955 -1.279005,0.26642 -2.569393,0.54702 -3.794844,1.00516 0,0 -2.50697,-5.84959 -2.50697,-5.84959 z"
       id="path3296"
       style="opacity:0.6;fill:#800000;fill-opacity:0.50196078;stroke:#000000;stroke-width:2.5;stroke-linecap:round;stroke-miterlimit:4;stroke-opacity:0.42465754;stroke-dasharray:none;stroke-dashoffset:0" />
    <text
       x="42.243626"
       y="332.36218"
       id="text3298"
       xml:space="preserve"
       style="font-size:20px;font-style:normal;font-variant:normal;font-weight:normal;font-stretch:normal;line-height:125%;letter-spacing:0px;word-spacing:0px;fill:#000000;fill-opacity:1;stroke:none;font-family:ubuntu;-inkscape-font-specification:ubuntu"><tspan
         x="44.087376"
         y="332.36218"
         id="tspan3300"
         style="font-size:16px;text-align:center;text-anchor:middle">input </tspan><tspan
         x="42.243626"
         y="352.36218"
         id="tspan3302"
         style="font-size:16px;text-align:center;text-anchor:middle">partitions</tspan></text>
    <text
       x="183.15625"
       y="332.36218"
       id="text3298-2"
       xml:space="preserve"
       style="font-size:20px;font-style:normal;font-variant:normal;font-weight:normal;font-stretch:normal;line-height:125%;letter-spacing:0px;word-spacing:0px;fill:#000000;fill-opacity:1;stroke:none;font-family:ubuntu;-inkscape-font-specification:ubuntu"><tspan
         x="185"
         y="332.36218"
         id="tspan3300-2"
         style="font-size:16px;text-align:center;text-anchor:middle">output </tspan><tspan
         x="183.15625"
         y="352.36218"
         id="tspan3302-4"
         style="font-size:16px;text-align:center;text-anchor:middle">partitions</tspan></text>
  </g>
</svg>
