<?xml version="1.0" encoding="UTF-8" standalone="no"?>
<!DOCTYPE svg PUBLIC "-//W3C//DTD SVG 1.1//EN"
 "http://www.w3.org/Graphics/SVG/1.1/DTD/svg11.dtd">
<!-- Generated by graphviz version 2.38.0 (20140413.2041)
 -->
<!-- Title: %3 Pages: 1 -->
<svg width="62pt" height="425pt"
 viewBox="0.00 0.00 62.00 424.69" xmlns="http://www.w3.org/2000/svg" xmlns:xlink="http://www.w3.org/1999/xlink">
<g id="graph0" class="graph" transform="scale(1 1) rotate(0) translate(4 420.689)">
<title>%3</title>
<polygon fill="white" stroke="none" points="-4,4 -4,-420.689 58,-420.689 58,4 -4,4"/>
<!-- &#45;7427969053247317579 -->
<g id="node1" class="node"><title>&#45;7427969053247317579</title>
<polygon fill="none" stroke="black" points="54,-114.896 0,-114.896 0,-78.8962 54,-78.8962 54,-114.896"/>
<text text-anchor="middle" x="27" y="-93.1962" font-family="Times,serif" font-size="14.00">inc&#45;#0</text>
</g>
<!-- &#45;411526665173334577 -->
<g id="node4" class="node"><title>&#45;411526665173334577</title>
<ellipse fill="none" stroke="black" cx="27" cy="-172.344" rx="21.3963" ry="21.3963"/>
<text text-anchor="middle" x="27" y="-168.644" font-family="Times,serif" font-size="14.00">inc</text>
</g>
<!-- &#45;7427969053247317579&#45;&gt;&#45;411526665173334577 -->
<g id="edge3" class="edge"><title>&#45;7427969053247317579&#45;&gt;&#45;411526665173334577</title>
<path fill="none" stroke="black" d="M27,-114.931C27,-122.607 27,-131.912 27,-140.733"/>
<polygon fill="black" stroke="black" points="23.5001,-140.738 27,-150.738 30.5001,-140.738 23.5001,-140.738"/>
</g>
<!-- &#45;5762303991298601876 -->
<g id="node2" class="node"><title>&#45;5762303991298601876</title>
<ellipse fill="none" stroke="black" cx="27" cy="-21.4481" rx="21.3963" ry="21.3963"/>
<text text-anchor="middle" x="27" y="-17.7481" font-family="Times,serif" font-size="14.00">inc</text>
</g>
<!-- &#45;5762303991298601876&#45;&gt;&#45;7427969053247317579 -->
<g id="edge1" class="edge"><title>&#45;5762303991298601876&#45;&gt;&#45;7427969053247317579</title>
<path fill="none" stroke="black" d="M27,-42.9075C27,-50.7866 27,-59.9176 27,-68.357"/>
<polygon fill="black" stroke="black" points="23.5001,-68.5307 27,-78.5307 30.5001,-68.5308 23.5001,-68.5307"/>
</g>
<!-- &#45;5538767531061263078 -->
<g id="node3" class="node"><title>&#45;5538767531061263078</title>
<polygon fill="none" stroke="black" points="54,-265.792 0,-265.792 0,-229.792 54,-229.792 54,-265.792"/>
<text text-anchor="middle" x="27" y="-244.092" font-family="Times,serif" font-size="14.00">inc&#45;#1</text>
</g>
<!-- 504226528606545960 -->
<g id="node6" class="node"><title>504226528606545960</title>
<ellipse fill="none" stroke="black" cx="27" cy="-323.24" rx="21.3963" ry="21.3963"/>
<text text-anchor="middle" x="27" y="-319.54" font-family="Times,serif" font-size="14.00">inc</text>
</g>
<!-- &#45;5538767531061263078&#45;&gt;504226528606545960 -->
<g id="edge5" class="edge"><title>&#45;5538767531061263078&#45;&gt;504226528606545960</title>
<path fill="none" stroke="black" d="M27,-265.827C27,-273.503 27,-282.808 27,-291.629"/>
<polygon fill="black" stroke="black" points="23.5001,-291.635 27,-301.635 30.5001,-291.635 23.5001,-291.635"/>
</g>
<!-- &#45;411526665173334577&#45;&gt;&#45;5538767531061263078 -->
<g id="edge2" class="edge"><title>&#45;411526665173334577&#45;&gt;&#45;5538767531061263078</title>
<path fill="none" stroke="black" d="M27,-193.804C27,-201.683 27,-210.814 27,-219.253"/>
<polygon fill="black" stroke="black" points="23.5001,-219.427 27,-229.427 30.5001,-219.427 23.5001,-219.427"/>
</g>
<!-- 2549658036579995913 -->
<g id="node5" class="node"><title>2549658036579995913</title>
<polygon fill="none" stroke="black" points="54,-416.689 0,-416.689 0,-380.689 54,-380.689 54,-416.689"/>
<text text-anchor="middle" x="27" y="-394.989" font-family="Times,serif" font-size="14.00">inc&#45;#2</text>
</g>
<!-- 504226528606545960&#45;&gt;2549658036579995913 -->
<g id="edge4" class="edge"><title>504226528606545960&#45;&gt;2549658036579995913</title>
<path fill="none" stroke="black" d="M27,-344.7C27,-352.579 27,-361.71 27,-370.149"/>
<polygon fill="black" stroke="black" points="23.5001,-370.323 27,-380.323 30.5001,-370.323 23.5001,-370.323"/>
</g>
</g>
</svg>
