<?xml version="1.0" encoding="UTF-8" standalone="no"?>
<!DOCTYPE svg PUBLIC "-//W3C//DTD SVG 1.1//EN"
 "http://www.w3.org/Graphics/SVG/1.1/DTD/svg11.dtd">
<!-- Generated by graphviz version 2.40.1 (20161225.0304)
 -->
<!-- Title: %3 Pages: 1 -->
<svg width="695pt" height="676pt"
 viewBox="0.00 0.00 695.08 675.96" xmlns="http://www.w3.org/2000/svg" xmlns:xlink="http://www.w3.org/1999/xlink">
<g id="graph0" class="graph" transform="scale(1 1) rotate(0) translate(4 671.9631)">
<title>%3</title>
<polygon fill="#ffffff" stroke="transparent" points="-4,4 -4,-671.9631 691.0807,-671.9631 691.0807,4 -4,4"/>
<!-- &#45;2763440856414593631 -->
<g id="node1" class="node">
<title>&#45;2763440856414593631</title>
<polygon fill="none" stroke="#000000" points="531.0404,-361.0807 470.0404,-361.0807 470.0404,-325.0807 531.0404,-325.0807 531.0404,-361.0807"/>
<text text-anchor="middle" x="500.5404" y="-339.3807" font-family="Times,serif" font-size="14.00" fill="#000000">(0, 0, 0)</text>
</g>
<!-- &#45;2453370172501454868 -->
<g id="node11" class="node">
<title>&#45;2453370172501454868</title>
<ellipse fill="none" stroke="#000000" cx="343.5404" cy="-496.5219" rx="99.3824" ry="99.3824"/>
<text text-anchor="middle" x="343.5404" y="-492.8219" font-family="Times,serif" font-size="14.00" fill="#000000">series&#45;groupby&#45;sum&#45;agg</text>
</g>
<!-- &#45;2763440856414593631&#45;&gt;&#45;2453370172501454868 -->
<g id="edge8" class="edge">
<title>&#45;2763440856414593631&#45;&gt;&#45;2453370172501454868</title>
<path fill="none" stroke="#000000" d="M481.9139,-361.285C466.8154,-376.0413 444.4414,-397.9081 422.0647,-419.7775"/>
<polygon fill="#000000" stroke="#000000" points="419.514,-417.3764 414.8087,-426.8691 424.4067,-422.3826 419.514,-417.3764"/>
</g>
<!-- 8944420827982598481 -->
<g id="node2" class="node">
<title>8944420827982598481</title>
<ellipse fill="none" stroke="#000000" cx="578.5404" cy="-180.5404" rx="108.5808" ry="108.5808"/>
<text text-anchor="middle" x="578.5404" y="-176.8404" font-family="Times,serif" font-size="14.00" fill="#000000">series&#45;groupby&#45;sum&#45;chunk</text>
</g>
<!-- 8944420827982598481&#45;&gt;&#45;2763440856414593631 -->
<g id="edge1" class="edge">
<title>8944420827982598481&#45;&gt;&#45;2763440856414593631</title>
<path fill="none" stroke="#000000" d="M531.368,-278.8405C524.8833,-292.3537 518.7142,-305.2093 513.6221,-315.8204"/>
<polygon fill="#000000" stroke="#000000" points="510.4413,-314.3589 509.2703,-324.8888 516.7523,-317.3874 510.4413,-314.3589"/>
</g>
<!-- &#45;6970790616692853463 -->
<g id="node3" class="node">
<title>&#45;6970790616692853463</title>
<polygon fill="none" stroke="#000000" points="605.5404,-36 551.5404,-36 551.5404,0 605.5404,0 605.5404,-36"/>
<text text-anchor="middle" x="578.5404" y="-14.3" font-family="Times,serif" font-size="14.00" fill="#000000">0</text>
</g>
<!-- &#45;6970790616692853463&#45;&gt;8944420827982598481 -->
<g id="edge2" class="edge">
<title>&#45;6970790616692853463&#45;&gt;8944420827982598481</title>
<path fill="none" stroke="#000000" d="M578.5404,-36.0157C578.5404,-43.1447 578.5404,-51.9731 578.5404,-61.7261"/>
<polygon fill="#000000" stroke="#000000" points="575.0405,-61.7585 578.5404,-71.7586 582.0405,-61.7586 575.0405,-61.7585"/>
</g>
<!-- &#45;2763439402923597156 -->
<g id="node4" class="node">
<title>&#45;2763439402923597156</title>
<polygon fill="none" stroke="#000000" points="217.0404,-361.0807 156.0404,-361.0807 156.0404,-325.0807 217.0404,-325.0807 217.0404,-361.0807"/>
<text text-anchor="middle" x="186.5404" y="-339.3807" font-family="Times,serif" font-size="14.00" fill="#000000">(0, 1, 0)</text>
</g>
<!-- &#45;2763439402923597156&#45;&gt;&#45;2453370172501454868 -->
<g id="edge10" class="edge">
<title>&#45;2763439402923597156&#45;&gt;&#45;2453370172501454868</title>
<path fill="none" stroke="#000000" d="M205.1669,-361.285C220.2654,-376.0413 242.6394,-397.9081 265.016,-419.7775"/>
<polygon fill="#000000" stroke="#000000" points="262.674,-422.3826 272.272,-426.8691 267.5667,-417.3764 262.674,-422.3826"/>
</g>
<!-- &#45;5130138482222259552 -->
<g id="node5" class="node">
<title>&#45;5130138482222259552</title>
<ellipse fill="none" stroke="#000000" cx="108.5404" cy="-180.5404" rx="108.5808" ry="108.5808"/>
<text text-anchor="middle" x="108.5404" y="-176.8404" font-family="Times,serif" font-size="14.00" fill="#000000">series&#45;groupby&#45;sum&#45;chunk</text>
</g>
<!-- &#45;5130138482222259552&#45;&gt;&#45;2763439402923597156 -->
<g id="edge3" class="edge">
<title>&#45;5130138482222259552&#45;&gt;&#45;2763439402923597156</title>
<path fill="none" stroke="#000000" d="M155.7127,-278.8405C162.1975,-292.3537 168.3666,-305.2093 173.4587,-315.8204"/>
<polygon fill="#000000" stroke="#000000" points="170.3284,-317.3874 177.8104,-324.8888 176.6394,-314.3589 170.3284,-317.3874"/>
</g>
<!-- &#45;6970790616691770938 -->
<g id="node6" class="node">
<title>&#45;6970790616691770938</title>
<polygon fill="none" stroke="#000000" points="135.5404,-36 81.5404,-36 81.5404,0 135.5404,0 135.5404,-36"/>
<text text-anchor="middle" x="108.5404" y="-14.3" font-family="Times,serif" font-size="14.00" fill="#000000">1</text>
</g>
<!-- &#45;6970790616691770938&#45;&gt;&#45;5130138482222259552 -->
<g id="edge4" class="edge">
<title>&#45;6970790616691770938&#45;&gt;&#45;5130138482222259552</title>
<path fill="none" stroke="#000000" d="M108.5404,-36.0157C108.5404,-43.1447 108.5404,-51.9731 108.5404,-61.7261"/>
<polygon fill="#000000" stroke="#000000" points="105.0405,-61.7585 108.5404,-71.7586 112.0405,-61.7586 105.0405,-61.7585"/>
</g>
<!-- &#45;2763443763396586581 -->
<g id="node7" class="node">
<title>&#45;2763443763396586581</title>
<polygon fill="none" stroke="#000000" points="374.0404,-361.0807 313.0404,-361.0807 313.0404,-325.0807 374.0404,-325.0807 374.0404,-361.0807"/>
<text text-anchor="middle" x="343.5404" y="-339.3807" font-family="Times,serif" font-size="14.00" fill="#000000">(0, 2, 0)</text>
</g>
<!-- &#45;2763443763396586581&#45;&gt;&#45;2453370172501454868 -->
<g id="edge9" class="edge">
<title>&#45;2763443763396586581&#45;&gt;&#45;2453370172501454868</title>
<path fill="none" stroke="#000000" d="M343.5404,-361.285C343.5404,-368.3552 343.5404,-377.0578 343.5404,-386.6109"/>
<polygon fill="#000000" stroke="#000000" points="340.0405,-386.8413 343.5404,-396.8413 347.0405,-386.8413 340.0405,-386.8413"/>
</g>
<!-- &#45;4620980056172986681 -->
<g id="node8" class="node">
<title>&#45;4620980056172986681</title>
<ellipse fill="none" stroke="#000000" cx="343.5404" cy="-180.5404" rx="108.5808" ry="108.5808"/>
<text text-anchor="middle" x="343.5404" y="-176.8404" font-family="Times,serif" font-size="14.00" fill="#000000">series&#45;groupby&#45;sum&#45;chunk</text>
</g>
<!-- &#45;4620980056172986681&#45;&gt;&#45;2763443763396586581 -->
<g id="edge5" class="edge">
<title>&#45;4620980056172986681&#45;&gt;&#45;2763443763396586581</title>
<path fill="none" stroke="#000000" d="M343.5404,-289.4085C343.5404,-298.5782 343.5404,-307.216 343.5404,-314.7719"/>
<polygon fill="#000000" stroke="#000000" points="340.0405,-315.0039 343.5404,-325.0039 347.0405,-315.004 340.0405,-315.0039"/>
</g>
<!-- &#45;6970790616695018513 -->
<g id="node9" class="node">
<title>&#45;6970790616695018513</title>
<polygon fill="none" stroke="#000000" points="370.5404,-36 316.5404,-36 316.5404,0 370.5404,0 370.5404,-36"/>
<text text-anchor="middle" x="343.5404" y="-14.3" font-family="Times,serif" font-size="14.00" fill="#000000">2</text>
</g>
<!-- &#45;6970790616695018513&#45;&gt;&#45;4620980056172986681 -->
<g id="edge6" class="edge">
<title>&#45;6970790616695018513&#45;&gt;&#45;4620980056172986681</title>
<path fill="none" stroke="#000000" d="M343.5404,-36.0157C343.5404,-43.1447 343.5404,-51.9731 343.5404,-61.7261"/>
<polygon fill="#000000" stroke="#000000" points="340.0405,-61.7585 343.5404,-71.7586 347.0405,-61.7586 340.0405,-61.7585"/>
</g>
<!-- 8614537788903396952 -->
<g id="node10" class="node">
<title>8614537788903396952</title>
<polygon fill="none" stroke="#000000" points="370.5404,-667.9631 316.5404,-667.9631 316.5404,-631.9631 370.5404,-631.9631 370.5404,-667.9631"/>
<text text-anchor="middle" x="343.5404" y="-646.2631" font-family="Times,serif" font-size="14.00" fill="#000000">0</text>
</g>
<!-- &#45;2453370172501454868&#45;&gt;8614537788903396952 -->
<g id="edge7" class="edge">
<title>&#45;2453370172501454868&#45;&gt;8614537788903396952</title>
<path fill="none" stroke="#000000" d="M343.5404,-596.2968C343.5404,-605.373 343.5404,-613.9746 343.5404,-621.5252"/>
<polygon fill="#000000" stroke="#000000" points="340.0405,-621.7683 343.5404,-631.7683 347.0405,-621.7683 340.0405,-621.7683"/>
</g>
</g>
</svg>
