<?xml version="1.0" encoding="utf-8"?>
<!-- Generator: Adobe Illustrator 17.1.0, SVG Export Plug-In . SVG Version: 6.00 Build 0)  -->
<!DOCTYPE svg PUBLIC "-//W3C//DTD SVG 1.1//EN" "http://www.w3.org/Graphics/SVG/1.1/DTD/svg11.dtd">
<svg version="1.1" id="Layer_1" xmlns="http://www.w3.org/2000/svg" xmlns:xlink="http://www.w3.org/1999/xlink" x="0px" y="0px"
	 viewBox="0 0 598.9 634.2" enable-background="new 0 0 598.9 634.2" xml:space="preserve">
<path fill="#F7BA47" d="M1.5,193.6c0.2-2.7,2.8-3.2,4.5-4.2c48.7-27.7,97.5-55.4,146.2-83.1C213.8,71.5,275.3,36.7,336.8,1.7
	c3.9-2.2,6.9-2.3,10.9,0.1C405.9,35.5,464.1,69,522.4,102.5c23.3,13.4,46.8,26.7,70.1,40.2c2.2,1.2,5,2,5.7,5
	c-0.8,0.2-1.7,0.1-2.4,0.5c-14.6,8.5-29.2,17.1-43.9,25.6c-12.8,7.4-25.6,14.7-38.4,22c-0.3-0.1-0.6-0.1-0.9,0
	c-5.9-3.5-11.7-7-17.6-10.4c-49-28.5-98-57-147-85.5c-1.4-0.8-3-2.4-4.5-1.7c-2,0.9-0.9,3.3-0.9,5c-0.1,30.2-0.1,60.3-0.1,90.5
	c-1.5-1.7-0.8-3.8-0.8-5.8c0-28.5,0-57-0.1-85.5c0-1.4,0.8-3.3-0.8-4.1c-1.5-0.7-2.7,0.8-3.9,1.5c-17.6,10-35.2,20.1-52.8,30.1
	c-30.5,17.3-61,34.5-91.5,51.8c-35.7,20.3-71.3,40.6-106.9,61C57.6,226.4,29.6,210,1.5,193.6z"/>
<path fill="#ED6636" d="M256.7,634.2c-6-1.7-10.9-5.6-16.1-8.6c-22-12.5-43.8-25.3-65.7-38c-2.3-1.3-3.7-2.7-3.7-5.8
	c0.1-96.1,0.1-192.2,0.1-288.4c0-0.2,0-0.3,0.1-0.5c1.3-1,2.5-2.2,3.9-3c25.3-14.2,50.7-28.4,76.1-42.6c5.1-2.9,5.2-2.8,5.2,3
	c0,30.1,0.1,60.3,0.1,90.4c0.8,2.3,3.1,2.9,4.9,3.9c7.2,4.1,14.5,8.2,21.7,12.2c19.7,11,39.5,22,59.2,32.9c0,3.7,0,7.3,0,11
	c0.1,28.7,0.1,57.4,0.2,86.1c0,0,0.1-0.1,0.1-0.1c-1.1-0.3-2.3-0.4-3.3-0.9c-12.9-7.5-25.8-15-38.8-22.5
	c-13.2-7.7-26.5-15.2-39.6-23c-3.9-2.3-4.7-1.2-4.6,2.9c0.2,9.3,0.1,18.6,0.1,28C256.7,525.6,256.7,579.9,256.7,634.2z"/>
<path fill="#F1933F" d="M256.7,340.8c0-30.1-0.1-60.3-0.1-90.4c0-5.8-0.1-5.9-5.2-3c-25.4,14.1-50.7,28.3-76.1,42.6
	c-1.4,0.8-2.6,2-3.9,3c-5.6,0.9-9.8,4.5-14.5,7.1c-22.9,12.7-45.7,25.6-68.6,38.5c-0.8,0.5-1.8,0.7-2.7,1.1c0-32.3,0-64.6,0-96.8
	c35.6-20.3,71.3-40.7,106.9-61c30.5-17.3,61-34.5,91.5-51.8c17.6-10,35.2-20,52.8-30.1c1.3-0.7,2.5-2.3,3.9-1.5
	c1.6,0.8,0.8,2.7,0.8,4.1c0,28.5,0,57,0.1,85.5c0,1.9-0.7,4,0.8,5.8c0.1,0.3,0.1,0.6,0.1,1c0,32.7,0.1,65.3,0.1,98
	c-2.1-0.2-3.9,0.8-5.6,1.8c-19.3,11.3-38.5,22.6-57.9,33.8C271.8,332.6,264.6,337.4,256.7,340.8z"/>
<path fill="#ED6636" d="M342.6,194.7c0-0.3,0-0.7-0.1-1c0-30.2,0-60.3,0.1-90.5c0-1.7-1.1-4,0.9-5c1.5-0.7,3.1,0.9,4.5,1.7
	c49,28.5,98,57,147,85.5c5.9,3.4,11.7,6.9,17.6,10.4c0,29.6,0,59.3,0,88.9c0,2.7-0.3,4.9-3,6c-0.9,0-1.6-0.2-2-1.1
	c-0.3-2.1-1.9-1.9-3.3-1.8c-0.8-0.1-1.4-0.4-1.7-1.2c-0.3-3.3-2.7-2.9-5-3c0,0,0,0,0,0c-0.2-1.2-0.4-2.5-2-1c-0.9,0.1-1.6-0.3-2-1.1
	c-0.3-2-1.8-1.8-3.2-1.8c-17.3-9.9-34.6-19.8-51.9-29.7C406.5,231.6,374.6,213.2,342.6,194.7z"/>
<path fill="#F1933F" d="M256.7,634.2c0-54.3-0.1-108.5-0.1-162.8c0-9.3,0.1-18.6-0.1-28c-0.1-4.1,0.7-5.2,4.6-2.9
	c13.2,7.8,26.4,15.3,39.6,23c12.9,7.5,25.8,15,38.8,22.5c1,0.6,2.2,0.6,3.3,0.9c-0.1,3.8-0.4,7.6-0.4,11.5c0,27.3-0.1,54.6,0,82
	c0,3.1-0.6,5.3-3.5,7c-26.1,15-52.1,30.2-78.2,45.3C259.6,633.3,258.4,634.4,256.7,634.2z"/>
<path fill="#F7BA47" d="M256.7,340.8c7.9-3.4,15.1-8.2,22.5-12.5c19.4-11.1,38.6-22.5,57.9-33.8c1.7-1,3.4-2,5.6-1.8
	c17.4,9.7,34.9,19.3,52.3,29c9.9,5.5,19.7,11.1,29.6,16.6c1.1,0.6,2.6,0.9,2.9,2.5c-5.6,3.2-11.3,6.4-16.9,9.6
	c-22.7,13.1-45.4,26.3-68,39.5c-19.7-11-39.5-22-59.2-32.9c-7.3-4-14.5-8.1-21.7-12.2C259.8,343.7,257.5,343.1,256.7,340.8z"/>
<path fill="#ED6636" d="M85.6,242.8c0,32.3,0,64.6,0,96.8c-13.4-6.7-25.8-15-38.8-22.4c-14-8-27.8-16.3-41.9-24.2
	c-3.5-2-4.9-4.4-4.9-8.4c0.1-28.7,0-57.3,0.1-86c0-1.8-0.4-3.7,1.5-5C29.6,210,57.6,226.4,85.6,242.8z"/>
<path fill="#F1933F" d="M342.6,389.9c22.7-13.2,45.3-26.3,68-39.5c5.6-3.2,11.2-6.4,16.9-9.6c0.1,4.6,0.3,9.3,0.4,13.9
	c0,26.1,0,52.2,0.1,78.3c0,3.1-0.5,5.2-3.5,6.9c-26.8,15.4-53.4,31-80.2,46.5c-0.4,0.2-0.9,0.3-1.4,0.5c-0.1-28.7-0.1-57.4-0.2-86.1
	C342.6,397.2,342.6,393.5,342.6,389.9z"/>
<path fill="#F1933F" d="M513.6,195.9c12.8-7.3,25.6-14.6,38.4-22c14.6-8.5,29.2-17.1,43.9-25.6c0.7-0.4,1.6-0.4,2.4-0.5
	c0.9,1.7,0.7,3.6,0.7,5.4c0,28.3-0.1,56.6,0.1,84.9c0,3.9-1,6.3-4.6,8.4c-25.3,14.6-50.5,29.4-75.8,44.1c-1.5,0.9-2.9,2.3-5,1.8
	C513.6,260.2,513.6,228,513.6,195.9z"/>
<path fill="#ED6736" d="M513.6,195.9c0,32.1,0,64.3,0,96.4c-1.7,0.5-2.8-0.6-4-1.6c2.8-1.1,3-3.3,3-6c-0.1-29.6,0-59.3,0-88.9
	C512.9,195.8,513.2,195.8,513.6,195.9z"/>
<path fill="#ED6736" d="M497.7,283.7c2.2,0,4.7-0.3,5,3C500.7,286.1,498.9,285.4,497.7,283.7z"/>
<path fill="#ED6736" d="M504.3,287.9c1.5-0.1,3-0.3,3.3,1.8C506.4,289.3,505.1,289,504.3,287.9z"/>
<path fill="#ED6736" d="M490.4,279.8c1.4-0.1,2.9-0.3,3.2,1.8C492.4,281.3,491.2,280.9,490.4,279.8z"/>
<path fill="#ED6736" d="M495.6,282.7c1.6-1.4,1.8-0.2,2,1C497,283.4,496.3,283,495.6,282.7z"/>
</svg>
