<?xml version="1.0" encoding="UTF-8" standalone="no"?>
<!DOCTYPE svg PUBLIC "-//W3C//DTD SVG 1.1//EN"
 "http://www.w3.org/Graphics/SVG/1.1/DTD/svg11.dtd">
<!-- Generated by graphviz version 2.38.0 (20140413.2041)
 -->
<!-- Title: %3 Pages: 1 -->
<svg width="789pt" height="726pt"
 viewBox="0.00 0.00 788.59 726.37" xmlns="http://www.w3.org/2000/svg" xmlns:xlink="http://www.w3.org/1999/xlink">
<g id="graph0" class="graph" transform="scale(1 1) rotate(0) translate(4 722.371)">
<title>%3</title>
<polygon fill="white" stroke="none" points="-4,4 -4,-722.371 784.593,-722.371 784.593,4 -4,4"/>
<!-- &#45;1447727350235010145 -->
<g id="node1" class="node"><title>&#45;1447727350235010145</title>
<polygon fill="none" stroke="black" points="779.296,-152.593 699.296,-152.593 699.296,-116.593 779.296,-116.593 779.296,-152.593"/>
<text text-anchor="middle" x="739.296" y="-130.893" font-family="Times,serif" font-size="14.00">slowadd&#45;#0</text>
</g>
<!-- &#45;2542942628392695512 -->
<g id="node6" class="node"><title>&#45;2542942628392695512</title>
<ellipse fill="none" stroke="black" cx="641.296" cy="-228.889" rx="40.0939" ry="40.0939"/>
<text text-anchor="middle" x="641.296" y="-225.189" font-family="Times,serif" font-size="14.00">slowadd</text>
</g>
<!-- &#45;1447727350235010145&#45;&gt;&#45;2542942628392695512 -->
<g id="edge5" class="edge"><title>&#45;1447727350235010145&#45;&gt;&#45;2542942628392695512</title>
<path fill="none" stroke="black" d="M720.863,-152.953C708.776,-164.337 692.557,-179.612 677.916,-193.4"/>
<polygon fill="black" stroke="black" points="675.314,-191.043 670.434,-200.447 680.114,-196.139 675.314,-191.043"/>
</g>
<!-- 4068820759408322742 -->
<g id="node2" class="node"><title>4068820759408322742</title>
<ellipse fill="none" stroke="black" cx="740.296" cy="-40.2964" rx="40.0939" ry="40.0939"/>
<text text-anchor="middle" x="740.296" y="-36.5964" font-family="Times,serif" font-size="14.00">slowadd</text>
</g>
<!-- 4068820759408322742&#45;&gt;&#45;1447727350235010145 -->
<g id="edge1" class="edge"><title>4068820759408322742&#45;&gt;&#45;1447727350235010145</title>
<path fill="none" stroke="black" d="M739.869,-80.7061C739.776,-89.3294 739.679,-98.2735 739.592,-106.299"/>
<polygon fill="black" stroke="black" points="736.09,-106.519 739.481,-116.557 743.089,-106.595 736.09,-106.519"/>
</g>
<!-- 4730851803570255109 -->
<g id="node3" class="node"><title>4730851803570255109</title>
<polygon fill="none" stroke="black" points="681.296,-152.593 601.296,-152.593 601.296,-116.593 681.296,-116.593 681.296,-152.593"/>
<text text-anchor="middle" x="641.296" y="-130.893" font-family="Times,serif" font-size="14.00">slowadd&#45;#1</text>
</g>
<!-- 4730851803570255109&#45;&gt;&#45;2542942628392695512 -->
<g id="edge4" class="edge"><title>4730851803570255109&#45;&gt;&#45;2542942628392695512</title>
<path fill="none" stroke="black" d="M641.296,-152.953C641.296,-160.238 641.296,-169.116 641.296,-178.178"/>
<polygon fill="black" stroke="black" points="637.797,-178.413 641.296,-188.413 644.797,-178.413 637.797,-178.413"/>
</g>
<!-- 3407803151453641532 -->
<g id="node4" class="node"><title>3407803151453641532</title>
<ellipse fill="none" stroke="black" cx="641.296" cy="-40.2964" rx="40.0939" ry="40.0939"/>
<text text-anchor="middle" x="641.296" y="-36.5964" font-family="Times,serif" font-size="14.00">slowadd</text>
</g>
<!-- 3407803151453641532&#45;&gt;4730851803570255109 -->
<g id="edge2" class="edge"><title>3407803151453641532&#45;&gt;4730851803570255109</title>
<path fill="none" stroke="black" d="M641.296,-80.7061C641.296,-89.3294 641.296,-98.2735 641.296,-106.299"/>
<polygon fill="black" stroke="black" points="637.797,-106.557 641.296,-116.557 644.797,-106.557 637.797,-106.557"/>
</g>
<!-- &#45;6611855138564340215 -->
<g id="node5" class="node"><title>&#45;6611855138564340215</title>
<polygon fill="none" stroke="black" points="656.296,-341.186 576.296,-341.186 576.296,-305.186 656.296,-305.186 656.296,-341.186"/>
<text text-anchor="middle" x="616.296" y="-319.486" font-family="Times,serif" font-size="14.00">slowadd&#45;#2</text>
</g>
<!-- 1498972946120700940 -->
<g id="node14" class="node"><title>1498972946120700940</title>
<ellipse fill="none" stroke="black" cx="493.296" cy="-417.482" rx="40.0939" ry="40.0939"/>
<text text-anchor="middle" x="493.296" y="-413.782" font-family="Times,serif" font-size="14.00">slowadd</text>
</g>
<!-- &#45;6611855138564340215&#45;&gt;1498972946120700940 -->
<g id="edge12" class="edge"><title>&#45;6611855138564340215&#45;&gt;1498972946120700940</title>
<path fill="none" stroke="black" d="M593.449,-341.33C576.596,-353.976 553.231,-371.508 533.308,-386.459"/>
<polygon fill="black" stroke="black" points="531.193,-383.67 525.295,-392.471 535.394,-389.269 531.193,-383.67"/>
</g>
<!-- &#45;2542942628392695512&#45;&gt;&#45;6611855138564340215 -->
<g id="edge3" class="edge"><title>&#45;2542942628392695512&#45;&gt;&#45;6611855138564340215</title>
<path fill="none" stroke="black" d="M630.984,-267.963C628.497,-277.141 625.892,-286.76 623.578,-295.304"/>
<polygon fill="black" stroke="black" points="620.163,-294.525 620.926,-305.092 626.919,-296.355 620.163,-294.525"/>
</g>
<!-- &#45;2288072461915706365 -->
<g id="node7" class="node"><title>&#45;2288072461915706365</title>
<polygon fill="none" stroke="black" points="484.296,-152.593 404.296,-152.593 404.296,-116.593 484.296,-116.593 484.296,-152.593"/>
<text text-anchor="middle" x="444.296" y="-130.893" font-family="Times,serif" font-size="14.00">slowadd&#45;#3</text>
</g>
<!-- 3773008621624736447 -->
<g id="node12" class="node"><title>3773008621624736447</title>
<ellipse fill="none" stroke="black" cx="493.296" cy="-228.889" rx="40.0939" ry="40.0939"/>
<text text-anchor="middle" x="493.296" y="-225.189" font-family="Times,serif" font-size="14.00">slowadd</text>
</g>
<!-- &#45;2288072461915706365&#45;&gt;3773008621624736447 -->
<g id="edge9" class="edge"><title>&#45;2288072461915706365&#45;&gt;3773008621624736447</title>
<path fill="none" stroke="black" d="M453.513,-152.953C458.191,-161.765 464.107,-172.909 469.937,-183.89"/>
<polygon fill="black" stroke="black" points="467.004,-185.829 474.785,-193.021 473.187,-182.547 467.004,-185.829"/>
</g>
<!-- &#45;8000702688119593342 -->
<g id="node8" class="node"><title>&#45;8000702688119593342</title>
<ellipse fill="none" stroke="black" cx="443.296" cy="-40.2964" rx="40.0939" ry="40.0939"/>
<text text-anchor="middle" x="443.296" y="-36.5964" font-family="Times,serif" font-size="14.00">slowadd</text>
</g>
<!-- &#45;8000702688119593342&#45;&gt;&#45;2288072461915706365 -->
<g id="edge6" class="edge"><title>&#45;8000702688119593342&#45;&gt;&#45;2288072461915706365</title>
<path fill="none" stroke="black" d="M443.723,-80.7061C443.817,-89.3294 443.914,-98.2735 444.001,-106.299"/>
<polygon fill="black" stroke="black" points="440.504,-106.595 444.112,-116.557 447.503,-106.519 440.504,-106.595"/>
</g>
<!-- &#45;6441452756991247051 -->
<g id="node9" class="node"><title>&#45;6441452756991247051</title>
<polygon fill="none" stroke="black" points="582.296,-152.593 502.296,-152.593 502.296,-116.593 582.296,-116.593 582.296,-152.593"/>
<text text-anchor="middle" x="542.296" y="-130.893" font-family="Times,serif" font-size="14.00">slowadd&#45;#4</text>
</g>
<!-- &#45;6441452756991247051&#45;&gt;3773008621624736447 -->
<g id="edge10" class="edge"><title>&#45;6441452756991247051&#45;&gt;3773008621624736447</title>
<path fill="none" stroke="black" d="M533.08,-152.953C528.402,-161.765 522.486,-172.909 516.656,-183.89"/>
<polygon fill="black" stroke="black" points="513.406,-182.547 511.808,-193.021 519.589,-185.829 513.406,-182.547"/>
</g>
<!-- &#45;2556798758119237908 -->
<g id="node10" class="node"><title>&#45;2556798758119237908</title>
<ellipse fill="none" stroke="black" cx="542.296" cy="-40.2964" rx="40.0939" ry="40.0939"/>
<text text-anchor="middle" x="542.296" y="-36.5964" font-family="Times,serif" font-size="14.00">slowadd</text>
</g>
<!-- &#45;2556798758119237908&#45;&gt;&#45;6441452756991247051 -->
<g id="edge7" class="edge"><title>&#45;2556798758119237908&#45;&gt;&#45;6441452756991247051</title>
<path fill="none" stroke="black" d="M542.296,-80.7061C542.296,-89.3294 542.296,-98.2735 542.296,-106.299"/>
<polygon fill="black" stroke="black" points="538.797,-106.557 542.296,-116.557 545.797,-106.557 538.797,-106.557"/>
</g>
<!-- 8015526203940805386 -->
<g id="node11" class="node"><title>8015526203940805386</title>
<polygon fill="none" stroke="black" points="533.296,-341.186 453.296,-341.186 453.296,-305.186 533.296,-305.186 533.296,-341.186"/>
<text text-anchor="middle" x="493.296" y="-319.486" font-family="Times,serif" font-size="14.00">slowadd&#45;#5</text>
</g>
<!-- 8015526203940805386&#45;&gt;1498972946120700940 -->
<g id="edge13" class="edge"><title>8015526203940805386&#45;&gt;1498972946120700940</title>
<path fill="none" stroke="black" d="M493.296,-341.546C493.296,-348.83 493.296,-357.708 493.296,-366.771"/>
<polygon fill="black" stroke="black" points="489.797,-367.005 493.296,-377.005 496.797,-367.005 489.797,-367.005"/>
</g>
<!-- 3773008621624736447&#45;&gt;8015526203940805386 -->
<g id="edge8" class="edge"><title>3773008621624736447&#45;&gt;8015526203940805386</title>
<path fill="none" stroke="black" d="M493.296,-269.299C493.296,-277.922 493.296,-286.866 493.296,-294.892"/>
<polygon fill="black" stroke="black" points="489.797,-295.15 493.296,-305.15 496.797,-295.15 489.797,-295.15"/>
</g>
<!-- 189811280136074965 -->
<g id="node13" class="node"><title>189811280136074965</title>
<polygon fill="none" stroke="black" points="507.296,-529.779 427.296,-529.779 427.296,-493.779 507.296,-493.779 507.296,-529.779"/>
<text text-anchor="middle" x="467.296" y="-508.079" font-family="Times,serif" font-size="14.00">slowadd&#45;#6</text>
</g>
<!-- 8308580570298953439 -->
<g id="node30" class="node"><title>8308580570298953439</title>
<ellipse fill="none" stroke="black" cx="404.296" cy="-606.075" rx="40.0939" ry="40.0939"/>
<text text-anchor="middle" x="404.296" y="-602.375" font-family="Times,serif" font-size="14.00">slowadd</text>
</g>
<!-- 189811280136074965&#45;&gt;8308580570298953439 -->
<g id="edge29" class="edge"><title>189811280136074965&#45;&gt;8308580570298953439</title>
<path fill="none" stroke="black" d="M455.447,-530.139C448.907,-539.719 440.486,-552.056 432.372,-563.943"/>
<polygon fill="black" stroke="black" points="429.296,-562.241 426.549,-572.474 435.078,-566.188 429.296,-562.241"/>
</g>
<!-- 1498972946120700940&#45;&gt;189811280136074965 -->
<g id="edge11" class="edge"><title>1498972946120700940&#45;&gt;189811280136074965</title>
<path fill="none" stroke="black" d="M482.571,-456.555C479.985,-465.734 477.276,-475.353 474.869,-483.897"/>
<polygon fill="black" stroke="black" points="471.454,-483.111 472.112,-493.685 478.192,-485.009 471.454,-483.111"/>
</g>
<!-- &#45;6843373178033771657 -->
<g id="node15" class="node"><title>&#45;6843373178033771657</title>
<polygon fill="none" stroke="black" points="80.2964,-152.593 0.296424,-152.593 0.296424,-116.593 80.2964,-116.593 80.2964,-152.593"/>
<text text-anchor="middle" x="40.2964" y="-130.893" font-family="Times,serif" font-size="14.00">slowadd&#45;#7</text>
</g>
<!-- &#45;5889146630749507542 -->
<g id="node20" class="node"><title>&#45;5889146630749507542</title>
<ellipse fill="none" stroke="black" cx="138.296" cy="-228.889" rx="40.0939" ry="40.0939"/>
<text text-anchor="middle" x="138.296" y="-225.189" font-family="Times,serif" font-size="14.00">slowadd</text>
</g>
<!-- &#45;6843373178033771657&#45;&gt;&#45;5889146630749507542 -->
<g id="edge18" class="edge"><title>&#45;6843373178033771657&#45;&gt;&#45;5889146630749507542</title>
<path fill="none" stroke="black" d="M58.7295,-152.953C70.8166,-164.337 87.0355,-179.612 101.676,-193.4"/>
<polygon fill="black" stroke="black" points="99.4791,-196.139 109.159,-200.447 104.278,-191.043 99.4791,-196.139"/>
</g>
<!-- &#45;7608976353787271346 -->
<g id="node16" class="node"><title>&#45;7608976353787271346</title>
<ellipse fill="none" stroke="black" cx="40.2964" cy="-40.2964" rx="40.0939" ry="40.0939"/>
<text text-anchor="middle" x="40.2964" y="-36.5964" font-family="Times,serif" font-size="14.00">slowadd</text>
</g>
<!-- &#45;7608976353787271346&#45;&gt;&#45;6843373178033771657 -->
<g id="edge14" class="edge"><title>&#45;7608976353787271346&#45;&gt;&#45;6843373178033771657</title>
<path fill="none" stroke="black" d="M40.2964,-80.7061C40.2964,-89.3294 40.2964,-98.2735 40.2964,-106.299"/>
<polygon fill="black" stroke="black" points="36.7965,-106.557 40.2964,-116.557 43.7965,-106.557 36.7965,-106.557"/>
</g>
<!-- &#45;6026599723830869041 -->
<g id="node17" class="node"><title>&#45;6026599723830869041</title>
<polygon fill="none" stroke="black" points="178.296,-152.593 98.2964,-152.593 98.2964,-116.593 178.296,-116.593 178.296,-152.593"/>
<text text-anchor="middle" x="138.296" y="-130.893" font-family="Times,serif" font-size="14.00">slowadd&#45;#8</text>
</g>
<!-- &#45;6026599723830869041&#45;&gt;&#45;5889146630749507542 -->
<g id="edge17" class="edge"><title>&#45;6026599723830869041&#45;&gt;&#45;5889146630749507542</title>
<path fill="none" stroke="black" d="M138.296,-152.953C138.296,-160.238 138.296,-169.116 138.296,-178.178"/>
<polygon fill="black" stroke="black" points="134.797,-178.413 138.296,-188.413 141.797,-178.413 134.797,-178.413"/>
</g>
<!-- 210235780610412134 -->
<g id="node18" class="node"><title>210235780610412134</title>
<ellipse fill="none" stroke="black" cx="139.296" cy="-40.2964" rx="40.0939" ry="40.0939"/>
<text text-anchor="middle" x="139.296" y="-36.5964" font-family="Times,serif" font-size="14.00">slowadd</text>
</g>
<!-- 210235780610412134&#45;&gt;&#45;6026599723830869041 -->
<g id="edge15" class="edge"><title>210235780610412134&#45;&gt;&#45;6026599723830869041</title>
<path fill="none" stroke="black" d="M138.869,-80.7061C138.776,-89.3294 138.679,-98.2735 138.592,-106.299"/>
<polygon fill="black" stroke="black" points="135.09,-106.519 138.481,-116.557 142.089,-106.595 135.09,-106.519"/>
</g>
<!-- &#45;3913755223707585813 -->
<g id="node19" class="node"><title>&#45;3913755223707585813</title>
<polygon fill="none" stroke="black" points="204.296,-341.186 124.296,-341.186 124.296,-305.186 204.296,-305.186 204.296,-341.186"/>
<text text-anchor="middle" x="164.296" y="-319.486" font-family="Times,serif" font-size="14.00">slowadd&#45;#9</text>
</g>
<!-- &#45;7501820684955840912 -->
<g id="node28" class="node"><title>&#45;7501820684955840912</title>
<ellipse fill="none" stroke="black" cx="291.296" cy="-417.482" rx="40.0939" ry="40.0939"/>
<text text-anchor="middle" x="291.296" y="-413.782" font-family="Times,serif" font-size="14.00">slowadd</text>
</g>
<!-- &#45;3913755223707585813&#45;&gt;&#45;7501820684955840912 -->
<g id="edge26" class="edge"><title>&#45;3913755223707585813&#45;&gt;&#45;7501820684955840912</title>
<path fill="none" stroke="black" d="M187.887,-341.33C205.414,-354.067 229.762,-371.763 250.431,-386.783"/>
<polygon fill="black" stroke="black" points="248.589,-389.772 258.736,-392.819 252.705,-384.109 248.589,-389.772"/>
</g>
<!-- &#45;5889146630749507542&#45;&gt;&#45;3913755223707585813 -->
<g id="edge16" class="edge"><title>&#45;5889146630749507542&#45;&gt;&#45;3913755223707585813</title>
<path fill="none" stroke="black" d="M149.022,-267.963C151.607,-277.141 154.317,-286.76 156.724,-295.304"/>
<polygon fill="black" stroke="black" points="153.401,-296.416 159.481,-305.092 160.139,-294.518 153.401,-296.416"/>
</g>
<!-- 2293013982934993633 -->
<g id="node21" class="node"><title>2293013982934993633</title>
<polygon fill="none" stroke="black" points="282.296,-152.593 196.296,-152.593 196.296,-116.593 282.296,-116.593 282.296,-152.593"/>
<text text-anchor="middle" x="239.296" y="-130.893" font-family="Times,serif" font-size="14.00">slowadd&#45;#10</text>
</g>
<!-- &#45;1696623747313385227 -->
<g id="node26" class="node"><title>&#45;1696623747313385227</title>
<ellipse fill="none" stroke="black" cx="291.296" cy="-228.889" rx="40.0939" ry="40.0939"/>
<text text-anchor="middle" x="291.296" y="-225.189" font-family="Times,serif" font-size="14.00">slowadd</text>
</g>
<!-- 2293013982934993633&#45;&gt;&#45;1696623747313385227 -->
<g id="edge22" class="edge"><title>2293013982934993633&#45;&gt;&#45;1696623747313385227</title>
<path fill="none" stroke="black" d="M249.077,-152.953C254.138,-161.936 260.564,-173.341 266.866,-184.527"/>
<polygon fill="black" stroke="black" points="263.907,-186.406 271.865,-193.4 270.006,-182.97 263.907,-186.406"/>
</g>
<!-- 2905783923309949632 -->
<g id="node22" class="node"><title>2905783923309949632</title>
<ellipse fill="none" stroke="black" cx="239.296" cy="-40.2964" rx="40.0939" ry="40.0939"/>
<text text-anchor="middle" x="239.296" y="-36.5964" font-family="Times,serif" font-size="14.00">slowadd</text>
</g>
<!-- 2905783923309949632&#45;&gt;2293013982934993633 -->
<g id="edge19" class="edge"><title>2905783923309949632&#45;&gt;2293013982934993633</title>
<path fill="none" stroke="black" d="M239.296,-80.7061C239.296,-89.3294 239.296,-98.2735 239.296,-106.299"/>
<polygon fill="black" stroke="black" points="235.797,-106.557 239.296,-116.557 242.797,-106.557 235.797,-106.557"/>
</g>
<!-- &#45;600746444181826923 -->
<g id="node23" class="node"><title>&#45;600746444181826923</title>
<polygon fill="none" stroke="black" points="386.296,-152.593 300.296,-152.593 300.296,-116.593 386.296,-116.593 386.296,-152.593"/>
<text text-anchor="middle" x="343.296" y="-130.893" font-family="Times,serif" font-size="14.00">slowadd&#45;#11</text>
</g>
<!-- &#45;600746444181826923&#45;&gt;&#45;1696623747313385227 -->
<g id="edge23" class="edge"><title>&#45;600746444181826923&#45;&gt;&#45;1696623747313385227</title>
<path fill="none" stroke="black" d="M333.516,-152.953C328.455,-161.936 322.029,-173.341 315.727,-184.527"/>
<polygon fill="black" stroke="black" points="312.587,-182.97 310.727,-193.4 318.685,-186.406 312.587,-182.97"/>
</g>
<!-- &#45;3033862213898636724 -->
<g id="node24" class="node"><title>&#45;3033862213898636724</title>
<ellipse fill="none" stroke="black" cx="343.296" cy="-40.2964" rx="40.0939" ry="40.0939"/>
<text text-anchor="middle" x="343.296" y="-36.5964" font-family="Times,serif" font-size="14.00">slowadd</text>
</g>
<!-- &#45;3033862213898636724&#45;&gt;&#45;600746444181826923 -->
<g id="edge20" class="edge"><title>&#45;3033862213898636724&#45;&gt;&#45;600746444181826923</title>
<path fill="none" stroke="black" d="M343.296,-80.7061C343.296,-89.3294 343.296,-98.2735 343.296,-106.299"/>
<polygon fill="black" stroke="black" points="339.797,-106.557 343.296,-116.557 346.797,-106.557 339.797,-106.557"/>
</g>
<!-- 2863937739278735864 -->
<g id="node25" class="node"><title>2863937739278735864</title>
<polygon fill="none" stroke="black" points="334.296,-341.186 248.296,-341.186 248.296,-305.186 334.296,-305.186 334.296,-341.186"/>
<text text-anchor="middle" x="291.296" y="-319.486" font-family="Times,serif" font-size="14.00">slowadd&#45;#12</text>
</g>
<!-- 2863937739278735864&#45;&gt;&#45;7501820684955840912 -->
<g id="edge25" class="edge"><title>2863937739278735864&#45;&gt;&#45;7501820684955840912</title>
<path fill="none" stroke="black" d="M291.296,-341.546C291.296,-348.83 291.296,-357.708 291.296,-366.771"/>
<polygon fill="black" stroke="black" points="287.797,-367.005 291.296,-377.005 294.797,-367.005 287.797,-367.005"/>
</g>
<!-- &#45;1696623747313385227&#45;&gt;2863937739278735864 -->
<g id="edge21" class="edge"><title>&#45;1696623747313385227&#45;&gt;2863937739278735864</title>
<path fill="none" stroke="black" d="M291.296,-269.299C291.296,-277.922 291.296,-286.866 291.296,-294.892"/>
<polygon fill="black" stroke="black" points="287.797,-295.15 291.296,-305.15 294.797,-295.15 287.797,-295.15"/>
</g>
<!-- 7753867685602789777 -->
<g id="node27" class="node"><title>7753867685602789777</title>
<polygon fill="none" stroke="black" points="384.296,-529.779 298.296,-529.779 298.296,-493.779 384.296,-493.779 384.296,-529.779"/>
<text text-anchor="middle" x="341.296" y="-508.079" font-family="Times,serif" font-size="14.00">slowadd&#45;#13</text>
</g>
<!-- 7753867685602789777&#45;&gt;8308580570298953439 -->
<g id="edge28" class="edge"><title>7753867685602789777&#45;&gt;8308580570298953439</title>
<path fill="none" stroke="black" d="M353.146,-530.139C359.686,-539.719 368.107,-552.056 376.221,-563.943"/>
<polygon fill="black" stroke="black" points="373.515,-566.188 382.043,-572.474 379.296,-562.241 373.515,-566.188"/>
</g>
<!-- &#45;7501820684955840912&#45;&gt;7753867685602789777 -->
<g id="edge24" class="edge"><title>&#45;7501820684955840912&#45;&gt;7753867685602789777</title>
<path fill="none" stroke="black" d="M310.199,-453.375C315.858,-463.82 321.96,-475.085 327.247,-484.845"/>
<polygon fill="black" stroke="black" points="324.186,-486.541 332.026,-493.667 330.34,-483.207 324.186,-486.541"/>
</g>
<!-- 6535567140678186 -->
<g id="node29" class="node"><title>6535567140678186</title>
<polygon fill="none" stroke="black" points="447.296,-718.371 361.296,-718.371 361.296,-682.371 447.296,-682.371 447.296,-718.371"/>
<text text-anchor="middle" x="404.296" y="-696.671" font-family="Times,serif" font-size="14.00">slowadd&#45;#14</text>
</g>
<!-- 8308580570298953439&#45;&gt;6535567140678186 -->
<g id="edge27" class="edge"><title>8308580570298953439&#45;&gt;6535567140678186</title>
<path fill="none" stroke="black" d="M404.296,-646.485C404.296,-655.108 404.296,-664.052 404.296,-672.077"/>
<polygon fill="black" stroke="black" points="400.797,-672.335 404.296,-682.335 407.797,-672.335 400.797,-672.335"/>
</g>
</g>
</svg>
